{
.appVersion = "3324";
.formatVersion = 3;
axes = (
{
name = Weight;
tag = wght;
}
);
classes = (
{
code = "zero one two three four five six seven eight nine";
name = fig;
},
{
code = "zerosuperior onesuperior twosuperior threesuperior foursuperior fivesuperior sixsuperior sevensuperior eightsuperior ninesuperior 
";
name = sups;
},
{
code = "zeroinferior oneinferior twoinferior threeinferior fourinferior fiveinferior sixinferior seveninferior eightinferior nineinferior 
";
name = dnom;
}
);
customParameters = (
{
disabled = 1;
name = glyphOrder;
value = (
.notdef,
NULL,
CR,
space,
uni00A0,
A,
B,
C,
D,
E,
F,
G,
H,
I,
J,
K,
L,
M,
N,
O,
P,
Q,
R,
S,
T,
U,
V,
W,
X,
Y,
Z,
Aacute,
Abreve,
Acircumflex,
Adieresis,
AE,
Agrave,
Amacron,
Aogonek,
Aring,
Atilde,
Cacute,
Ccaron,
Ccedilla,
Ccircumflex,
Cdotaccent,
Dcaron,
Dcroat,
Eacute,
Ebreve,
Ecaron,
Ecircumflex,
Edieresis,
Edotaccent,
Egrave,
Emacron,
Eng,
Eogonek,
Eth,
Gbreve,
Gcircumflex,
Gcommaaccent,
Gdotaccent,
Hbar,
Hcircumflex,
Iacute,
Ibreve,
Icircumflex,
Idieresis,
Idotaccent,
Igrave,
IJ,
Imacron,
Iogonek,
Itilde,
Jcircumflex,
Kcommaaccent,
Lacute,
Lcaron,
Lcommaaccent,
Ldot,
Lslash,
Nacute,
Ncaron,
Ncommaaccent,
Ntilde,
Oacute,
Obreve,
Ocircumflex,
Odieresis,
OE,
Ograve,
Ohungarumlaut,
Omacron,
Oslash,
Otilde,
Racute,
Rcaron,
Rcommaaccent,
Sacute,
Scaron,
Scedilla,
Scircumflex,
Scommaaccent,
Tbar,
Tcaron,
Tcedilla,
uni021A,
Thorn,
Uacute,
Ubreve,
Ucircumflex,
Udieresis,
Ugrave,
Uhungarumlaut,
Umacron,
Uogonek,
Uring,
Utilde,
Wacute,
Wdieresis,
Wgrave,
Wcircumflex,
Yacute,
Ycircumflex,
Ydieresis,
Ygrave,
Zacute,
Zcaron,
Zdotaccent,
a,
b,
c,
d,
e,
f,
g,
h,
i,
j,
k,
l,
m,
n,
o,
p,
q,
r,
s,
t,
u,
v,
w,
x,
y,
z,
aacute,
abreve,
acircumflex,
adieresis,
ae,
agrave,
amacron,
aogonek,
aring,
atilde,
cacute,
ccaron,
ccedilla,
ccircumflex,
cdotaccent,
dcaron,
dcroat,
dotlessi,
dotlessj,
eacute,
ebreve,
ecaron,
ecircumflex,
edieresis,
edotaccent,
egrave,
emacron,
eng,
eogonek,
eth,
gbreve,
gcircumflex,
gcommaaccent,

glyphs = (
{
glyphname = A;
kernLeft = A;
kernRight = A;
lastChange = "2024-10-14 19:30:53 +0000";
layers = (
{
anchors = (
{
name = bottom;
pos = (529,0);
},
{
name = top;
pos = (397,700);
}
);
guides = (
{
pos = (397,700);
userData = {
UFO.identifier = Cx33hZyDh1;
};
}
);
layerId = m001;
shapes = (
{
closed = 1;
nodes = (
(28,0,l),
(144,210,l),
(450,210,l),
(478,0,l),
(529,0,l),
(433,700,l),
(361,700,l),
(-31,0,l)
);
},
{
closed = 1;
nodes = (
(390,658,l),
(444,252,l),
(167,252,l)
);
}
);
width = 600;
},
{
anchors = (
{
name = bottom;
pos = (545,0);
},
{
name = top;
pos = (392,700);
}
);
layerId = "E1238894-54FF-4BF5-8428-CDF6AE3ED177";
shapes = (
{
closed = 1;
nodes = (
(111,0,l),
(176,137,l),
(369,137,l),
(375,0,l),
(545,0,l),
(493,700,l),
(295,700,l),
(-55,0,l)
);
},
{
closed = 1;
nodes = (
(354,511,l),
(364,270,l),
(239,270,l)
);
}
);
width = 600;
},
{
anchors = (
{
name = bottom;
pos = (532,0);
},
{
name = top;
pos = (397,700);
}
);
layerId = "73361422-4D71-4ED1-86BB-2DC193C1BE05";
shapes = (
{
closed = 1;
nodes = (
(46,0,l),
(151,195,l),
(431,195,l),
(453,0,l),
(532,0,l),
(447,700,l),
(348,700,l),
(-36,0,l)
);
},
{
closed = 1;
nodes = (
(381,622,l),
(424,256,l),
(184,256,l)
);
}
);
width = 600;
}
);
unicode = 65;
},
{
glyphname = Aogonek;
kernLeft = A;
kernRight = A;
lastChange = "2024-10-14 19:30:53 +0000";
layers = (
{
layerId = m001;
shapes = (
{
closed = 1;
nodes = (
(28,0,l),
(144,210,l),
(450,210,l),
(478,0,l),
(479,0,l),
(392,-49,o),
(352,-98,o),
(352,-154,cs),
(352,-195,o),
(384,-232,o),
(449,-232,cs),
(470,-232,o),
(491,-227,o),
(506,-220,c),
(503,-188,l),
(490,-193,o),
(471,-197,o),
(457,-197,cs),
(419,-197,o),
(392,-176,o),
(392,-146,cs),
(392,-102,o),
(423,-56,o),
(529,0,c),
(433,700,l),
(361,700,l),
(-31,0,l)
);
},
{
closed = 1;
nodes = (
(390,658,l),
(444,252,l),
(167,252,l)
);
}
);
width = 600;
},
{
layerId = "E1238894-54FF-4BF5-8428-CDF6AE3ED177";
shapes = (
{
closed = 1;
nodes = (
(111,0,l),
(176,137,l),
(369,137,l),
(375,0,l),
(464,0,l),
(386,-47,o),
(348,-97,o),
(348,-153,cs),
(348,-201,o),
(382,-231,o),
(436,-231,cs),
(471,-231,o),
(507,-222,o),
(532,-208,c),
(527,-138,l),
(516,-145,o),
(498,-149,o),
(480,-149,cs),
(455,-149,o),
(440,-136,o),
(440,-113,cs),
(440,-76,o),
(475,-38,o),
(545,0,c),
(493,700,l),
(295,700,l),
(-55,0,l)
);
},
{
closed = 1;
nodes = (
(354,511,l),
(364,270,l),
(239,270,l)
);
}
);
width = 600;
},
{
layerId = "73361422-4D71-4ED1-86BB-2DC193C1BE05";
shapes = (
{
closed = 1;
nodes = (
(46,0,l),
(151,195,l),
(431,195,l),
(453,0,l),
(472,0,l),
(390,-48,o),
(350,-99,o),
(350,-154,cs),
(350,-201,o),
(388,-232,o),
(445,-232,cs),
(469,-232,o),
(493,-227,o),
(511,-218,c),
(507,-178,l),
(494,-183,o),
(475,-187,o),
(461,-187,cs),
(426,-187,o),
(401,-168,o),
(401,-139,cs),
(401,-92,o),
(443,-48,o),
(532,0,c),
(447,700,l),
(348,700,l),
(-36,0,l)
);
},
{
closed = 1;
nodes = (
(381,622,l),
(424,256,l),
(184,256,l)
);
}
);
width = 600;
}
);
unicode = 260;
},
{
glyphname = AE;
kernLeft = A;
kernRight = E;
lastChange = "2024-10-14 19:30:53 +0000";
layers = (
{
layerId = m001;
shapes = (
{
closed = 1;
nodes = (
(21,0,l),
(122,182,l),
(275,182,l),
(236,0,l),
(518,0,l),
(528,47,l),
(299,47,l),
(359,330,l),
(509,330,l),
(519,377,l),
(369,377,l),
(428,653,l),
(654,653,l),
(664,700,l),
(354,700,l),
(-42,0,l)
);
},
{
closed = 1;
nodes = (
(371,633,l),
(284,224,l),
(145,224,l)
);
}
);
width = 600;
},
{
layerId = "E1238894-54FF-4BF5-8428-CDF6AE3ED177";
shapes = (
{
closed = 1;
nodes = (
(80,0,l),
(132,123,l),
(225,123,l),
(199,0,l),
(522,0,l),
(552,143,l),
(381,143,l),
(411,284,l),
(513,284,l),
(543,423,l),
(440,423,l),
(469,557,l),
(636,557,l),
(666,700,l),
(246,700,l),
(-66,0,l)
);
},
{
closed = 1;
nodes = (
(317,559,l),
(251,248,l),
(185,248,l)
);
}
);
width = 600;
},
{
layerId = "73361422-4D71-4ED1-86BB-2DC193C1BE05";
shapes = (
{
closed = 1;
nodes = (
(49,0,l),
(139,170,l),
(283,170,l),
(247,0,l),
(536,0,l),
(550,67,l),
(336,67,l),
(390,320,l),
(527,320,l),
(541,387,l),
(404,387,l),
(456,633,l),
(666,633,l),
(680,700,l),
(350,700,l),
(-30,0,l)
);
},
{
closed = 1;
nodes = (
(379,625,l),
(296,231,l),
(171,231,l)
);
}
);
width = 600;
}
);
unicode = 198;
},
{
glyphname = B;
kernLeft = H;
lastChange = "2024-10-14 19:30:53 +0000";
layers = (
{
layerId = m001;
shapes = (
{
closed = 1;
nodes = (
(283,0,ls),
(426,0,o),
(529,91,o),
(529,218,cs),
(529,293,o),
(485,344,o),
(408,362,c),
(507,381,o),
(572,453,o),
(572,548,cs),
(572,643,o),
(504,700,o),
(392,700,cs),
(199,700,l),
(50,0,l)
);
},
{
closed = 1;
nodes = (
(240,653,l),
(385,653,ls),
(470,653,o),
(521,609,o),
(521,540,cs),
(521,450,o),
(450,386,o),
(348,386,cs),
(183,386,l)
);
},
{
closed = 1;
nodes = (
(174,342,l),
(325,342,ls),
(420,342,o),
(477,294,o),
(477,216,cs),
(477,116,o),
(398,47,o),
(283,47,cs),
(111,47,l)
);
}
);
width = 600;
},
{
layerId = "E1238894-54FF-4BF5-8428-CDF6AE3ED177";
shapes = (
{
closed = 1;
nodes = (
(300,0,ls),
(444,0,o),
(559,96,o),
(559,215,cs),
(559,276,o),
(523,326,o),
(465,354,c),
(541,389,o),
(593,456,o),
(593,534,cs),
(593,633,o),
(511,700,o),
(389,700,cs),
(166,700,l),
(17,0,l)
);
},
{
closed = 1;
nodes = (
(305,563,l),
(351,563,ls),
(394,563,o),
(420,540,o),
(420,501,cs),
(420,454,o),
(382,419,o),
(331,419,cs),
(274,419,l)
);
},
{
closed = 1;
nodes = (
(247,291,l),
(315,291,ls),
(362,291,o),
(390,266,o),
(390,225,cs),
(390,174,o),
(350,137,o),
(295,137,cs),
(214,137,l)
);
}
);
width = 600;
},
{
layerId = "73361422-4D71-4ED1-86BB-2DC193C1BE05";
shapes = (
{
closed = 1;
nodes = (
(285,0,ls),
(428,0,o),
(533,92,o),
(533,217,cs),
(533,288,o),
(492,339,o),
(423,360,c),
(515,384,o),
(576,455,o),
(576,545,cs),
(576,641,o),
(505,700,o),
(391,700,cs),
(192,700,l),
(43,0,l)
);
},
{
closed = 1;
nodes = (
(255,634,l),
(378,634,ls),
(454,634,o),
(499,595,o),
(499,532,cs),
(499,451,o),
(436,394,o),
(344,394,cs),
(204,394,l)
);
},
{
closed = 1;
nodes = (
(190,331,l),
(321,331,ls),
(406,331,o),
(457,288,o),
(457,218,cs),
(457,128,o),
(386,66,o),
(284,66,cs),
(134,66,l)
);
}
);
width = 600;
}
);
unicode = 66;
},
{
glyphname = C;
kernLeft = O;
kernRight = C;
lastChange = "2024-10-14 19:30:53 +0000";
layers = (
{
anchors = (
{
name = bottom;
pos = (290,0);
},
{
name = top;
pos = (380,700);
}
);
guides = (
{
pos = (186,297);
userData = {
UFO.identifier = XzmC9agYa3;
};
}
);
layerId = m001;
shapes = (
{
closed = 1;
nodes = (
(398,-11,o),
(500,66,o),
(555,198,c),
(507,216,l),
(459,102,o),
(378,37,o),
(284,37,cs),
(181,37,o),
(110,128,o),
(110,277,cs),
(110,513,o),
(243,663,o),
(378,663,cs),
(470,663,o),
(532,603,o),
(553,490,c),
(603,500,l),
(580,634,o),
(496,711,o),
(377,711,cs),
(223,711,o),
(59,555,o),
(59,276,cs),
(59,94,o),
(153,-11,o),
(284,-11,cs)
);
}
);
userData = {
com.typemytype.robofont.guideline.magnetic.Xb6nk9FEni = 5;
com.typemytype.robofont.guideline.magnetic.fJyXOYVzbz = 5;
com.typemytype.robofont.guideline.magnetic.vlo5H4bvfx = 5;
};
width = 600;
},
{
anchors = (
{
name = bottom;
pos = (276,0);
},
{
name = top;
pos = (365,700);
}
);
guides = (
{
pos = (221,276);
userData = {
UFO.identifier = XzmC9agYa3;
};
}
);
layerId = "E1238894-54FF-4BF5-8428-CDF6AE3ED177";
shapes = (
{
closed = 1;
nodes = (
(415,-9,o),
(514,91,o),
(563,229,c),
(413,275,l),
(388,198,o),
(348,143,o),
(291,143,cs),
(244,143,o),
(208,183,o),
(208,280,cs),
(208,416,o),
(263,557,o),
(351,557,cs),
(397,557,o),
(428,516,o),
(433,432,c),
(601,458,l),
(586,625,o),
(487,709,o),
(360,709,cs),
(163,709,o),
(38,495,o),
(38,266,cs),
(38,87,o),
(144,-9,o),
(278,-9,cs)
);
}
);
userData = {
com.typemytype.robofont.guideline.magnetic.Xb6nk9FEni = 5;
com.typemytype.robofont.guideline.magnetic.fJyXOYVzbz = 5;
com.typemytype.robofont.guideline.magnetic.vlo5H4bvfx = 5;
};
width = 600;
},
{
anchors = (
{
name = bottom;
pos = (287,0);
},
{
name = top;
pos = (377,700);
}
);
guides = (
{
pos = (164,284);
userData = {
UFO.identifier = XzmC9agYa3;
};
}
);
layerId = "73361422-4D71-4ED1-86BB-2DC193C1BE05";
shapes = (
{
closed = 1;
nodes = (
(412,-11,o),
(510,69,o),
(563,204,c),
(492,227,l),
(454,119,o),
(377,59,o),
(295,59,cs),
(202,59,o),
(136,144,o),
(136,292,cs),
(136,500,o),
(237,641,o),
(357,641,cs),
(439,641,o),
(502,581,o),
(518,473,c),
(593,496,l),
(570,631,o),
(485,711,o),
(361,711,cs),
(201,711,o),
(58,546,o),
(58,286,cs),
(58,94,o),
(156,-11,o),
(291,-11,cs)
);
}
);
userData = {
com.typemytype.robofont.guideline.magnetic.Xb6nk9FEni = 5;
com.typemytype.robofont.guideline.magnetic.fJyXOYVzbz = 5;
com.typemytype.robofont.guideline.magnetic.vlo5H4bvfx = 5;
};
width = 600;
}
);
unicode = 67;
},
{
glyphname = Ccedilla;
kernLeft = O;
kernRight = C;
lastChange = "2024-10-14 19:30:53 +0000";
layers = (
{
layerId = m001;
shapes = (
{
closed = 1;
nodes = (
(310,-235,o),
(358,-195,o),
(358,-138,c),
(358,-99,o),
(330,-72,o),
(277,-68,c),
(302,-10,l),
(409,-2,o),
(503,73,o),
(555,198,c),
(507,216,l),
(459,102,o),
(378,37,o),
(284,37,cs),
(181,37,o),
(110,128,o),
(110,277,cs),
(110,513,o),
(243,663,o),
(378,663,cs),
(470,663,o),
(532,603,o),
(553,490,c),
(603,500,l),
(580,634,o),
(496,711,o),
(377,711,cs),
(223,711,o),
(59,555,o),
(59,276,cs),
(59,101,o),
(146,-3,o),
(269,-11,c),
(231,-96,l),
(255,-96,ls),
(296,-96,o),
(323,-113,o),
(323,-144,c),
(323,-178,o),
(296,-204,o),
(246,-204,c),
(217,-204,o),
(194,-194,o),
(173,-171,c),
(149,-195,l),
(167,-217,o),
(202,-235,o),
(248,-235,c)
);
}
);
width = 600;
},
{
layerId = "E1238894-54FF-4BF5-8428-CDF6AE3ED177";
shapes = (
{
closed = 1;
nodes = (
(312,-253,o),
(373,-201,o),
(373,-136,c),
(373,-94,o),
(342,-66,o),
(288,-59,c),
(311,-7,l),
(423,7,o),
(515,93,o),
(563,229,c),
(413,275,l),
(385,189,o),
(343,143,o),
(291,143,cs),
(238,143,o),
(208,193,o),
(208,280,cs),
(208,433,o),
(272,557,o),
(351,557,cs),
(399,557,o),
(428,513,o),
(433,432,c),
(601,458,l),
(587,614,o),
(496,709,o),
(360,709,cs),
(178,709,o),
(38,516,o),
(38,266,cs),
(38,116,o),
(115,12,o),
(238,-6,c),
(194,-109,l),
(235,-109,ls),
(266,-109,o),
(286,-123,o),
(286,-144,c),
(286,-167,o),
(265,-182,o),
(233,-182,c),
(203,-182,o),
(175,-170,o),
(156,-150,c),
(101,-205,l),
(130,-237,o),
(174,-253,o),
(235,-253,c)
);
}
);
width = 600;
},
{
layerId = "73361422-4D71-4ED1-86BB-2DC193C1BE05";
shapes = (
{
closed = 1;
nodes = (
(310,-239,o),
(360,-195,o),
(360,-138,c),
(360,-99,o),
(330,-70,o),
(279,-66,c),
(303,-11,l),
(419,-5,o),
(512,74,o),
(563,204,c),
(492,227,l),
(454,119,o),
(377,59,o),
(295,59,cs),
(202,59,o),
(136,144,o),
(136,292,cs),
(136,500,o),
(237,641,o),
(357,641,cs),
(439,641,o),
(502,581,o),
(518,473,c),
(593,496,l),
(570,631,o),
(485,711,o),
(361,711,cs),
(201,711,o),
(58,546,o),
(58,286,cs),
(58,108,o),
(142,5,o),
(262,-9,c),
(222,-99,l),
(250,-99,ls),
(290,-99,o),
(314,-116,o),
(314,-144,c),
(314,-177,o),
(286,-199,o),
(242,-199,c),
(213,-199,o),
(189,-189,o),
(169,-167,c),
(138,-197,l),
(160,-224,o),
(199,-239,o),
(244,-239,c)
);
}
);
width = 600;
}
);
unicode = 199;
},
{
glyphname = D;
kernLeft = H;
kernRight = O;
lastChange = "2024-10-14 19:30:53 +0000";
layers = (
{
anchors = (
{
name = top;
pos = (411,700);
}
);
layerId = m001;
shapes = (
{
closed = 1;
nodes = (
(250,0,ls),
(447,0,o),
(586,181,o),
(586,412,cs),
(586,614,o),
(478,700,o),
(329,700,cs),
(194,700,l),
(45,0,l)
);
},
{
closed = 1;
nodes = (
(462,653,o),
(535,567,o),
(535,406,cs),
(535,211,o),
(421,47,o),
(247,47,cs),
(106,47,l),
(235,653,l),
(335,653,ls)
);
}
);
width = 600;
},
{
anchors = (
{
name = top;
pos = (395,700);
}
);
layerId = "E1238894-54FF-4BF5-8428-CDF6AE3ED177";
shapes = (
{
closed = 1;
nodes = (
(226,0,ls),
(435,0,o),
(600,171,o),
(600,421,cs),
(600,588,o),
(494,700,o),
(331,700,cs),
(146,700,l),
(-3,0,l)
);
},
{
closed = 1;
nodes = (
(389,553,o),
(430,513,o),
(430,419,cs),
(430,262,o),
(349,147,o),
(229,147,cs),
(200,147,l),
(287,553,l),
(313,553,ls)
);
}
);
width = 600;
},
{
anchors = (
{
name = top;
pos = (367,700);
}
);
layerId = "73361422-4D71-4ED1-86BB-2DC193C1BE05";
shapes = (
{
closed = 1;
nodes = (
(245,0,ls),
(444,0,o),
(589,180,o),
(589,415,cs),
(589,609,o),
(479,700,o),
(327,700,cs),
(184,700,l),
(35,0,l)
);
},
{
closed = 1;
nodes = (
(443,633,o),
(513,556,o),
(513,409,cs),
(513,221,o),
(406,67,o),
(243,67,cs),
(126,67,l),
(247,633,l),
(327,633,ls)
);
}
);
width = 600;
}
);
unicode = 68;
},
{
glyphname = Dcroat;
kernRight = O;
lastChange = "2024-10-14 19:30:53 +0000";
layers = (
{
guides = (
{
pos = (217,349);
userData = {
UFO.identifier = lSU6gAvYy4;
};
}
);
layerId = m001;
shapes = (
{
closed = 1;
nodes = (
(245,0,ls),
(442,0,o),
(581,181,o),
(581,412,cs),
(581,614,o),
(470,700,o),
(321,700,cs),
(199,700,l),
(129,373,l),
(46,373,l),
(36,329,l),
(120,329,l),
(50,0,l)
);
},
{
closed = 1;
nodes = (
(171,329,l),
(304,329,l),
(314,373,l),
(180,373,l),
(240,653,l),
(326,653,ls),
(453,653,o),
(530,567,o),
(530,406,cs),
(530,211,o),
(416,47,o),
(242,47,cs),
(111,47,l)
);
}
);
userData = {
com.typemytype.robofont.guideline.showMeasurements.lSU6gAvYy4 = 1;
};
width = 600;
},
{
layerId = "E1238894-54FF-4BF5-8428-CDF6AE3ED177";
shapes = (
{
closed = 1;
nodes = (
(226,0,ls),
(435,0,o),
(600,171,o),
(600,421,cs),
(600,588,o),
(494,700,o),
(331,700,cs),
(156,700,l),
(95,412,l),
(39,412,l),
(13,293,l),
(69,293,l),
(7,0,l)
);
},
{
closed = 1;
nodes = (
(241,293,l),
(307,293,l),
(333,412,l),
(267,412,l),
(297,553,l),
(313,553,ls),
(389,553,o),
(430,513,o),
(430,419,cs),
(430,262,o),
(349,147,o),
(229,147,cs),
(210,147,l)
);
}
);
userData = {
com.typemytype.robofont.guideline.showMeasurements.lSU6gAvYy4 = 1;
};
width = 600;
},
{
guides = (
{
angle = 78;
pos = (316,393);
userData = {
UFO.identifier = lSU6gAvYy4;
};
}
);
layerId = "73361422-4D71-4ED1-86BB-2DC193C1BE05";
shapes = (
{
closed = 1;
nodes = (
(240,0,ls),
(439,0,o),
(584,180,o),
(584,415,cs),
(584,609,o),
(474,700,o),
(322,700,cs),
(189,700,l),
(122,383,l),
(43,383,l),
(29,322,l),
(109,322,l),
(40,0,l)
);
},
{
closed = 1;
nodes = (
(186,322,l),
(300,322,l),
(313,383,l),
(199,383,l),
(252,633,l),
(322,633,ls),
(438,633,o),
(508,556,o),
(508,409,cs),
(508,221,o),
(401,67,o),
(238,67,cs),
(131,67,l)
);
}
);
userData = {
com.typemytype.robofont.guideline.showMeasurements.lSU6gAvYy4 = 1;
};
width = 600;
}
);
unicode = 272;
},
{
glyphname = E;
kernLeft = H;
kernRight = E;
lastChange = "2024-10-14 19:30:53 +0000";
layers = (
{
anchors = (
{
name = bottom;
pos = (481,0);
},
{
name = top;
pos = (414,700);
}
);
guides = (
{
pos = (414,700);
userData = {
UFO.identifier = Wni4gYSWCf;
};
}
);
layerId = m001;
shapes = (
{
closed = 1;
nodes = (
(481,0,l),
(491,47,l),
(114,47,l),
(174,330,l),
(426,330,l),
(436,377,l),
(184,377,l),
(243,653,l),
(617,653,l),
(627,700,l),
(202,700,l),
(53,0,l)
);
}
);
width = 600;
},
{
anchors = (
{
name = bottom;
pos = (506,0);
},
{
name = top;
pos = (418,700);
}
);
layerId = "E1238894-54FF-4BF5-8428-CDF6AE3ED177";
shapes = (
{
closed = 1;
nodes = (
(506,0,l),
(538,144,l),
(216,144,l),
(245,283,l),
(450,283,l),
(480,423,l),
(275,423,l),
(303,556,l),
(619,556,l),
(651,700,l),
(166,700,l),
(17,0,l)
);
}
);
width = 600;
},
{
anchors = (
{
name = bottom;
pos = (487,0);
},
{
name = top;
pos = (397,700);
}
);
layerId = "73361422-4D71-4ED1-86BB-2DC193C1BE05";
shapes = (
{
closed = 1;
nodes = (
(487,0,l),
(501,67,l),
(136,67,l),
(190,320,l),
(431,320,l),
(445,387,l),
(204,387,l),
(257,633,l),
(617,633,l),
(632,700,l),
(194,700,l),
(45,0,l)
);
}
);
width = 600;
}
);
unicode = 69;
},
{
glyphname = Eogonek;
kernLeft = H;
kernRight = E;
lastChange = "2024-10-14 19:30:53 +0000";
layers = (
{
layerId = m001;
shapes = (
{
closed = 1;
nodes = (
(426,0,l),
(333,-55,o),
(304,-107,o),
(304,-154,cs),
(304,-195,o),
(336,-232,o),
(401,-232,cs),
(422,-232,o),
(443,-227,o),
(458,-220,c),
(455,-188,l),
(442,-193,o),
(423,-197,o),
(409,-197,cs),
(371,-197,o),
(344,-176,o),
(344,-146,cs),
(344,-102,o),
(375,-56,o),
(481,0,c),
(491,47,l),
(114,47,l),
(174,330,l),
(426,330,l),
(436,377,l),
(184,377,l),
(243,653,l),
(617,653,l),
(627,700,l),
(202,700,l),
(53,0,l)
);
}
);
width = 600;
},
{
layerId = "E1238894-54FF-4BF5-8428-CDF6AE3ED177";
shapes = (
{
closed = 1;
nodes = (
(425,0,l),
(347,-47,o),
(309,-97,o),
(309,-153,cs),
(309,-201,o),
(343,-231,o),
(397,-231,cs),
(432,-231,o),
(468,-222,o),
(493,-208,c),
(488,-138,l),
(477,-145,o),
(459,-149,o),
(441,-149,cs),
(416,-149,o),
(401,-136,o),
(401,-113,cs),
(401,-76,o),
(436,-38,o),
(506,0,c),
(538,144,l),
(216,144,l),
(245,283,l),
(450,283,l),
(480,423,l),
(275,423,l),
(303,556,l),
(619,556,l),
(651,700,l),
(166,700,l),
(17,0,l)
);
}
);
width = 600;
},
{
layerId = "73361422-4D71-4ED1-86BB-2DC193C1BE05";
shapes = (
{
closed = 1;
nodes = (
(427,0,l),
(345,-48,o),
(305,-99,o),
(305,-154,cs),
(305,-201,o),
(343,-232,o),
(400,-232,cs),
(424,-232,o),
(448,-227,o),
(466,-218,c),
(462,-178,l),
(449,-183,o),
(430,-187,o),
(416,-187,cs),
(381,-187,o),
(356,-168,o),
(356,-139,cs),
(356,-92,o),
(398,-48,o),
(487,0,c),
(501,67,l),
(136,67,l),
(190,320,l),
(431,320,l),
(445,387,l),
(204,387,l),
(257,633,l),
(617,633,l),
(632,700,l),
(194,700,l),
(45,0,l)
);
}
);
width = 600;
}
);
unicode = 280;
},
{
glyphname = F;
kernLeft = H;
lastChange = "2024-10-14 19:30:53 +0000";
layers = (
{
layerId = m001;
shapes = (
{
closed = 1;
nodes = (
(110,0,l),
(179,325,l),
(443,325,l),
(453,372,l),
(189,372,l),
(249,653,l),
(629,653,l),
(639,700,l),
(208,700,l),
(59,0,l)
);
}
);
width = 600;
},
{
layerId = "E1238894-54FF-4BF5-8428-CDF6AE3ED177";
shapes = (
{
closed = 1;
nodes = (
(185,0,l),
(244,278,l),
(454,278,l),
(484,418,l),
(274,418,l),
(303,556,l),
(619,556,l),
(651,700,l),
(166,700,l),
(17,0,l)
);
}
);
width = 600;
},
{
layerId = "73361422-4D71-4ED1-86BB-2DC193C1BE05";
shapes = (
{
closed = 1;
nodes = (
(127,0,l),
(194,315,l),
(445,315,l),
(459,382,l),
(208,382,l),
(262,633,l),
(627,633,l),
(642,700,l),
(199,700,l),
(50,0,l)
);
}
);
width = 600;
}
);
unicode = 70;
},
{
glyphname = G;
kernLeft = O;
kernRight = G;
lastChange = "2024-10-14 19:30:53 +0000";
layers = (
{
anchors = (
{
name = bottom;
pos = (287,0);
},
{
name = top;
pos = (380,700);
}
);
layerId = m001;
shapes = (
{
closed = 1;
nodes = (
(432,-11,o),
(533,106,o),
(585,334,cs),
(590,356,l),
(360,356,l),
(350,309,l),
(524,309,l),
(488,135,o),
(403,37,o),
(288,37,cs),
(179,37,o),
(114,128,o),
(114,277,cs),
(114,513,o),
(235,663,o),
(377,663,cs),
(468,663,o),
(530,605,o),
(552,495,c),
(602,505,l),
(578,636,o),
(493,711,o),
(376,711,cs),
(212,711,o),
(63,555,o),
(63,276,cs),
(63,94,o),
(148,-11,o),
(284,-11,cs)
);
}
);
width = 600;
},
{
anchors = (
{
name = bottom;
pos = (286,0);
},
{
name = top;
pos = (368,700);
}
);
layerId = "E1238894-54FF-4BF5-8428-CDF6AE3ED177";
shapes = (
{
closed = 1;
nodes = (
(447,-9,o),
(573,141,o),
(597,357,cs),
(602,402,l),
(336,402,l),
(306,258,l),
(412,258,l),
(395,187,o),
(353,143,o),
(303,143,cs),
(245,143,o),
(208,194,o),
(208,275,cs),
(208,431,o),
(272,557,o),
(351,557,cs),
(389,557,o),
(416,528,o),
(427,475,c),
(590,524,l),
(559,641,o),
(473,709,o),
(356,709,cs),
(177,709,o),
(38,517,o),
(38,268,cs),
(38,103,o),
(140,-9,o),
(291,-9,cs)
);
}
);
width = 600;
},
{
anchors = (
{
name = bottom;
pos = (287,0);
},
{
name = top;
pos = (377,700);
}
);
layerId = "73361422-4D71-4ED1-86BB-2DC193C1BE05";
shapes = (
{
closed = 1;
nodes = (
(443,-11,o),
(556,120,o),
(588,339,cs),
(592,366,l),
(356,366,l),
(341,298,l),
(501,298,l),
(471,153,o),
(390,59,o),
(291,59,cs),
(196,59,o),
(133,130,o),
(133,274,cs),
(133,478,o),
(235,641,o),
(367,641,cs),
(448,641,o),
(508,579,o),
(523,473,c),
(598,487,l),
(576,634,o),
(481,711,o),
(369,711,cs),
(197,711,o),
(57,512,o),
(57,270,cs),
(57,86,o),
(149,-11,o),
(285,-11,cs)
);
}
);
width = 600;
}
);
unicode = 71;
},
{
glyphname = H;
kernLeft = H;
kernRight = H;
lastChange = "2024-11-06 18:04:41 +0000";
layers = (
{
anchors = (
{
name = top;
pos = (400,700);
}
);
guides = (
{
pos = (202,700);
userData = {
UFO.identifier = ey0azTqPvY;
};
}
);
layerId = m001;
shapes = (
{
closed = 1;
nodes = (
(79,0,l),
(149,329,l),
(489,329,l),
(419,0,l),
(470,0,l),
(619,700,l),
(568,700,l),
(499,376,l),
(159,376,l),
(228,700,l),
(177,700,l),
(28,0,l)
);
}
);
width = 600;
},
{
anchors = (
{
name = top;
pos = (392,700);
}
);
guides = (
{
angle = 90;
pos = (319,350);
userData = {
UFO.identifier = ey0azTqPvY;
};
},
{
angle = 75.9638;
pos = (-8,0);
}
);
layerId = "E1238894-54FF-4BF5-8428-CDF6AE3ED177";
shapes = (
{
closed = 1;
nodes = (
(164,0,l),
(223,277,l),
(385,277,l),
(326,0,l),
(498,0,l),
(647,700,l),
(475,700,l),
(417,428,l),
(255,428,l),
(313,700,l),
(141,700,l),
(-8,0,l)
);
}
);
width = 600;
},
{
anchors = (
{
name = top;
pos = (397,700);
}
);
layerId = "73361422-4D71-4ED1-86BB-2DC193C1BE05";
shapes = (
{
closed = 1;
nodes = (
(97,0,l),
(165,319,l),
(467,319,l),
(399,0,l),
(476,0,l),
(625,700,l),
(548,700,l),
(481,386,l),
(179,386,l),
(246,700,l),
(169,700,l),
(20,0,l)
);
}
);
width = 600;
}
);
unicode = 72;
},
{
glyphname = Hbar;
kernRight = H;
lastChange = "2024-10-14 19:30:53 +0000";
layers = (
{
layerId = m001;
shapes = (
{
closed = 1;
nodes = (
(79,0,l),
(149,329,l),
(489,329,l),
(419,0,l),
(470,0,l),
(583,529,l),
(654,529,l),
(664,573,l),
(592,573,l),
(619,700,l),
(568,700,l),
(541,573,l),
(201,573,l),
(228,700,l),
(177,700,l),
(150,573,l),
(78,573,l),
(68,529,l),
(141,529,l),
(28,0,l)
);
},
{
closed = 1;
nodes = (
(192,529,l),
(532,529,l),
(499,376,l),
(159,376,l)
);
}
);
width = 600;
},
{
layerId = "E1238894-54FF-4BF5-8428-CDF6AE3ED177";
shapes = (
{
closed = 1;
nodes = (
(164,0,l),
(223,277,l),
(385,277,l),
(326,0,l),
(498,0,l),
(603,493,l),
(650,493,l),
(675,613,l),
(628,613,l),
(647,700,l),
(475,700,l),
(456,613,l),
(294,613,l),
(313,700,l),
(141,700,l),
(122,613,l),
(75,613,l),
(50,493,l),
(97,493,l),
(-8,0,l)
);
},
{
closed = 1;
nodes = (
(269,493,l),
(431,493,l),
(415,417,l),
(253,417,l)
);
}
);
width = 600;
},
{
layerId = "73361422-4D71-4ED1-86BB-2DC193C1BE05";
shapes = (
{
closed = 1;
nodes = (
(97,0,l),
(165,319,l),
(467,319,l),
(399,0,l),
(476,0,l),
(587,521,l),
(654,521,l),
(667,582,l),
(600,582,l),
(625,700,l),
(548,700,l),
(523,582,l),
(221,582,l),
(246,700,l),
(169,700,l),
(144,582,l),
(77,582,l),
(64,521,l),
(131,521,l),
(20,0,l)
);
},
{
closed = 1;
nodes = (
(208,521,l),
(510,521,l),
(481,386,l),
(179,386,l)
);
}
);
width = 600;
}
);
unicode = 294;
},
{
glyphname = I;
kernLeft = H;
kernRight = H;
lastChange = "2024-10-14 19:30:53 +0000";
layers = (
{
anchors = (
{
name = bottom;
pos = (460,0);
},
{
name = top;
pos = (394,700);
}
);
guides = (
{
pos = (213,18);
userData = {
UFO.identifier = IUDAI6KpPW;
};
},
{
pos = (389,668);
userData = {
UFO.identifier = BMXG0tnWIL;
};
}
);
layerId = m001;
shapes = (
{
closed = 1;
nodes = (
(460,0,l),
(470,47,l),
(284,47,l),
(413,653,l),
(599,653,l),
(609,700,l),
(187,700,l),
(177,653,l),
(362,653,l),
(233,47,l),
(48,47,l),
(38,0,l)
);
}
);
userData = {
com.typemytype.robofont.guideline.showMeasurements.BMXG0tnWIL = 1;
com.typemytype.robofont.guideline.showMeasurements.IUDAI6KpPW = 1;
};
width = 600;
},
{
anchors = (
{
name = bottom;
pos = (500,0);
},
{
name = top;
pos = (392,700);
}
);
layerId = "E1238894-54FF-4BF5-8428-CDF6AE3ED177";
shapes = (
{
closed = 1;
nodes = (
(501,0,l),
(531,142,l),
(361,142,l),
(450,558,l),
(620,558,l),
(650,700,l),
(138,700,l),
(108,558,l),
(278,558,l),
(189,142,l),
(19,142,l),
(-11,0,l)
);
}
);
userData = {
com.typemytype.robofont.guideline.showMeasurements.BMXG0tnWIL = 1;
com.typemytype.robofont.guideline.showMeasurements.IUDAI6KpPW = 1;
};
width = 600;
},
{
anchors = (
{
name = bottom;
pos = (468,0);
},
{
name = top;
pos = (397,700);
}
);
layerId = "73361422-4D71-4ED1-86BB-2DC193C1BE05";
shapes = (
{
closed = 1;
nodes = (
(468,0,l),
(482,68,l),
(301,68,l),
(422,632,l),
(602,632,l),
(617,700,l),
(177,700,l),
(162,632,l),
(345,632,l),
(224,68,l),
(42,68,l),
(28,0,l)
);
}
);
userData = {
com.typemytype.robofont.guideline.showMeasurements.BMXG0tnWIL = 1;
com.typemytype.robofont.guideline.showMeasurements.IUDAI6KpPW = 1;
};
width = 600;
}
);
unicode = 73;
},
{
glyphname = IJ;
kernLeft = H;
kernRight = U;
lastChange = "2024-10-14 19:30:53 +0000";
layers = (
{
layerId = m001;
shapes = (
{
closed = 1;
nodes = (
(442,-11,o),
(496,55,o),
(523,180,cs),
(634,700,l),
(583,700,l),
(473,185,ls),
(450,78,o),
(406,35,o),
(329,35,c),
(282,35,o),
(250,52,o),
(224,76,c),
(187,43,l),
(211,12,o),
(263,-11,o),
(328,-11,c)
);
},
{
closed = 1;
nodes = (
(79,0,l),
(228,700,l),
(177,700,l),
(28,0,l)
);
}
);
width = 600;
},
{
layerId = "E1238894-54FF-4BF5-8428-CDF6AE3ED177";
shapes = (
{
closed = 1;
nodes = (
(436,-10,o),
(509,49,o),
(535,172,cs),
(647,700,l),
(475,700,l),
(368,196,ls),
(360,160,o),
(343,144,o),
(315,144,c),
(295,144,o),
(270,150,o),
(249,161,c),
(218,18,l),
(250,1,o),
(295,-10,o),
(341,-10,c)
);
},
{
closed = 1;
nodes = (
(165,0,l),
(313,700,l),
(141,700,l),
(-7,0,l)
);
}
);
width = 600;
},
{
layerId = "73361422-4D71-4ED1-86BB-2DC193C1BE05";
shapes = (
{
closed = 1;
nodes = (
(438,-11,o),
(503,57,o),
(528,177,cs),
(638,700,l),
(561,700,l),
(453,186,ls),
(434,95,o),
(397,59,o),
(323,59,c),
(287,59,o),
(253,72,o),
(229,93,c),
(187,37,l),
(213,9,o),
(266,-11,o),
(323,-11,c)
);
},
{
closed = 1;
nodes = (
(98,0,l),
(246,700,l),
(169,700,l),
(21,0,l)
);
}
);
width = 600;
}
);
unicode = 306;
},
{
glyphname = Iogonek;
kernLeft = H;
kernRight = H;
lastChange = "2024-10-14 19:30:53 +0000";
layers = (
{
layerId = m001;
shapes = (
{
closed = 1;
nodes = (
(405,0,l),
(312,-55,o),
(283,-107,o),
(283,-154,cs),
(283,-195,o),
(315,-232,o),
(380,-232,cs),
(401,-232,o),
(422,-227,o),
(437,-220,c),
(434,-188,l),
(421,-193,o),
(402,-197,o),
(388,-197,cs),
(350,-197,o),
(323,-176,o),
(323,-146,cs),
(323,-102,o),
(354,-56,o),
(460,0,c),
(470,47,l),
(284,47,l),
(413,653,l),
(599,653,l),
(609,700,l),
(187,700,l),
(177,653,l),
(362,653,l),
(233,47,l),
(48,47,l),
(38,0,l)
);
}
);
width = 600;
},
{
layerId = "E1238894-54FF-4BF5-8428-CDF6AE3ED177";
shapes = (
{
closed = 1;
nodes = (
(420,0,l),
(342,-47,o),
(304,-97,o),
(304,-153,cs),
(304,-201,o),
(338,-231,o),
(392,-231,cs),
(427,-231,o),
(463,-222,o),
(488,-208,c),
(483,-138,l),
(472,-145,o),
(454,-149,o),
(436,-149,cs),
(411,-149,o),
(396,-136,o),
(396,-113,cs),
(396,-76,o),
(431,-38,o),
(501,0,c),
(531,142,l),
(361,142,l),
(450,558,l),
(620,558,l),
(650,700,l),
(138,700,l),
(108,558,l),
(278,558,l),
(189,142,l),
(19,142,l),
(-11,0,l)
);
}
);
width = 600;
},
{
layerId = "73361422-4D71-4ED1-86BB-2DC193C1BE05";
shapes = (
{
closed = 1;
nodes = (
(408,0,l),
(326,-48,o),
(286,-99,o),
(286,-154,cs),
(286,-201,o),
(324,-232,o),
(381,-232,cs),
(405,-232,o),
(429,-227,o),
(447,-218,c),
(443,-178,l),
(430,-183,o),
(411,-187,o),
(397,-187,cs),
(362,-187,o),
(337,-168,o),
(337,-139,cs),
(337,-92,o),
(379,-48,o),
(468,0,c),
(482,68,l),
(301,68,l),
(422,632,l),
(602,632,l),
(617,700,l),
(177,700,l),
(162,632,l),
(345,632,l),
(224,68,l),
(42,68,l),
(28,0,l)
);
}
);
width = 600;
}
);
unicode = 302;
},
{
glyphname = J;
kernLeft = J;
kernRight = U;
lastChange = "2024-10-14 19:30:53 +0000";
layers = (
{
anchors = (
{
name = top;
pos = (577,700);
}
);
guides = (
{
pos = (425,313);
userData = {
UFO.identifier = HZDkHZFTMM;
};
},
{
pos = (577,700);
userData = {
UFO.identifier = tUhUF86p3f;
};
}
);
layerId = m001;
shapes = (
{
closed = 1;
nodes = (
(388,-11,o),
(467,65,o),
(503,232,cs),
(603,700,l),
(552,700,l),
(455,246,ls),
(424,101,o),
(361,37,o),
(251,37,cs),
(165,37,o),
(101,91,o),
(81,182,c),
(39,159,l),
(65,51,o),
(142,-11,o),
(248,-11,cs)
);
}
);
userData = {
com.typemytype.robofont.guideline.showMeasurements.HZDkHZFTMM = 1;
};
width = 600;
},
{
anchors = (
{
name = top;
pos = (565,700);
}
);
layerId = "E1238894-54FF-4BF5-8428-CDF6AE3ED177";
shapes = (
{
closed = 1;
nodes = (
(432,-10,o),
(522,84,o),
(554,235,cs),
(653,700,l),
(481,700,l),
(385,248,ls),
(371,180,o),
(335,144,o),
(281,144,cs),
(222,144,o),
(188,181,o),
(177,267,c),
(11,236,l),
(22,72,o),
(131,-10,o),
(280,-10,cs)
);
}
);
userData = {
com.typemytype.robofont.guideline.showMeasurements.HZDkHZFTMM = 1;
};
width = 600;
},
{
anchors = (
{
name = top;
pos = (575,700);
}
);
layerId = "73361422-4D71-4ED1-86BB-2DC193C1BE05";
shapes = (
{
closed = 1;
nodes = (
(384,-11,o),
(477,65,o),
(513,233,cs),
(613,700,l),
(537,700,l),
(440,248,ls),
(409,105,o),
(345,59,o),
(257,59,cs),
(169,59,o),
(117,118,o),
(101,200,c),
(33,175,l),
(56,56,o),
(137,-11,o),
(253,-11,cs)
);
}
);
userData = {
com.typemytype.robofont.guideline.showMeasurements.HZDkHZFTMM = 1;
};
width = 600;
}
);
unicode = 74;
},
{
glyphname = K;
kernLeft = H;
kernRight = K;
lastChange = "2024-10-14 19:30:53 +0000";
layers = (
{
anchors = (
{
name = bottom;
pos = (272,0);
}
);
guides = (
{
pos = (282,0);
userData = {
UFO.identifier = RGUborwAfv;
};
}
);
layerId = m001;
shapes = (
{
closed = 1;
nodes = (
(115,0,l),
(190,351,l),
(449,0,l),
(518,0,l),
(246,356,l),
(659,700,l),
(584,700,l),
(194,371,l),
(264,700,l),
(213,700,l),
(64,0,l)
);
}
);
width = 600;
},
{
anchors = (
{
name = bottom;
pos = (239,0);
}
);
layerId = "E1238894-54FF-4BF5-8428-CDF6AE3ED177";
shapes = (
{
closed = 1;
nodes = (
(152,0,l),
(218,310,l),
(341,0,l),
(530,0,l),
(367,362,l),
(674,700,l),
(479,700,l),
(241,420,l),
(301,700,l),
(133,700,l),
(-16,0,l)
);
}
);
width = 600;
},
{
anchors = (
{
name = bottom;
pos = (248,0);
}
);
layerId = "73361422-4D71-4ED1-86BB-2DC193C1BE05";
shapes = (
{
closed = 1;
nodes = (
(124,0,l),
(197,341,l),
(424,0,l),
(520,0,l),
(274,357,l),
(662,700,l),
(564,700,l),
(205,379,l),
(273,700,l),
(196,700,l),
(47,0,l)
);
}
);
width = 600;
}
);
unicode = 75;
},
{
glyphname = L;
kernLeft = H;
kernRight = L;
lastChange = "2024-11-07 13:14:54 +0000";
layers = (
{
anchors = (
{
name = bottom;
pos = (274,0);
},
{
name = top;
pos = (236,700);
}
);
guides = (
{
pos = (273,0);
userData = {
UFO.identifier = pApVuatGDi;
};
}
);
layerId = m001;
shapes = (
{
closed = 1;
nodes = (
(485,0,l),
(495,47,l),
(122,47,l),
(261,700,l),
(210,700,l),
(61,0,l)
);
}
);
width = 600;
},
{
anchors = (
{
name = bottom;
pos = (293,0);
},
{
name = top;
pos = (247,700);
}
);
layerId = "E1238894-54FF-4BF5-8428-CDF6AE3ED177";
shapes = (
{
closed = 1;
nodes = (
(506,0,l),
(538,144,l),
(216,144,l),
(334,700,l),
(166,700,l),
(17,0,l)
);
}
);
width = 600;
},
{
anchors = (
{
name = bottom;
pos = (273,0);
},
{
name = top;
pos = (238,700);
}
);
layerId = "73361422-4D71-4ED1-86BB-2DC193C1BE05";
shapes = (
{
closed = 1;
nodes = (
(489,0,l),
(503,68,l),
(143,68,l),
(278,700,l),
(201,700,l),
(52,0,l)
);
}
);
width = 600;
}
);
unicode = 76;
},
{
color = 8;
glyphname = Lcaron;
kernLeft = H;
kernRight = L;
lastChange = "2024-11-06 20:02:29 +0000";
layers = (
{
anchors = (
{
name = bottom;
pos = (274,0);
},
{
name = top;
pos = (236,700);
}
);
layerId = m001;
shapes = (
{
closed = 1;
nodes = (
(485,0,l),
(495,47,l),
(122,47,l),
(261,700,l),
(210,700,l),
(61,0,l)
);
},
{
closed = 1;
nodes = (
(529,538,l),
(588,726,l),
(533,714,l),
(493,538,l)
);
}
);
width = 600;
},
{
anchors = (
{
name = bottom;
pos = (293,0);
},
{
name = top;
pos = (247,700);
}
);
layerId = "E1238894-54FF-4BF5-8428-CDF6AE3ED177";
shapes = (
{
closed = 1;
nodes = (
(506,0,l),
(538,144,l),
(216,144,l),
(334,700,l),
(166,700,l),
(17,0,l)
);
},
{
closed = 1;
nodes = (
(547,498,l),
(647,737,l),
(512,712,l),
(458,498,l)
);
}
);
width = 600;
},
{
anchors = (
{
name = bottom;
pos = (273,0);
},
{
name = top;
pos = (238,700);
}
);
layerId = "73361422-4D71-4ED1-86BB-2DC193C1BE05";
shapes = (
{
closed = 1;
nodes = (
(489,0,l),
(503,68,l),
(143,68,l),
(278,700,l),
(201,700,l),
(52,0,l)
);
},
{
closed = 1;
nodes = (
(526,527,l),
(592,737,l),
(517,722,l),
(468,527,l)
);
}
);
width = 600;
}
);
unicode = 317;
},
{
glyphname = Lslash;
kernRight = L;
lastChange = "2024-10-14 19:30:53 +0000";
layers = (
{
layerId = m001;
shapes = (
{
closed = 1;
nodes = (
(490,0,l),
(500,47,l),
(127,47,l),
(181,301,l),
(379,429,l),
(392,490,l),
(194,362,l),
(266,700,l),
(215,700,l),
(136,330,l),
(14,249,l),
(1,188,l),
(123,269,l),
(66,0,l)
);
}
);
width = 600;
},
{
layerId = "E1238894-54FF-4BF5-8428-CDF6AE3ED177";
shapes = (
{
closed = 1;
nodes = (
(511,0,l),
(543,144,l),
(221,144,l),
(253,295,l),
(452,398,l),
(482,540,l),
(283,437,l),
(339,700,l),
(171,700,l),
(95,341,l),
(8,296,l),
(-22,154,l),
(64,199,l),
(22,0,l)
);
}
);
width = 600;
},
{
layerId = "73361422-4D71-4ED1-86BB-2DC193C1BE05";
shapes = (
{
closed = 1;
nodes = (
(494,0,l),
(508,68,l),
(148,68,l),
(197,297,l),
(406,433,l),
(421,514,l),
(214,379,l),
(283,700,l),
(206,700,l),
(126,324,l),
(8,247,l),
(-8,166,l),
(109,242,l),
(57,0,l)
);
}
);
width = 600;
}
);
unicode = 321;
},
{
glyphname = M;
kernLeft = H;
kernRight = H;
lastChange = "2024-10-14 19:30:53 +0000";
layers = (
{
guides = (
{
pos = (534,613);
userData = {
UFO.identifier = hyldUCzMAp;
};
}
);
layerId = m001;
shapes = (
{
closed = 1;
nodes = (
(62,0,l),
(200,650,l),
(298,221,l),
(573,643,l),
(436,0,l),
(485,0,l),
(634,700,l),
(560,700,l),
(320,338,l),
(232,700,l),
(162,700,l),
(13,0,l)
);
}
);
userData = {
com.typemytype.robofont.guideline.showMeasurements.hyldUCzMAp = 1;
};
width = 600;
},
{
guides = (
{
pos = (356,369);
userData = {
UFO.identifier = hyldUCzMAp;
};
}
);
layerId = "E1238894-54FF-4BF5-8428-CDF6AE3ED177";
shapes = (
{
closed = 1;
nodes = (
(128,0,l),
(226,460,l),
(281,169,l),
(456,453,l),
(360,0,l),
(505,0,l),
(654,700,l),
(471,700,l),
(347,484,l),
(314,700,l),
(134,700,l),
(-15,0,l)
);
}
);
userData = {
com.typemytype.robofont.guideline.showMeasurements.hyldUCzMAp = 1;
};
width = 600;
},
{
layerId = "73361422-4D71-4ED1-86BB-2DC193C1BE05";
shapes = (
{
closed = 1;
nodes = (
(76,0,l),
(205,609,l),
(293,210,l),
(545,601,l),
(418,0,l),
(489,0,l),
(636,700,l),
(540,700,l),
(324,366,l),
(248,700,l),
(156,700,l),
(7,0,l)
);
}
);
userData = {
com.typemytype.robofont.guideline.showMeasurements.hyldUCzMAp = 1;
};
width = 600;
}
);
unicode = 77;
},
{
glyphname = N;
kernLeft = H;
kernRight = H;
lastChange = "2024-10-14 19:30:53 +0000";
layers = (
{
anchors = (
{
name = bottom;
pos = (234,0);
},
{
name = top;
pos = (399,700);
}
);
guides = (
{
pos = (398,700);
userData = {
UFO.identifier = 3xBKJz29bK;
};
}
);
layerId = m001;
shapes = (
{
closed = 1;
nodes = (
(83,0,l),
(220,642,l),
(409,0,l),
(465,0,l),
(614,700,l),
(565,700,l),
(433,82,l),
(251,700,l),
(183,700,l),
(34,0,l)
);
}
);
width = 600;
},
{
anchors = (
{
name = bottom;
pos = (243,0);
},
{
name = top;
pos = (392,700);
}
);
guides = (
{
angle = 90;
pos = (319,350);
userData = {
UFO.identifier = 3xBKJz29bK;
};
}
);
layerId = "E1238894-54FF-4BF5-8428-CDF6AE3ED177";
shapes = (
{
closed = 1;
nodes = (
(137,0,l),
(222,408,l),
(349,0,l),
(498,0,l),
(647,700,l),
(502,700,l),
(421,306,l),
(300,700,l),
(141,700,l),
(-8,0,l)
);
}
);
width = 600;
},
{
anchors = (
{
name = bottom;
pos = (244,0);
},
{
name = top;
pos = (406,700);
}
);
layerId = "73361422-4D71-4ED1-86BB-2DC193C1BE05";
shapes = (
{
closed = 1;
nodes = (
(93,0,l),
(217,599,l),
(397,0,l),
(471,0,l),
(620,700,l),
(552,700,l),
(433,124,l),
(260,700,l),
(174,700,l),
(25,0,l)
);
}
);
width = 600;
}
);
unicode = 78;
},
{
glyphname = Eng;
kernLeft = H;
kernRight = H;
lastChange = "2024-10-14 19:30:53 +0000";
layers = (
{
layerId = m001;
shapes = (
{
closed = 1;
nodes = (
(389,-219,o),
(429,-171,o),
(447,-87,cs),
(614,700,l),
(565,700,l),
(433,82,l),
(251,700,l),
(183,700,l),
(34,0,l),
(83,0,l),
(220,642,l),
(413,-14,l),
(400,-79,ls),
(386,-145,o),
(356,-173,o),
(312,-173,cs),
(288,-173,o),
(264,-167,o),
(235,-155,c),
(226,-201,l),
(256,-215,o),
(289,-219,o),
(315,-219,cs)
);
}
);
width = 600;
},
{
layerId = "E1238894-54FF-4BF5-8428-CDF6AE3ED177";
shapes = (
{
closed = 1;
nodes = (
(398,-219,o),
(467,-153,o),
(493,-25,cs),
(647,700,l),
(502,700,l),
(421,306,l),
(300,700,l),
(141,700,l),
(-8,0,l),
(137,0,l),
(222,408,l),
(347,6,l),
(344,-10,ls),
(333,-66,o),
(310,-85,o),
(260,-85,cs),
(239,-85,o),
(211,-79,o),
(185,-69,c),
(157,-201,l),
(177,-210,o),
(234,-219,o),
(269,-219,cs)
);
}
);
width = 600;
},
{
layerId = "73361422-4D71-4ED1-86BB-2DC193C1BE05";
shapes = (
{
closed = 1;
nodes = (
(392,-219,o),
(435,-168,o),
(455,-73,cs),
(620,700,l),
(550,700,l),
(431,130,l),
(262,700,l),
(174,700,l),
(25,0,l),
(95,0,l),
(218,587,l),
(398,-18,l),
(389,-63,ls),
(376,-128,o),
(346,-154,o),
(299,-154,cs),
(276,-154,o),
(251,-148,o),
(222,-138,c),
(209,-201,l),
(237,-214,o),
(275,-219,o),
(303,-219,cs)
);
}
);
width = 600;
}
);
unicode = 330;
},
{
glyphname = O;
kernLeft = O;
kernRight = O;
lastChange = "2024-10-14 19:30:53 +0000";
layers = (
{
anchors = (
{
name = top;
pos = (382,700);
}
);
layerId = m001;
shapes = (
{
closed = 1;
nodes = (
(440,-11,o),
(588,198,o),
(588,441,cs),
(588,605,o),
(505,711,o),
(377,711,cs),
(206,711,o),
(58,502,o),
(58,259,cs),
(58,95,o),
(141,-11,o),
(269,-11,cs)
);
},
{
closed = 1;
nodes = (
(172,37,o),
(109,124,o),
(109,259,cs),
(109,474,o),
(234,663,o),
(376,663,cs),
(474,663,o),
(537,576,o),
(537,441,cs),
(537,226,o),
(412,37,o),
(270,37,cs)
);
}
);
width = 600;
},
{
anchors = (
{
name = top;
pos = (378,700);
}
);
layerId = "E1238894-54FF-4BF5-8428-CDF6AE3ED177";
shapes = (
{
closed = 1;
nodes = (
(459,-11,o),
(601,182,o),
(601,434,cs),
(601,598,o),
(505,711,o),
(365,711,cs),
(179,711,o),
(37,518,o),
(37,266,cs),
(37,102,o),
(133,-11,o),
(273,-11,cs)
);
},
{
closed = 1;
nodes = (
(237,141,o),
(207,189,o),
(207,271,cs),
(207,433,o),
(270,559,o),
(351,559,cs),
(401,559,o),
(431,511,o),
(431,429,cs),
(431,267,o),
(368,141,o),
(287,141,cs)
);
}
);
width = 600;
},
{
anchors = (
{
name = top;
pos = (381,700);
}
);
layerId = "73361422-4D71-4ED1-86BB-2DC193C1BE05";
shapes = (
{
closed = 1;
nodes = (
(443,-11,o),
(588,180,o),
(588,430,cs),
(588,616,o),
(492,711,o),
(364,711,cs),
(201,711,o),
(56,520,o),
(56,270,cs),
(56,84,o),
(152,-11,o),
(280,-11,cs)
);
},
{
closed = 1;
nodes = (
(192,59,o),
(132,136,o),
(132,274,cs),
(132,478,o),
(239,641,o),
(362,641,cs),
(450,641,o),
(512,564,o),
(512,426,cs),
(512,222,o),
(403,59,o),
(278,59,cs)
);
}
);
width = 600;
}
);
unicode = 79;
},
{
glyphname = Oslash;
kernLeft = O;
kernRight = O;
lastChange = "2024-10-14 19:30:53 +0000";
layers = (
{
layerId = m001;
shapes = (
{
closed = 1;
nodes = (
(53,0,l),
(111,68,l),
(148,18,o),
(203,-11,o),
(269,-11,cs),
(440,-11,o),
(588,198,o),
(588,441,cs),
(588,499,o),
(578,549,o),
(559,590,c),
(653,700,l),
(594,700,l),
(535,631,l),
(498,682,o),
(444,711,o),
(377,711,cs),
(206,711,o),
(58,502,o),
(58,259,cs),
(58,201,o),
(68,150,o),
(87,109,c),
(-6,0,l)
);
},
{
closed = 1;
nodes = (
(109,474,o),
(234,663,o),
(376,663,cs),
(430,663,o),
(473,637,o),
(501,591,c),
(125,153,l),
(115,183,o),
(109,219,o),
(109,259,cs)
);
},
{
closed = 1;
nodes = (
(217,37,o),
(174,63,o),
(146,108,c),
(521,546,l),
(532,516,o),
(537,481,o),
(537,441,cs),
(537,226,o),
(412,37,o),
(270,37,cs)
);
}
);
width = 600;
},
{
layerId = "E1238894-54FF-4BF5-8428-CDF6AE3ED177";
shapes = (
{
closed = 1;
nodes = (
(100,0,l),
(131,38,l),
(169,7,o),
(218,-11,o),
(273,-11,cs),
(459,-11,o),
(601,182,o),
(601,434,cs),
(601,487,o),
(591,535,o),
(572,576,c),
(674,700,l),
(539,700,l),
(507,662,l),
(469,693,o),
(420,711,o),
(365,711,cs),
(179,711,o),
(37,518,o),
(37,266,cs),
(37,212,o),
(47,164,o),
(66,123,c),
(-35,0,l)
);
},
{
closed = 1;
nodes = (
(221,461,o),
(279,559,o),
(351,559,cs),
(372,559,o),
(390,550,o),
(403,534,c),
(207,295,l),
(207,306,o),
(208,316,o),
(209,326,cs)
);
},
{
closed = 1;
nodes = (
(266,141,o),
(249,149,o),
(235,165,c),
(430,403,l),
(429,388,o),
(428,374,o),
(427,361,cs),
(412,233,o),
(357,141,o),
(287,141,cs)
);
}
);
width = 600;
},
{
layerId = "73361422-4D71-4ED1-86BB-2DC193C1BE05";
shapes = (
{
closed = 1;
nodes = (
(56,0,l),
(114,67,l),
(155,15,o),
(213,-11,o),
(280,-11,cs),
(443,-11,o),
(588,180,o),
(588,430,cs),
(588,488,o),
(579,537,o),
(562,578,c),
(669,700,l),
(589,700,l),
(530,633,l),
(490,685,o),
(431,711,o),
(364,711,cs),
(201,711,o),
(56,520,o),
(56,270,cs),
(56,211,o),
(65,162,o),
(83,122,c),
(-24,0,l)
);
},
{
closed = 1;
nodes = (
(132,478,o),
(239,641,o),
(362,641,cs),
(411,641,o),
(451,618,o),
(478,573,c),
(141,189,l),
(135,214,o),
(132,242,o),
(132,274,cs)
);
},
{
closed = 1;
nodes = (
(231,59,o),
(192,82,o),
(166,125,c),
(503,510,l),
(509,485,o),
(512,457,o),
(512,426,cs),
(512,222,o),
(403,59,o),
(278,59,cs)
);
}
);
width = 600;
}
);
unicode = 216;
},
{
glyphname = OE;
kernLeft = O;
kernRight = E;
lastChange = "2024-10-14 19:30:53 +0000";
layers = (
{
layerId = m001;
shapes = (
{
closed = 1;
nodes = (
(529,0,l),
(539,47,l),
(309,47,l),
(370,330,l),
(520,330,l),
(530,377,l),
(380,377,l),
(439,653,l),
(665,653,l),
(675,700,l),
(394,700,l),
(184,700,o),
(43,523,o),
(43,270,cs),
(43,90,o),
(145,0,o),
(305,0,cs)
);
},
{
closed = 1;
nodes = (
(155,63,o),
(94,144,o),
(94,272,cs),
(94,492,o),
(207,648,o),
(388,653,c),
(259,49,l)
);
}
);
width = 600;
},
{
layerId = "E1238894-54FF-4BF5-8428-CDF6AE3ED177";
shapes = (
{
closed = 1;
nodes = (
(537,0,l),
(567,144,l),
(398,144,l),
(428,283,l),
(528,283,l),
(558,423,l),
(458,423,l),
(486,556,l),
(651,556,l),
(681,700,l),
(379,700,l),
(178,700,o),
(27,516,o),
(27,270,cs),
(27,96,o),
(125,0,o),
(275,0,cs)
);
},
{
closed = 1;
nodes = (
(207,170,o),
(186,211,o),
(186,282,cs),
(186,405,o),
(261,543,o),
(332,555,c),
(246,153,l)
);
}
);
width = 600;
},
{
layerId = "73361422-4D71-4ED1-86BB-2DC193C1BE05";
shapes = (
{
closed = 1;
nodes = (
(533,0,l),
(547,67,l),
(331,67,l),
(385,320,l),
(524,320,l),
(538,387,l),
(399,387,l),
(451,633,l),
(664,633,l),
(678,700,l),
(393,700,l),
(184,700,o),
(42,520,o),
(42,270,cs),
(42,91,o),
(143,0,o),
(301,0,cs)
);
},
{
closed = 1;
nodes = (
(168,86,o),
(118,159,o),
(118,274,cs),
(118,473,o),
(220,625,o),
(376,633,c),
(256,70,l)
);
}
);
width = 600;
}
);
unicode = 338;
},
{
glyphname = P;
kernLeft = H;
lastChange = "2024-10-14 19:30:53 +0000";
layers = (
{
layerId = m001;
shapes = (
{
closed = 1;
nodes = (
(105,0,l),
(168,298,l),
(357,298,ls),
(496,298,o),
(596,393,o),
(596,527,cs),
(596,634,o),
(523,700,o),
(406,700,cs),
(203,700,l),
(54,0,l)
);
},
{
closed = 1;
nodes = (
(244,653,l),
(400,653,ls),
(490,653,o),
(545,605,o),
(545,525,cs),
(545,419,o),
(467,345,o),
(357,345,cs),
(178,345,l)
);
}
);
width = 600;
},
{
layerId = "E1238894-54FF-4BF5-8428-CDF6AE3ED177";
shapes = (
{
closed = 1;
nodes = (
(170,0,l),
(222,244,l),
(341,244,ls),
(496,244,o),
(615,350,o),
(615,489,cs),
(615,617,o),
(524,700,o),
(385,700,cs),
(151,700,l),
(2,0,l)
);
},
{
closed = 1;
nodes = (
(289,558,l),
(345,558,ls),
(407,558,o),
(443,528,o),
(443,477,cs),
(443,419,o),
(397,381,o),
(327,381,cs),
(251,381,l)
);
}
);
width = 600;
},
{
layerId = "73361422-4D71-4ED1-86BB-2DC193C1BE05";
shapes = (
{
closed = 1;
nodes = (
(120,0,l),
(181,286,l),
(351,286,ls),
(493,286,o),
(596,384,o),
(596,520,cs),
(596,631,o),
(520,700,o),
(399,700,cs),
(192,700,l),
(43,0,l)
);
},
{
closed = 1;
nodes = (
(255,633,l),
(386,633,ls),
(470,633,o),
(521,589,o),
(521,516,cs),
(521,419,o),
(450,353,o),
(348,353,cs),
(195,353,l)
);
}
);
width = 600;
}
);
unicode = 80;
},
{
glyphname = Thorn;
kernLeft = H;
lastChange = "2024-10-14 19:30:53 +0000";
layers = (
{
layerId = m001;
shapes = (
{
closed = 1;
nodes = (
(105,0,l),
(137,148,l),
(325,148,ls),
(464,148,o),
(564,243,o),
(564,377,cs),
(564,484,o),
(491,550,o),
(374,550,cs),
(222,550,l),
(254,700,l),
(203,700,l),
(54,0,l)
);
},
{
closed = 1;
nodes = (
(212,503,l),
(368,503,ls),
(458,503,o),
(513,455,o),
(513,375,cs),
(513,269,o),
(435,195,o),
(325,195,cs),
(147,195,l)
);
}
);
width = 600;
},
{
layerId = "E1238894-54FF-4BF5-8428-CDF6AE3ED177";
shapes = (
{
closed = 1;
nodes = (
(164,0,l),
(190,122,l),
(309,122,ls),
(464,122,o),
(583,228,o),
(583,367,cs),
(583,495,o),
(492,578,o),
(353,578,cs),
(287,578,l),
(313,700,l),
(141,700,l),
(-8,0,l)
);
},
{
closed = 1;
nodes = (
(257,436,l),
(313,436,ls),
(375,436,o),
(411,406,o),
(411,355,cs),
(411,297,o),
(365,259,o),
(295,259,cs),
(219,259,l)
);
}
);
width = 600;
},
{
layerId = "73361422-4D71-4ED1-86BB-2DC193C1BE05";
shapes = (
{
closed = 1;
nodes = (
(120,0,l),
(150,143,l),
(340,143,ls),
(482,143,o),
(585,241,o),
(585,377,cs),
(585,488,o),
(509,557,o),
(388,557,cs),
(239,557,l),
(269,700,l),
(192,700,l),
(43,0,l)
);
},
{
closed = 1;
nodes = (
(224,490,l),
(375,490,ls),
(459,490,o),
(510,446,o),
(510,373,cs),
(510,276,o),
(439,210,o),
(337,210,cs),
(165,210,l)
);
}
);
width = 600;
}
);
unicode = 222;
},
{
glyphname = Q;
kernLeft = O;
kernRight = O;
lastChange = "2024-10-14 19:30:53 +0000";
layers = (
{
layerId = m001;
shapes = (
{
closed = 1;
nodes = (
(321,-11,o),
(370,8,o),
(414,41,c),
(444,-8,l),
(503,-10,l),
(450,73,l),
(533,156,o),
(588,292,o),
(588,441,cs),
(588,605,o),
(505,711,o),
(377,711,cs),
(206,711,o),
(58,502,o),
(58,259,cs),
(58,95,o),
(141,-11,o),
(269,-11,cs)
);
},
{
closed = 1;
nodes = (
(172,37,o),
(109,124,o),
(109,259,cs),
(109,474,o),
(234,663,o),
(376,663,cs),
(474,663,o),
(537,576,o),
(537,441,cs),
(537,311,o),
(491,190,o),
(424,115,c),
(361,214,l),
(303,216,l),
(388,82,l),
(352,53,o),
(312,37,o),
(270,37,cs)
);
}
);
width = 600;
},
{
layerId = "E1238894-54FF-4BF5-8428-CDF6AE3ED177";
shapes = (
{
closed = 1;
nodes = (
(309,-11,o),
(344,-4,o),
(376,10,c),
(403,-39,l),
(544,-17,l),
(484,89,l),
(556,170,o),
(601,293,o),
(601,434,cs),
(601,598,o),
(505,711,o),
(365,711,cs),
(179,711,o),
(37,518,o),
(37,266,cs),
(37,102,o),
(133,-11,o),
(273,-11,cs)
);
},
{
closed = 1;
nodes = (
(237,141,o),
(207,189,o),
(207,271,cs),
(207,433,o),
(270,559,o),
(351,559,cs),
(401,559,o),
(431,511,o),
(431,429,cs),
(431,357,o),
(419,292,o),
(398,242,c),
(381,272,l),
(241,250,l),
(301,142,l),
(297,141,o),
(292,141,o),
(287,141,cs)
);
}
);
width = 600;
},
{
layerId = "73361422-4D71-4ED1-86BB-2DC193C1BE05";
shapes = (
{
closed = 1;
nodes = (
(326,-11,o),
(370,4,o),
(410,31,c),
(439,-16,l),
(516,-11,l),
(462,76,l),
(537,155,o),
(588,282,o),
(588,430,cs),
(588,616,o),
(492,711,o),
(364,711,cs),
(201,711,o),
(56,520,o),
(56,270,cs),
(56,84,o),
(152,-11,o),
(280,-11,cs)
);
},
{
closed = 1;
nodes = (
(192,59,o),
(132,136,o),
(132,274,cs),
(132,478,o),
(239,641,o),
(362,641,cs),
(450,641,o),
(512,564,o),
(512,426,cs),
(512,310,o),
(477,207,o),
(423,140,c),
(370,226,l),
(294,222,l),
(373,92,l),
(344,71,o),
(312,59,o),
(278,59,cs)
);
}
);
width = 600;
}
);
unicode = 81;
},
{
glyphname = R;
kernLeft = H;
kernRight = R;
lastChange = "2024-10-14 19:30:53 +0000";
layers = (
{
anchors = (
{
name = bottom;
pos = (304,0);
},
{
name = top;
pos = (392,700);
}
);
layerId = m001;
shapes = (
{
closed = 1;
nodes = (
(114,0,l),
(180,308,l),
(341,308,l),
(440,0,l),
(492,0,l),
(392,312,l),
(505,331,o),
(582,415,o),
(582,529,cs),
(582,634,o),
(509,700,o),
(393,700,cs),
(212,700,l),
(63,0,l)
);
},
{
closed = 1;
nodes = (
(253,653,l),
(387,653,ls),
(476,653,o),
(531,605,o),
(531,527,cs),
(531,426,o),
(453,355,o),
(344,355,cs),
(190,355,l)
);
}
);
width = 600;
},
{
anchors = (
{
name = bottom;
pos = (260,0);
},
{
name = top;
pos = (417,700);
}
);
layerId = "E1238894-54FF-4BF5-8428-CDF6AE3ED177";
shapes = (
{
closed = 1;
nodes = (
(170,0,l),
(225,259,l),
(285,259,l),
(370,0,l),
(548,0,l),
(446,275,l),
(545,309,o),
(615,394,o),
(615,497,cs),
(615,617,o),
(525,700,o),
(394,700,cs),
(151,700,l),
(2,0,l)
);
},
{
closed = 1;
nodes = (
(289,558,l),
(364,558,ls),
(412,558,o),
(443,529,o),
(443,482,cs),
(443,431,o),
(402,394,o),
(347,394,cs),
(254,394,l)
);
}
);
width = 600;
},
{
anchors = (
{
name = bottom;
pos = (254,0);
},
{
name = top;
pos = (397,700);
}
);
layerId = "73361422-4D71-4ED1-86BB-2DC193C1BE05";
shapes = (
{
closed = 1;
nodes = (
(127,0,l),
(191,299,l),
(322,299,l),
(419,0,l),
(499,0,l),
(398,305,l),
(507,328,o),
(581,413,o),
(581,523,cs),
(581,631,o),
(506,700,o),
(387,700,cs),
(199,700,l),
(50,0,l)
);
},
{
closed = 1;
nodes = (
(262,632,l),
(376,632,ls),
(456,632,o),
(506,588,o),
(506,518,cs),
(506,427,o),
(436,363,o),
(338,363,cs),
(204,363,l)
);
}
);
width = 600;
}
);
unicode = 82;
},
{
glyphname = S;
kernLeft = S;
kernRight = S;
lastChange = "2024-10-14 19:30:53 +0000";
layers = (
{
anchors = (
{
name = bottom;
pos = (286,0);
},
{
name = top;
pos = (360,700);
}
);
layerId = m001;
shapes = (
{
closed = 1;
nodes = (
(417,-12,o),
(520,66,o),
(520,189,cs),
(520,436,o),
(178,337,o),
(178,533,cs),
(178,605,o),
(239,665,o),
(349,665,cs),
(416,665,o),
(491,634,o),
(558,574,c),
(588,616,l),
(510,684,o),
(429,712,o),
(347,712,cs),
(210,712,o),
(130,633,o),
(130,532,cs),
(130,291,o),
(472,385,o),
(472,189,cs),
(472,100,o),
(394,35,o),
(294,35,cs),
(216,35,o),
(127,76,o),
(76,148,c),
(38,113,l),
(92,33,o),
(191,-12,o),
(290,-12,cs)
);
}
);
width = 600;
},
{
anchors = (
{
name = bottom;
pos = (288,0);
},
{
name = top;
pos = (353,700);
}
);
layerId = "E1238894-54FF-4BF5-8428-CDF6AE3ED177";
shapes = (
{
closed = 1;
nodes = (
(461,-10,o),
(575,86,o),
(575,223,cs),
(575,445,o),
(244,399,o),
(244,504,cs),
(244,545,o),
(281,571,o),
(336,571,cs),
(405,571,o),
(465,542,o),
(523,489,c),
(621,602,l),
(552,671,o),
(451,710,o),
(343,710,cs),
(186,710,o),
(83,616,o),
(83,487,cs),
(83,253,o),
(408,320,o),
(408,202,cs),
(408,158,o),
(367,128,o),
(310,128,cs),
(243,128,o),
(181,159,o),
(98,228,c),
(10,106,l),
(99,25,o),
(204,-10,o),
(307,-10,cs)
);
}
);
width = 600;
},
{
anchors = (
{
name = bottom;
pos = (284,0);
},
{
name = top;
pos = (397,700);
}
);
layerId = "73361422-4D71-4ED1-86BB-2DC193C1BE05";
shapes = (
{
closed = 1;
nodes = (
(426,-11,o),
(531,70,o),
(531,198,cs),
(531,428,o),
(203,353,o),
(203,527,cs),
(203,593,o),
(257,646,o),
(352,646,cs),
(421,646,o),
(495,614,o),
(561,551,c),
(607,607,l),
(531,680,o),
(441,711,o),
(350,711,cs),
(213,711,o),
(129,629,o),
(129,521,cs),
(129,292,o),
(454,368,o),
(454,192,cs),
(454,110,o),
(385,55,o),
(297,55,cs),
(220,55,o),
(135,96,o),
(79,170,c),
(27,121,l),
(88,37,o),
(192,-11,o),
(295,-11,cs)
);
}
);
width = 600;
}
);
unicode = 83;
},
{
glyphname = Scedilla;
kernLeft = S;
kernRight = S;
lastChange = "2024-10-14 19:30:53 +0000";
layers = (
{
layerId = m001;
shapes = (
{
closed = 1;
nodes = (
(306,-235,o),
(354,-195,o),
(354,-138,c),
(354,-99,o),
(326,-72,o),
(273,-68,c),
(298,-12,l),
(421,-9,o),
(520,69,o),
(520,189,cs),
(520,436,o),
(178,337,o),
(178,533,cs),
(178,605,o),
(239,665,o),
(349,665,cs),
(416,665,o),
(491,634,o),
(558,574,c),
(588,616,l),
(510,684,o),
(429,712,o),
(347,712,cs),
(210,712,o),
(130,633,o),
(130,532,cs),
(130,291,o),
(472,385,o),
(472,189,cs),
(472,100,o),
(394,35,o),
(294,35,cs),
(216,35,o),
(127,76,o),
(76,148,c),
(38,113,l),
(87,40,o),
(175,-4,o),
(265,-11,c),
(227,-96,l),
(251,-96,ls),
(292,-96,o),
(319,-113,o),
(319,-144,c),
(319,-178,o),
(292,-204,o),
(242,-204,c),
(213,-204,o),
(190,-194,o),
(169,-171,c),
(145,-195,l),
(163,-217,o),
(198,-235,o),
(244,-235,c)
);
}
);
width = 600;
},
{
layerId = "E1238894-54FF-4BF5-8428-CDF6AE3ED177";
shapes = (
{
closed = 1;
nodes = (
(324,-253,o),
(385,-201,o),
(385,-136,c),
(385,-94,o),
(354,-66,o),
(300,-59,c),
(322,-10,l),
(468,-4,o),
(575,90,o),
(575,223,cs),
(575,445,o),
(244,399,o),
(244,504,cs),
(244,545,o),
(281,571,o),
(336,571,cs),
(405,571,o),
(465,542,o),
(523,489,c),
(621,602,l),
(552,671,o),
(451,710,o),
(343,710,cs),
(186,710,o),
(83,616,o),
(83,487,cs),
(83,253,o),
(408,320,o),
(408,202,cs),
(408,158,o),
(367,128,o),
(310,128,cs),
(243,128,o),
(181,159,o),
(98,228,c),
(10,106,l),
(83,40,o),
(166,4,o),
(250,-6,c),
(206,-109,l),
(247,-109,ls),
(278,-109,o),
(298,-123,o),
(298,-144,c),
(298,-167,o),
(277,-182,o),
(245,-182,c),
(215,-182,o),
(187,-170,o),
(168,-150,c),
(113,-205,l),
(143,-238,o),
(187,-253,o),
(247,-253,c)
);
}
);
width = 600;
},
{
layerId = "73361422-4D71-4ED1-86BB-2DC193C1BE05";
shapes = (
{
closed = 1;
nodes = (
(307,-239,o),
(357,-195,o),
(357,-138,c),
(357,-99,o),
(327,-70,o),
(276,-66,c),
(300,-11,l),
(426,-11,o),
(531,70,o),
(531,198,cs),
(531,428,o),
(203,353,o),
(203,527,cs),
(203,593,o),
(257,646,o),
(352,646,cs),
(421,646,o),
(495,614,o),
(561,551,c),
(607,607,l),
(531,680,o),
(441,711,o),
(350,711,cs),
(213,711,o),
(129,629,o),
(129,521,cs),
(129,292,o),
(454,368,o),
(454,192,cs),
(454,110,o),
(385,55,o),
(297,55,cs),
(220,55,o),
(135,96,o),
(79,170,c),
(27,121,l),
(81,47,o),
(168,1,o),
(259,-9,c),
(219,-99,l),
(247,-99,ls),
(287,-99,o),
(311,-116,o),
(311,-144,c),
(311,-177,o),
(283,-199,o),
(239,-199,c),
(210,-199,o),
(186,-189,o),
(166,-167,c),
(135,-197,l),
(157,-224,o),
(196,-239,o),
(241,-239,c)
);
}
);
width = 600;
}
);
unicode = 350;
},
{
color = 4;
glyphname = Germandbls;
lastChange = "2024-11-06 18:06:16 +0000";
layers = (
{
layerId = m001;
shapes = (
{
closed = 1;
nodes = (
(457,-11,o),
(564,83,o),
(564,193,cs),
(564,248,o),
(536,293,o),
(471,328,cs),
(417,357,o),
(396,374,o),
(396,395,cs),
(396,412,o),
(408,427,o),
(460,478,cs),
(625,641,l),
(638,700,l),
(187,700,l),
(38,0,l),
(90,0,l),
(229,653,l),
(574,653,l),
(409,485,ls),
(359,434,o),
(343,415,o),
(343,384,cs),
(343,351,o),
(369,326,o),
(433,288,cs),
(487,256,o),
(512,227,o),
(512,184,cs),
(512,104,o),
(437,33,o),
(352,33,cs),
(299,33,o),
(248,57,o),
(220,96,c),
(182,53,l),
(220,6,o),
(267,-11,o),
(344,-11,cs)
);
}
);
width = 600;
},
{
layerId = "73361422-4D71-4ED1-86BB-2DC193C1BE05";
shapes = (
{
closed = 1;
nodes = (
(449,-11,o),
(574,70,o),
(574,194,cs),
(574,247,o),
(548,291,o),
(490,323,cs),
(430,356,o),
(414,369,o),
(414,386,cs),
(414,403,o),
(429,425,o),
(463,458,cs),
(619,611,l),
(638,700,l),
(177,700,l),
(28,0,l),
(105,0,l),
(240,636,l),
(553,636,l),
(405,485,ls),
(367,446,o),
(337,415,o),
(337,373,cs),
(337,339,o),
(363,315,o),
(425,278,cs),
(477,247,o),
(496,225,o),
(496,189,cs),
(496,99,o),
(416,55,o),
(357,55,cs),
(308,55,o),
(264,76,o),
(232,110,c),
(180,51,l),
(219,13,o),
(279,-11,o),
(344,-11,cs)
);
}
);
width = 600;
},
{
layerId = "E1238894-54FF-4BF5-8428-CDF6AE3ED177";
shapes = (
{
closed = 1;
nodes = (
(458,-11,o),
(582,75,o),
(582,224,cs),
(582,274,o),
(561,315,o),
(515,337,cs),
(476,356,o),
(458,370,o),
(458,388,cs),
(458,405,o),
(473,428,o),
(492,448,cs),
(638,602,l),
(659,700,l),
(136,700,l),
(-13,0,l),
(155,0,l),
(275,566,l),
(425,566,l),
(344,475,ls),
(311,438,o),
(278,387,o),
(278,341,cs),
(278,302,o),
(300,269,o),
(340,249,cs),
(392,223,o),
(411,209,o),
(411,187,cs),
(411,150,o),
(385,132,o),
(349,132,cs),
(322,132,o),
(306,139,o),
(271,171,c),
(176,42,l),
(220,5,o),
(273,-11,o),
(333,-11,cs)
);
}
);
width = 600;
}
);
unicode = 7838;
},
{
glyphname = T;
kernLeft = T;
kernRight = T;
lastChange = "2024-10-14 19:30:53 +0000";
layers = (
{
anchors = (
{
name = bottom;
pos = (249,0);
},
{
name = top;
pos = (397,700);
}
);
guides = (
{
pos = (399,672);
userData = {
UFO.identifier = CJr8C0xu4G;
};
},
{
angle = 78;
pos = (249,0);
userData = {
UFO.identifier = p0LS3J1KPO;
};
}
);
layerId = m001;
shapes = (
{
closed = 1;
nodes = (
(275,0,l),
(414,653,l),
(654,653,l),
(664,700,l),
(132,700,l),
(122,653,l),
(363,653,l),
(224,0,l)
);
}
);
userData = {
com.typemytype.robofont.guideline.showMeasurements.CJr8C0xu4G = 1;
};
width = 600;
},
{
anchors = (
{
name = bottom;
pos = (244,0);
},
{
name = top;
pos = (392,700);
}
);
layerId = "E1238894-54FF-4BF5-8428-CDF6AE3ED177";
shapes = (
{
closed = 1;
nodes = (
(331,0,l),
(449,553,l),
(649,553,l),
(680,700,l),
(108,700,l),
(77,553,l),
(277,553,l),
(159,0,l)
);
}
);
userData = {
com.typemytype.robofont.guideline.showMeasurements.CJr8C0xu4G = 1;
};
width = 600;
},
{
anchors = (
{
name = bottom;
pos = (248,0);
},
{
name = top;
pos = (397,700);
}
);
layerId = "73361422-4D71-4ED1-86BB-2DC193C1BE05";
shapes = (
{
closed = 1;
nodes = (
(287,0,l),
(422,632,l),
(652,632,l),
(667,700,l),
(127,700,l),
(112,632,l),
(345,632,l),
(210,0,l)
);
}
);
userData = {
com.typemytype.robofont.guideline.showMeasurements.CJr8C0xu4G = 1;
};
width = 600;
}
);
unicode = 84;
},
{
glyphname = Tbar;
kernLeft = T;
kernRight = T;
lastChange = "2024-10-14 19:30:53 +0000";
layers = (
{
layerId = m001;
shapes = (
{
closed = 1;
nodes = (
(275,0,l),
(345,329,l),
(507,329,l),
(516,373,l),
(354,373,l),
(414,653,l),
(654,653,l),
(664,700,l),
(132,700,l),
(122,653,l),
(363,653,l),
(303,373,l),
(141,373,l),
(132,329,l),
(294,329,l),
(224,0,l)
);
}
);
width = 600;
},
{
layerId = "E1238894-54FF-4BF5-8428-CDF6AE3ED177";
shapes = (
{
closed = 1;
nodes = (
(331,0,l),
(389,274,l),
(511,274,l),
(538,399,l),
(416,399,l),
(449,553,l),
(649,553,l),
(680,700,l),
(108,700,l),
(77,553,l),
(277,553,l),
(244,399,l),
(122,399,l),
(95,274,l),
(217,274,l),
(159,0,l)
);
}
);
width = 600;
},
{
layerId = "73361422-4D71-4ED1-86BB-2DC193C1BE05";
shapes = (
{
closed = 1;
nodes = (
(287,0,l),
(354,312,l),
(507,312,l),
(520,373,l),
(367,373,l),
(422,632,l),
(652,632,l),
(667,700,l),
(127,700,l),
(112,632,l),
(345,632,l),
(290,373,l),
(136,373,l),
(123,312,l),
(277,312,l),
(210,0,l)
);
}
);
width = 600;
}
);
unicode = 358;
},
{
glyphname = Tcedilla;
kernLeft = T;
kernRight = T;
lastChange = "2024-10-14 19:30:53 +0000";
layers = (
{
layerId = m001;
shapes = (
{
closed = 1;
nodes = (
(233,0,l),
(190,-96,l),
(214,-96,ls),
(255,-96,o),
(282,-113,o),
(282,-144,c),
(282,-178,o),
(255,-204,o),
(205,-204,c),
(176,-204,o),
(153,-194,o),
(132,-171,c),
(108,-195,l),
(126,-217,o),
(161,-235,o),
(207,-235,c),
(269,-235,o),
(317,-195,o),
(317,-138,c),
(317,-99,o),
(289,-72,o),
(236,-68,c),
(266,0,l),
(275,0,l),
(414,653,l),
(654,653,l),
(664,700,l),
(132,700,l),
(122,653,l),
(363,653,l),
(224,0,l)
);
}
);
width = 600;
},
{
layerId = "E1238894-54FF-4BF5-8428-CDF6AE3ED177";
shapes = (
{
closed = 1;
nodes = (
(209,0,l),
(162,-109,l),
(203,-109,ls),
(234,-109,o),
(254,-123,o),
(254,-144,c),
(254,-167,o),
(233,-182,o),
(201,-182,c),
(171,-182,o),
(143,-170,o),
(124,-150,c),
(69,-205,l),
(99,-238,o),
(143,-253,o),
(203,-253,c),
(280,-253,o),
(341,-201,o),
(341,-136,c),
(341,-94,o),
(310,-66,o),
(256,-59,c),
(282,0,l),
(331,0,l),
(449,553,l),
(649,553,l),
(680,700,l),
(108,700,l),
(77,553,l),
(277,553,l),
(159,0,l)
);
}
);
width = 600;
},
{
layerId = "73361422-4D71-4ED1-86BB-2DC193C1BE05";
shapes = (
{
closed = 1;
nodes = (
(227,0,l),
(183,-99,l),
(211,-99,ls),
(251,-99,o),
(275,-116,o),
(275,-144,c),
(275,-177,o),
(247,-199,o),
(203,-199,c),
(174,-199,o),
(150,-189,o),
(130,-167,c),
(99,-197,l),
(121,-224,o),
(160,-239,o),
(205,-239,c),
(271,-239,o),
(321,-195,o),
(321,-138,c),
(321,-99,o),
(291,-70,o),
(240,-66,c),
(269,0,l),
(287,0,l),
(422,632,l),
(652,632,l),
(667,700,l),
(127,700,l),
(112,632,l),
(345,632,l),
(210,0,l)
);
}
);
width = 600;
}
);
unicode = 354;
},
{
glyphname = U;
kernLeft = U;
kernRight = U;
lastChange = "2024-10-14 19:30:53 +0000";
layers = (
{
anchors = (
{
name = bottom;
pos = (354,0);
},
{
name = top;
pos = (398,700);
}
);
guides = (
{
pos = (398,700);
userData = {
UFO.identifier = k6iFwE9QEI;
};
}
);
layerId = m001;
shapes = (
{
closed = 1;
nodes = (
(424,-11,o),
(503,84,o),
(535,236,cs),
(634,700,l),
(583,700,l),
(486,245,ls),
(457,110,o),
(391,37,o),
(270,37,cs),
(147,37,o),
(90,126,o),
(119,260,cs),
(213,700,l),
(162,700,l),
(71,271,ls),
(32,89,o),
(116,-11,o),
(273,-11,cs)
);
}
);
width = 600;
},
{
anchors = (
{
name = bottom;
pos = (355,0);
},
{
name = top;
pos = (389,700);
}
);
layerId = "E1238894-54FF-4BF5-8428-CDF6AE3ED177";
shapes = (
{
closed = 1;
nodes = (
(421,-10,o),
(520,81,o),
(553,235,cs),
(653,700,l),
(481,700,l),
(384,248,ls),
(371,185,o),
(338,144,o),
(286,144,cs),
(235,144,o),
(198,185,o),
(213,257,cs),
(308,700,l),
(136,700,l),
(43,266,ls),
(6,94,o),
(120,-10,o),
(275,-10,cs)
);
}
);
width = 600;
},
{
anchors = (
{
name = bottom;
pos = (352,0);
},
{
name = top;
pos = (394,700);
}
);
layerId = "73361422-4D71-4ED1-86BB-2DC193C1BE05";
shapes = (
{
closed = 1;
nodes = (
(423,-11,o),
(506,83,o),
(539,236,cs),
(638,700,l),
(561,700,l),
(464,246,ls),
(438,126,o),
(380,59,o),
(273,59,cs),
(165,59,o),
(113,138,o),
(139,259,cs),
(233,700,l),
(156,700,l),
(64,270,ls),
(26,90,o),
(117,-11,o),
(273,-11,cs)
);
}
);
width = 600;
}
);
unicode = 85;
},
{
glyphname = Uogonek;
kernLeft = U;
kernRight = U;
lastChange = "2024-10-14 19:30:53 +0000";
layers = (
{
layerId = m001;
shapes = (
{
closed = 1;
nodes = (
(295,-232,o),
(316,-227,o),
(331,-220,c),
(328,-188,l),
(315,-193,o),
(296,-197,o),
(282,-197,cs),
(244,-197,o),
(217,-176,o),
(217,-146,cs),
(217,-102,o),
(248,-56,o),
(353,-1,c),
(447,26,o),
(507,105,o),
(535,236,cs),
(634,700,l),
(583,700,l),
(486,245,ls),
(457,110,o),
(391,37,o),
(270,37,cs),
(147,37,o),
(90,126,o),
(119,260,cs),
(213,700,l),
(162,700,l),
(71,271,ls),
(31,86,o),
(122,-15,o),
(282,-11,c),
(212,-56,o),
(177,-103,o),
(177,-154,cs),
(177,-195,o),
(209,-232,o),
(274,-232,cs)
);
}
);
width = 600;
},
{
layerId = "E1238894-54FF-4BF5-8428-CDF6AE3ED177";
shapes = (
{
closed = 1;
nodes = (
(281,-231,o),
(317,-222,o),
(342,-208,c),
(337,-138,l),
(326,-145,o),
(308,-149,o),
(290,-149,cs),
(265,-149,o),
(250,-136,o),
(250,-113,cs),
(250,-76,o),
(285,-38,o),
(355,0,c),
(457,28,o),
(526,111,o),
(553,235,cs),
(653,700,l),
(481,700,l),
(384,248,ls),
(371,185,o),
(338,144,o),
(286,144,cs),
(235,144,o),
(198,185,o),
(213,257,cs),
(308,700,l),
(136,700,l),
(43,266,ls),
(6,101,o),
(111,-2,o),
(259,-10,c),
(192,-53,o),
(158,-100,o),
(158,-153,cs),
(158,-201,o),
(192,-231,o),
(246,-231,cs)
);
}
);
width = 600;
},
{
layerId = "73361422-4D71-4ED1-86BB-2DC193C1BE05";
shapes = (
{
closed = 1;
nodes = (
(289,-232,o),
(313,-227,o),
(331,-218,c),
(327,-178,l),
(314,-183,o),
(295,-187,o),
(281,-187,cs),
(246,-187,o),
(221,-168,o),
(221,-139,cs),
(221,-93,o),
(262,-49,o),
(349,-2,c),
(452,25,o),
(512,111,o),
(539,236,cs),
(638,700,l),
(561,700,l),
(464,246,ls),
(438,126,o),
(380,59,o),
(273,59,cs),
(165,59,o),
(113,138,o),
(139,259,cs),
(233,700,l),
(156,700,l),
(64,270,ls),
(26,90,o),
(117,-11,o),
(274,-11,c),
(204,-56,o),
(170,-103,o),
(170,-154,cs),
(170,-201,o),
(208,-232,o),
(265,-232,cs)
);
}
);
width = 600;
}
);
unicode = 370;
},
{
glyphname = V;
lastChange = "2024-10-14 19:30:53 +0000";
layers = (
{
layerId = m001;
shapes = (
{
closed = 1;
nodes = (
(284,0,l),
(677,700,l),
(619,700,l),
(256,47,l),
(170,700,l),
(119,700,l),
(213,0,l)
);
}
);
width = 600;
},
{
layerId = "E1238894-54FF-4BF5-8428-CDF6AE3ED177";
shapes = (
{
closed = 1;
nodes = (
(344,0,l),
(694,700,l),
(528,700,l),
(285,189,l),
(264,700,l),
(94,700,l),
(146,0,l)
);
}
);
width = 600;
},
{
layerId = "73361422-4D71-4ED1-86BB-2DC193C1BE05";
shapes = (
{
closed = 1;
nodes = (
(297,0,l),
(681,700,l),
(599,700,l),
(264,78,l),
(192,700,l),
(113,700,l),
(198,0,l)
);
}
);
width = 600;
}
);
unicode = 86;
},
{
glyphname = W;
kernLeft = W;
kernRight = W;
lastChange = "2024-10-14 19:30:53 +0000";
layers = (
{
anchors = (
{
name = top;
pos = (397,700);
}
);
guides = (
{
pos = (488,133);
userData = {
UFO.identifier = jO1l6uPTYo;
};
},
{
pos = (396,700);
userData = {
UFO.identifier = PtYmK3oGfx;
};
}
);
layerId = m001;
shapes = (
{
closed = 1;
nodes = (
(120,0,l),
(381,616,l),
(381,0,l),
(433,0,l),
(668,700,l),
(618,700,l),
(425,125,l),
(425,700,l),
(368,700,l),
(126,128,l),
(178,700,l),
(128,700,l),
(68,0,l)
);
}
);
width = 600;
},
{
anchors = (
{
name = top;
pos = (393,700);
}
);
layerId = "E1238894-54FF-4BF5-8428-CDF6AE3ED177";
shapes = (
{
closed = 1;
nodes = (
(181,0,l),
(331,397,l),
(312,0,l),
(460,0,l),
(686,700,l),
(545,700,l),
(441,337,l),
(453,700,l),
(338,700,l),
(196,337,l),
(247,700,l),
(102,700,l),
(31,0,l)
);
}
);
width = 600;
},
{
anchors = (
{
name = top;
pos = (399,700);
}
);
layerId = "73361422-4D71-4ED1-86BB-2DC193C1BE05";
shapes = (
{
closed = 1;
nodes = (
(133,0,l),
(371,573,l),
(366,0,l),
(440,0,l),
(672,700,l),
(604,700,l),
(427,155,l),
(432,700,l),
(362,700,l),
(142,173,l),
(195,700,l),
(122,700,l),
(59,0,l)
);
}
);
width = 600;
}
);
unicode = 87;
},
{
glyphname = X;
kernRight = K;
lastChange = "2024-10-14 19:30:53 +0000";
layers = (
{
layerId = m001;
shapes = (
{
closed = 1;
nodes = (
(39,0,l),
(317,322,l),
(456,0,l),
(515,0,l),
(352,361,l),
(648,700,l),
(583,700,l),
(329,404,l),
(203,700,l),
(144,700,l),
(294,366,l),
(-28,0,l)
);
}
);
width = 600;
},
{
layerId = "E1238894-54FF-4BF5-8428-CDF6AE3ED177";
shapes = (
{
closed = 1;
nodes = (
(136,0,l),
(292,212,l),
(367,0,l),
(538,0,l),
(409,348,l),
(682,700,l),
(497,700,l),
(358,511,l),
(292,700,l),
(122,700,l),
(241,375,l),
(-48,0,l)
);
}
);
width = 600;
},
{
layerId = "73361422-4D71-4ED1-86BB-2DC193C1BE05";
shapes = (
{
closed = 1;
nodes = (
(63,0,l),
(315,301,l),
(440,0,l),
(524,0,l),
(369,359,l),
(659,700,l),
(569,700,l),
(339,426,l),
(227,700,l),
(143,700,l),
(286,367,l),
(-28,0,l)
);
}
);
width = 600;
}
);
unicode = 88;
},
{
glyphname = Y;
kernLeft = Y;
kernRight = Y;
lastChange = "2024-10-14 19:30:53 +0000";
layers = (
{
anchors = (
{
name = top;
pos = (394,700);
}
);
guides = (
{
pos = (394,700);
userData = {
UFO.identifier = L9bhuyn8go;
};
}
);
layerId = m001;
shapes = (
{
closed = 1;
nodes = (
(273,0,l),
(333,280,l),
(670,700,l),
(609,700,l),
(317,331,l),
(179,700,l),
(126,700,l),
(283,286,l),
(222,0,l)
);
}
);
width = 600;
},
{
anchors = (
{
name = top;
pos = (394,700);
}
);
layerId = "E1238894-54FF-4BF5-8428-CDF6AE3ED177";
shapes = (
{
closed = 1;
nodes = (
(331,0,l),
(392,287,l),
(700,700,l),
(524,700,l),
(342,448,l),
(268,700,l),
(89,700,l),
(220,287,l),
(159,0,l)
);
}
);
width = 600;
},
{
anchors = (
{
name = top;
pos = (396,700);
}
);
layerId = "73361422-4D71-4ED1-86BB-2DC193C1BE05";
shapes = (
{
closed = 1;
nodes = (
(285,0,l),
(344,279,l),
(676,700,l),
(592,700,l),
(322,354,l),
(198,700,l),
(118,700,l),
(269,287,l),
(208,0,l)
);
}
);
width = 600;
}
);
unicode = 89;
},
{
glyphname = Z;
kernLeft = Z;
kernRight = Z;
lastChange = "2024-10-14 19:30:53 +0000";
layers = (
{
anchors = (
{
name = top;
pos = (398,700);
}
);
guides = (
{
pos = (398,700);
userData = {
UFO.identifier = hb9SQE2nZS;
};
}
);
layerId = m001;
shapes = (
{
closed = 1;
nodes = (
(496,0,l),
(506,47,l),
(80,47,l),
(630,662,l),
(638,700,l),
(158,700,l),
(148,653,l),
(560,653,l),
(10,38,l),
(2,0,l)
);
}
);
width = 600;
},
{
anchors = (
{
name = top;
pos = (389,700);
}
);
layerId = "E1238894-54FF-4BF5-8428-CDF6AE3ED177";
shapes = (
{
closed = 1;
nodes = (
(499,0,l),
(531,144,l),
(249,142,l),
(620,588,l),
(645,700,l),
(142,700,l),
(110,556,l),
(388,559,l),
(16,112,l),
(-9,0,l)
);
}
);
width = 600;
},
{
anchors = (
{
name = top;
pos = (397,700);
}
);
layerId = "73361422-4D71-4ED1-86BB-2DC193C1BE05";
shapes = (
{
closed = 1;
nodes = (
(497,0,l),
(511,67,l),
(113,65,l),
(628,646,l),
(639,700,l),
(154,700,l),
(140,633,l),
(527,635,l),
(11,54,l),
(0,0,l)
);
}
);
width = 600;
}
);
unicode = 90;
},
{
glyphname = a;
kernLeft = a;
kernRight = n;
lastChange = "2024-10-14 19:30:53 +0000";
layers = (
{
anchors = (
{
name = bottom;
pos = (424,0);
},
{
name = top;
pos = (332,481);
}
);
layerId = m001;
shapes = (
{
closed = 1;
nodes = (
(289,-10,o),
(339,10,o),
(387,50,c),
(376,0,l),
(424,0,l),
(493,306,ls),
(518,419,o),
(456,489,o),
(334,489,cs),
(273,489,o),
(218,473,o),
(159,444,c),
(176,402,l),
(236,432,o),
(285,447,o),
(330,447,cs),
(425,447,o),
(465,396,o),
(443,298,cs),
(428,229,l),
(389,265,o),
(325,282,o),
(257,282,cs),
(143,282,o),
(64,218,o),
(64,127,cs),
(64,45,o),
(134,-10,o),
(233,-10,cs)
);
},
{
closed = 1;
nodes = (
(112,194,o),
(173,240,o),
(260,240,cs),
(321,240,o),
(373,227,o),
(419,189,c),
(397,94,l),
(348,51,o),
(298,32,o),
(240,32,cs),
(160,32,o),
(112,70,o),
(112,130,cs)
);
}
);
width = 600;
},
{
anchors = (
{
name = bottom;
pos = (471,0);
},
{
name = top;
pos = (331,516);
}
);
layerId = "E1238894-54FF-4BF5-8428-CDF6AE3ED177";
shapes = (
{
closed = 1;
nodes = (
(238,-4,o),
(274,9,o),
(324,44,c),
(314,0,l),
(471,0,l),
(537,303,ls),
(567,440,o),
(485,523,o),
(321,523,cs),
(260,523,o),
(192,509,o),
(111,480,c),
(147,366,l),
(203,384,o),
(243,392,o),
(278,392,cs),
(359,392,o),
(392,363,o),
(379,302,cs),
(373,273,l),
(333,290,o),
(287,301,o),
(243,301,cs),
(113,301,o),
(34,238,o),
(34,135,cs),
(34,49,o),
(95,-4,o),
(193,-4,cs)
);
},
{
closed = 1;
nodes = (
(179,187,o),
(209,206,o),
(264,206,cs),
(298,206,o),
(330,200,o),
(355,192,c),
(340,122,l),
(314,107,o),
(287,100,o),
(257,100,cs),
(207,100,o),
(179,120,o),
(179,150,cs)
);
}
);
width = 600;
},
{
anchors = (
{
name = bottom;
pos = (434,0);
},
{
name = top;
pos = (332,488);
}
);
layerId = "73361422-4D71-4ED1-86BB-2DC193C1BE05";
shapes = (
{
closed = 1;
nodes = (
(277,-10,o),
(325,6,o),
(372,42,c),
(363,0,l),
(434,0,l),
(502,305,ls),
(527,418,o),
(457,496,o),
(331,496,cs),
(270,496,o),
(212,481,o),
(149,451,c),
(170,395,l),
(229,422,o),
(276,436,o),
(319,436,cs),
(412,436,o),
(450,389,o),
(430,299,cs),
(416,238,l),
(374,269,o),
(315,285,o),
(254,285,cs),
(136,285,o),
(57,221,o),
(57,126,cs),
(57,44,o),
(125,-10,o),
(225,-10,cs)
);
},
{
closed = 1;
nodes = (
(126,191,o),
(181,231,o),
(261,231,cs),
(321,231,o),
(368,218,o),
(405,189,c),
(384,94,l),
(340,60,o),
(295,45,o),
(243,45,cs),
(170,45,o),
(126,78,o),
(126,131,cs)
);
}
);
width = 600;
}
);
unicode = 97;
},
{
glyphname = aogonek;
kernLeft = a;
kernRight = n;
lastChange = "2024-10-14 19:30:53 +0000";
layers = (
{
layerId = m001;
shapes = (
{
closed = 1;
nodes = (
(365,-232,o),
(386,-227,o),
(401,-220,c),
(398,-188,l),
(385,-193,o),
(366,-197,o),
(352,-197,cs),
(314,-197,o),
(287,-176,o),
(287,-146,cs),
(287,-102,o),
(318,-56,o),
(424,0,c),
(493,306,ls),
(518,419,o),
(456,489,o),
(334,489,cs),
(273,489,o),
(218,473,o),
(159,444,c),
(176,402,l),
(236,432,o),
(285,447,o),
(330,447,cs),
(425,447,o),
(465,396,o),
(443,298,cs),
(428,229,l),
(389,265,o),
(325,282,o),
(257,282,cs),
(143,282,o),
(64,218,o),
(64,127,cs),
(64,45,o),
(134,-10,o),
(233,-10,cs),
(289,-10,o),
(339,10,o),
(387,50,c),
(376,0,l),
(377,0,l),
(290,-45,o),
(247,-96,o),
(247,-154,cs),
(247,-195,o),
(279,-232,o),
(344,-232,cs)
);
},
{
closed = 1;
nodes = (
(160,32,o),
(112,70,o),
(112,130,cs),
(112,194,o),
(173,240,o),
(260,240,cs),
(321,240,o),
(373,227,o),
(419,189,c),
(397,94,l),
(348,51,o),
(298,32,o),
(240,32,cs)
);
}
);
width = 600;
},
{
layerId = "E1238894-54FF-4BF5-8428-CDF6AE3ED177";
shapes = (
{
closed = 1;
nodes = (
(397,-231,o),
(433,-222,o),
(458,-208,c),
(453,-138,l),
(442,-145,o),
(424,-149,o),
(406,-149,cs),
(381,-149,o),
(366,-136,o),
(366,-113,cs),
(366,-76,o),
(401,-38,o),
(471,0,c),
(537,303,ls),
(567,440,o),
(485,523,o),
(321,523,cs),
(260,523,o),
(192,509,o),
(111,480,c),
(147,366,l),
(203,384,o),
(243,392,o),
(278,392,cs),
(359,392,o),
(392,363,o),
(379,302,cs),
(373,273,l),
(333,290,o),
(287,301,o),
(243,301,cs),
(113,301,o),
(34,238,o),
(34,135,cs),
(34,49,o),
(95,-4,o),
(193,-4,cs),
(238,-4,o),
(274,9,o),
(324,44,c),
(314,0,l),
(390,0,l),
(312,-47,o),
(274,-97,o),
(274,-153,cs),
(274,-201,o),
(308,-231,o),
(362,-231,cs)
);
},
{
closed = 1;
nodes = (
(207,100,o),
(179,120,o),
(179,150,cs),
(179,187,o),
(209,206,o),
(264,206,cs),
(298,206,o),
(330,200,o),
(355,192,c),
(340,122,l),
(314,107,o),
(287,100,o),
(257,100,cs)
);
}
);
width = 600;
},
{
layerId = "73361422-4D71-4ED1-86BB-2DC193C1BE05";
shapes = (
{
closed = 1;
nodes = (
(371,-232,o),
(395,-227,o),
(413,-218,c),
(409,-178,l),
(396,-183,o),
(377,-187,o),
(363,-187,cs),
(328,-187,o),
(303,-168,o),
(303,-139,cs),
(303,-92,o),
(345,-48,o),
(434,0,c),
(502,305,ls),
(527,418,o),
(457,496,o),
(331,496,cs),
(270,496,o),
(212,481,o),
(149,451,c),
(170,395,l),
(229,422,o),
(276,436,o),
(319,436,cs),
(412,436,o),
(450,389,o),
(430,299,cs),
(416,238,l),
(374,269,o),
(315,285,o),
(254,285,cs),
(136,285,o),
(57,221,o),
(57,126,cs),
(57,44,o),
(125,-10,o),
(225,-10,cs),
(277,-10,o),
(325,6,o),
(372,42,c),
(363,0,l),
(374,0,l),
(292,-48,o),
(252,-99,o),
(252,-154,cs),
(252,-201,o),
(290,-232,o),
(347,-232,cs)
);
},
{
closed = 1;
nodes = (
(170,45,o),
(126,78,o),
(126,131,cs),
(126,191,o),
(181,231,o),
(261,231,cs),
(321,231,o),
(368,218,o),
(405,189,c),
(384,94,l),
(340,60,o),
(295,45,o),
(243,45,cs)
);
}
);
width = 600;
}
);
unicode = 261;
},
{
glyphname = ae;
kernLeft = a;
kernRight = e;
lastChange = "2024-10-14 19:30:53 +0000";
layers = (
{
layerId = m001;
shapes = (
{
closed = 1;
nodes = (
(340,366,o),
(400,443,o),
(461,443,cs),
(520,443,o),
(542,384,o),
(527,272,c),
(312,272,l)
);
},
{
closed = 1;
nodes = (
(88,33,o),
(59,65,o),
(59,123,cs),
(59,183,o),
(99,237,o),
(168,237,cs),
(204,237,o),
(229,227,o),
(253,210,c),
(251,195,o),
(250,180,o),
(250,164,cs),
(250,141,o),
(252,120,o),
(257,102,c),
(221,59,o),
(177,33,o),
(140,33,cs)
);
},
{
closed = 1;
nodes = (
(185,-10,o),
(230,14,o),
(270,65,c),
(292,18,o),
(332,-10,o),
(387,-10,cs),
(432,-10,o),
(481,5,o),
(522,39,c),
(496,75,l),
(468,51,o),
(424,36,o),
(392,36,cs),
(327,36,o),
(296,84,o),
(296,164,cs),
(296,186,o),
(298,209,o),
(302,231,c),
(566,231,l),
(574,263,o),
(579,298,o),
(579,329,cs),
(579,428,o),
(543,489,o),
(464,489,cs),
(414,489,o),
(365,457,o),
(327,406,c),
(318,459,o),
(272,489,o),
(214,489,cs),
(166,489,o),
(116,469,o),
(71,433,c),
(98,399,l),
(140,430,o),
(179,446,o),
(213,446,cs),
(263,446,o),
(288,411,o),
(274,344,cs),
(255,254,l),
(229,269,o),
(202,279,o),
(169,279,cs),
(72,279,o),
(10,204,o),
(10,115,cs),
(10,43,o),
(62,-10,o),
(134,-10,cs)
);
}
);
width = 600;
},
{
layerId = "E1238894-54FF-4BF5-8428-CDF6AE3ED177";
shapes = (
{
closed = 1;
nodes = (
(371,359,o),
(393,401,o),
(427,401,cs),
(456,401,o),
(472,367,o),
(464,306,c),
(358,306,l)
);
},
{
closed = 1;
nodes = (
(147,96,o),
(127,113,o),
(127,142,cs),
(127,178,o),
(150,203,o),
(184,203,cs),
(195,203,o),
(203,202,o),
(210,199,c),
(210,196,o),
(210,194,o),
(210,191,cs),
(211,167,o),
(215,142,o),
(221,120,c),
(205,104,o),
(189,96,o),
(171,96,cs)
);
},
{
closed = 1;
nodes = (
(171,-8,o),
(220,13,o),
(259,49,c),
(291,12,o),
(337,-9,o),
(393,-9,cs),
(449,-9,o),
(503,12,o),
(549,49,c),
(482,147,l),
(457,128,o),
(433,116,o),
(409,116,cs),
(371,116,o),
(345,144,o),
(345,196,cs),
(345,203,o),
(345,210,o),
(345,217,c),
(577,217,l),
(589,279,o),
(592,305,o),
(592,329,cs),
(592,447,o),
(530,523,o),
(437,523,cs),
(392,523,o),
(354,507,o),
(323,481,c),
(296,508,o),
(255,522,o),
(204,522,cs),
(149,522,o),
(96,503,o),
(51,475,c),
(97,367,l),
(127,383,o),
(151,393,o),
(177,393,cs),
(215,393,o),
(237,368,o),
(226,317,cs),
(218,281,l),
(197,288,o),
(173,293,o),
(149,293,cs),
(52,293,o),
(-14,225,o),
(-14,133,cs),
(-14,46,o),
(43,-8,o),
(121,-8,cs)
);
}
);
width = 600;
},
{
layerId = "73361422-4D71-4ED1-86BB-2DC193C1BE05";
shapes = (
{
closed = 1;
nodes = (
(342,377,o),
(401,434,o),
(448,434,cs),
(502,434,o),
(527,373,o),
(514,280,c),
(318,280,l)
);
},
{
closed = 1;
nodes = (
(98,46,o),
(73,78,o),
(73,127,cs),
(73,184,o),
(111,232,o),
(171,232,cs),
(200,232,o),
(221,224,o),
(240,212,c),
(239,202,o),
(239,193,o),
(239,184,cs),
(239,155,o),
(243,129,o),
(250,106,c),
(220,70,o),
(182,46,o),
(146,46,cs)
);
},
{
closed = 1;
nodes = (
(184,-10,o),
(230,16,o),
(269,63,c),
(298,17,o),
(345,-10,o),
(404,-10,cs),
(445,-10,o),
(486,1,o),
(528,26,c),
(500,83,l),
(470,63,o),
(435,54,o),
(405,54,cs),
(346,54,o),
(307,107,o),
(307,188,cs),
(307,202,o),
(308,215,o),
(309,228,c),
(567,228,l),
(576,277,o),
(580,307,o),
(580,330,cs),
(580,429,o),
(536,496,o),
(456,496,cs),
(410,496,o),
(364,471,o),
(326,427,c),
(307,471,o),
(261,496,o),
(205,496,cs),
(161,496,o),
(112,479,o),
(67,443,c),
(98,392,l),
(135,419,o),
(171,435,o),
(205,435,cs),
(253,435,o),
(278,402,o),
(264,338,cs),
(248,261,l),
(223,275,o),
(196,283,o),
(165,283,cs),
(68,283,o),
(5,209,o),
(5,119,cs),
(5,36,o),
(65,-10,o),
(131,-10,cs)
);
}
);
width = 600;
}
);
unicode = 230;
},
{
glyphname = b;
kernLeft = b;
kernRight = o;
lastChange = "2024-10-14 19:30:53 +0000";
layers = (
{
layerId = m001;
shapes = (
{
closed = 1;
nodes = (
(422,-8,o),
(536,115,o),
(536,266,cs),
(536,394,o),
(453,487,o),
(333,487,cs),
(279,487,o),
(234,470,o),
(194,430,c),
(257,737,l),
(206,725,l),
(54,0,l),
(102,0,l),
(118,74,l),
(160,21,o),
(214,-8,o),
(283,-8,cs)
);
},
{
closed = 1;
nodes = (
(184,386,l),
(222,423,o),
(265,441,o),
(317,441,cs),
(419,441,o),
(487,369,o),
(487,261,cs),
(487,137,o),
(396,38,o),
(280,38,cs),
(218,38,o),
(158,73,o),
(130,122,c)
);
}
);
width = 600;
},
{
layerId = "E1238894-54FF-4BF5-8428-CDF6AE3ED177";
shapes = (
{
closed = 1;
nodes = (
(455,-3,o),
(568,132,o),
(568,290,cs),
(568,417,o),
(487,519,o),
(384,519,cs),
(340,519,o),
(300,506,o),
(262,469,c),
(319,737,l),
(156,712,l),
(4,0,l),
(161,0,l),
(176,64,l),
(204,22,o),
(257,-3,o),
(314,-3,cs)
);
},
{
closed = 1;
nodes = (
(239,358,l),
(262,380,o),
(291,392,o),
(320,392,cs),
(380,392,o),
(413,343,o),
(413,280,cs),
(413,194,o),
(358,127,o),
(284,127,cs),
(250,127,o),
(220,141,o),
(198,166,c)
);
}
);
width = 600;
},
{
layerId = "73361422-4D71-4ED1-86BB-2DC193C1BE05";
shapes = (
{
closed = 1;
nodes = (
(425,-8,o),
(539,118,o),
(539,271,cs),
(539,398,o),
(456,492,o),
(344,492,cs),
(288,492,o),
(240,471,o),
(201,431,c),
(265,737,l),
(191,722,l),
(38,0,l),
(109,0,l),
(126,80,l),
(160,24,o),
(216,-8,o),
(286,-8,cs)
);
},
{
closed = 1;
nodes = (
(189,374,l),
(224,410,o),
(270,430,o),
(318,430,cs),
(407,430,o),
(468,363,o),
(468,265,cs),
(468,148,o),
(384,56,o),
(277,56,cs),
(218,56,o),
(163,89,o),
(139,139,c)
);
}
);
width = 600;
}
);
unicode = 98;
},
{
glyphname = c;
kernLeft = o;
kernRight = c;
lastChange = "2024-10-14 19:30:53 +0000";
layers = (
{
anchors = (
{
name = bottom;
pos = (280,0);
},
{
name = top;
pos = (328,481);
}
);
layerId = m001;
shapes = (
{
closed = 1;
nodes = (
(353,-10,o),
(427,23,o),
(475,80,c),
(441,110,l),
(400,63,o),
(341,36,o),
(279,36,cs),
(189,36,o),
(121,106,o),
(121,205,cs),
(121,337,o),
(217,443,o),
(331,443,cs),
(401,443,o),
(454,407,o),
(476,345,c),
(520,361,l),
(490,441,o),
(420,489,o),
(334,489,cs),
(190,489,o),
(72,364,o),
(72,206,cs),
(72,79,o),
(158,-10,o),
(278,-10,cs)
);
}
);
userData = {
com.typemytype.robofont.guideline.magnetic.CnWov4v5gS = 5;
com.typemytype.robofont.guideline.magnetic.WieLPXUqwW = 5;
com.typemytype.robofont.guideline.magnetic.zfFd93a0gG = 5;
};
width = 600;
},
{
anchors = (
{
name = bottom;
pos = (286,0);
},
{
name = top;
pos = (344,516);
}
);
layerId = "E1238894-54FF-4BF5-8428-CDF6AE3ED177";
shapes = (
{
closed = 1;
nodes = (
(392,-11,o),
(476,30,o),
(534,106,c),
(437,192,l),
(403,152,o),
(363,127,o),
(313,127,cs),
(246,127,o),
(197,172,o),
(197,243,cs),
(197,322,o),
(250,385,o),
(330,385,cs),
(387,385,o),
(429,349,o),
(451,307,c),
(577,391,l),
(537,468,o),
(450,524,o),
(335,524,cs),
(170,524,o),
(39,392,o),
(39,225,cs),
(39,89,o),
(145,-11,o),
(291,-11,cs)
);
}
);
userData = {
com.typemytype.robofont.guideline.magnetic.CnWov4v5gS = 5;
com.typemytype.robofont.guideline.magnetic.WieLPXUqwW = 5;
com.typemytype.robofont.guideline.magnetic.zfFd93a0gG = 5;
};
width = 600;
},
{
anchors = (
{
name = bottom;
pos = (281,0);
},
{
name = top;
pos = (339,488);
}
);
layerId = "73361422-4D71-4ED1-86BB-2DC193C1BE05";
shapes = (
{
closed = 1;
nodes = (
(362,-10,o),
(438,25,o),
(488,87,c),
(439,126,l),
(401,82,o),
(347,53,o),
(287,53,cs),
(200,53,o),
(136,121,o),
(136,215,cs),
(136,334,o),
(223,432,o),
(330,432,cs),
(399,432,o),
(445,397,o),
(470,337,c),
(533,368,l),
(504,445,o),
(426,496,o),
(335,496,cs),
(187,496,o),
(66,370,o),
(66,212,cs),
(66,82,o),
(155,-10,o),
(280,-10,cs)
);
}
);
userData = {
com.typemytype.robofont.guideline.magnetic.CnWov4v5gS = 5;
com.typemytype.robofont.guideline.magnetic.WieLPXUqwW = 5;
com.typemytype.robofont.guideline.magnetic.zfFd93a0gG = 5;
};
width = 600;
}
);
unicode = 99;
},
{
glyphname = ccedilla;
kernLeft = o;
kernRight = c;
lastChange = "2024-10-14 19:30:53 +0000";
layers = (
{
layerId = m001;
shapes = (
{
closed = 1;
nodes = (
(300,-235,o),
(348,-195,o),
(348,-138,c),
(348,-99,o),
(320,-72,o),
(267,-68,c),
(293,-10,l),
(363,-6,o),
(430,27,o),
(475,80,c),
(441,110,l),
(400,63,o),
(341,36,o),
(279,36,cs),
(189,36,o),
(121,106,o),
(121,205,cs),
(121,337,o),
(217,443,o),
(331,443,cs),
(401,443,o),
(454,407,o),
(476,345,c),
(520,361,l),
(490,441,o),
(420,489,o),
(334,489,cs),
(190,489,o),
(72,364,o),
(72,206,cs),
(72,86,o),
(149,-1,o),
(260,-9,c),
(221,-96,l),
(245,-96,ls),
(286,-96,o),
(313,-113,o),
(313,-144,c),
(313,-178,o),
(286,-204,o),
(236,-204,c),
(207,-204,o),
(184,-194,o),
(163,-171,c),
(139,-195,l),
(157,-217,o),
(192,-235,o),
(238,-235,c)
);
}
);
width = 600;
},
{
layerId = "E1238894-54FF-4BF5-8428-CDF6AE3ED177";
shapes = (
{
closed = 1;
nodes = (
(322,-253,o),
(383,-201,o),
(383,-136,c),
(383,-94,o),
(352,-66,o),
(298,-59,c),
(320,-10,l),
(408,-3,o),
(482,37,o),
(534,106,c),
(437,192,l),
(400,148,o),
(359,127,o),
(313,127,cs),
(244,127,o),
(197,174,o),
(197,243,cs),
(197,325,o),
(253,385,o),
(330,385,cs),
(380,385,o),
(425,356,o),
(451,307,c),
(577,391,l),
(534,474,o),
(443,524,o),
(335,524,cs),
(170,524,o),
(39,392,o),
(39,225,cs),
(39,104,o),
(123,10,o),
(248,-8,c),
(204,-109,l),
(245,-109,ls),
(276,-109,o),
(296,-123,o),
(296,-144,c),
(296,-167,o),
(275,-182,o),
(243,-182,c),
(213,-182,o),
(185,-170,o),
(166,-150,c),
(111,-205,l),
(140,-237,o),
(184,-253,o),
(245,-253,c)
);
}
);
width = 600;
},
{
layerId = "73361422-4D71-4ED1-86BB-2DC193C1BE05";
shapes = (
{
closed = 1;
nodes = (
(304,-239,o),
(354,-195,o),
(354,-138,c),
(354,-99,o),
(324,-70,o),
(273,-66,c),
(298,-9,l),
(373,-5,o),
(442,30,o),
(488,87,c),
(439,126,l),
(401,82,o),
(347,53,o),
(287,53,cs),
(200,53,o),
(136,121,o),
(136,215,cs),
(136,334,o),
(223,432,o),
(330,432,cs),
(399,432,o),
(445,397,o),
(470,337,c),
(533,368,l),
(504,445,o),
(426,496,o),
(335,496,cs),
(187,496,o),
(66,370,o),
(66,212,cs),
(66,90,o),
(144,2,o),
(256,-9,c),
(216,-99,l),
(244,-99,ls),
(284,-99,o),
(308,-116,o),
(308,-144,c),
(308,-177,o),
(280,-199,o),
(236,-199,c),
(207,-199,o),
(183,-189,o),
(163,-167,c),
(132,-197,l),
(154,-224,o),
(193,-239,o),
(238,-239,c)
);
}
);
width = 600;
}
);
unicode = 231;
},
{
glyphname = d;
kernLeft = o;
kernRight = d;
lastChange = "2024-10-14 19:30:53 +0000";
layers = (
{
layerId = m001;
shapes = (
{
closed = 1;
nodes = (
(322,-8,o),
(368,11,o),
(409,51,c),
(398,0,l),
(447,0,l),
(601,737,l),
(550,725,l),
(483,403,l),
(441,457,o),
(386,487,o),
(317,487,cs),
(178,487,o),
(64,364,o),
(64,213,cs),
(64,85,o),
(147,-8,o),
(266,-8,c)
);
},
{
closed = 1;
nodes = (
(113,342,o),
(204,441,o),
(320,441,cs),
(384,441,o),
(445,404,o),
(472,353,c),
(419,96,l),
(381,57,o),
(336,38,o),
(282,38,c),
(181,38,o),
(113,110,o),
(113,218,cs)
);
}
);
width = 600;
},
{
layerId = "E1238894-54FF-4BF5-8428-CDF6AE3ED177";
shapes = (
{
closed = 1;
nodes = (
(257,-3,o),
(301,12,o),
(342,59,c),
(329,0,l),
(486,0,l),
(642,737,l),
(479,712,l),
(425,458,l),
(396,496,o),
(345,519,o),
(291,519,cs),
(150,519,o),
(31,384,o),
(31,226,cs),
(31,99,o),
(106,-3,o),
(209,-3,c)
);
},
{
closed = 1;
nodes = (
(186,322,o),
(241,389,o),
(315,389,cs),
(350,389,o),
(380,375,o),
(402,349,c),
(362,159,l),
(338,137,o),
(308,124,o),
(279,124,c),
(219,124,o),
(186,173,o),
(186,236,cs)
);
}
);
width = 600;
},
{
layerId = "73361422-4D71-4ED1-86BB-2DC193C1BE05";
shapes = (
{
closed = 1;
nodes = (
(311,-7,o),
(359,14,o),
(398,52,c),
(387,0,l),
(458,0,l),
(613,737,l),
(539,722,l),
(473,407,l),
(439,463,o),
(383,494,o),
(314,494,cs),
(175,494,o),
(61,368,o),
(61,215,cs),
(61,87,o),
(144,-7,o),
(256,-7,c)
);
},
{
closed = 1;
nodes = (
(132,338,o),
(216,430,o),
(323,430,cs),
(382,430,o),
(436,397,o),
(460,348,c),
(410,110,l),
(374,75,o),
(330,55,o),
(282,55,c),
(193,55,o),
(132,122,o),
(132,221,cs)
);
}
);
width = 600;
}
);
unicode = 100;
},
{
glyphname = dcaron;
kernLeft = o;
kernRight = d;
lastChange = "2024-10-14 19:30:53 +0000";
layers = (
{
layerId = m001;
shapes = (
{
closed = 1;
nodes = (
(276,-8,o),
(319,8,o),
(358,43,c),
(349,0,l),
(398,0,l),
(549,727,l),
(498,715,l),
(435,413,l),
(395,461,o),
(346,487,o),
(283,487,cs),
(147,487,o),
(36,364,o),
(36,213,cs),
(36,85,o),
(115,-8,o),
(224,-8,cs)
);
},
{
closed = 1;
nodes = (
(149,38,o),
(85,110,o),
(85,218,cs),
(85,342,o),
(174,441,o),
(286,441,cs),
(342,441,o),
(396,411,o),
(426,368,c),
(367,83,l),
(331,52,o),
(291,38,o),
(240,38,cs)
);
},
{
closed = 1;
nodes = (
(649,549,l),
(708,737,l),
(653,725,l),
(613,549,l)
);
}
);
width = 600;
},
{
layerId = "E1238894-54FF-4BF5-8428-CDF6AE3ED177";
shapes = (
{
closed = 1;
nodes = (
(207,-3,o),
(245,14,o),
(281,50,c),
(270,0,l),
(417,0,l),
(573,737,l),
(420,712,l),
(370,478,l),
(341,504,o),
(301,519,o),
(253,519,cs),
(129,519,o),
(20,382,o),
(20,210,cs),
(20,76,o),
(91,-3,o),
(167,-3,cs)
);
},
{
closed = 1;
nodes = (
(194,126,o),
(165,156,o),
(165,220,cs),
(165,318,o),
(218,391,o),
(280,391,cs),
(304,391,o),
(327,382,o),
(346,366,c),
(300,146,l),
(279,133,o),
(257,126,o),
(235,126,cs)
);
},
{
closed = 1;
nodes = (
(655,498,l),
(745,737,l),
(620,712,l),
(566,498,l)
);
}
);
width = 600;
},
{
layerId = "73361422-4D71-4ED1-86BB-2DC193C1BE05";
shapes = (
{
closed = 1;
nodes = (
(256,-7,o),
(301,11,o),
(338,43,c),
(329,0,l),
(400,0,l),
(556,737,l),
(482,722,l),
(417,416,l),
(384,465,o),
(335,494,o),
(273,494,cs),
(140,494,o),
(31,366,o),
(31,209,cs),
(31,85,o),
(106,-7,o),
(206,-7,cs)
);
},
{
closed = 1;
nodes = (
(155,55,o),
(102,120,o),
(102,215,cs),
(102,336,o),
(179,430,o),
(277,430,cs),
(331,430,o),
(379,402,o),
(405,359,c),
(350,101,l),
(316,71,o),
(275,55,o),
(232,55,cs)
);
},
{
closed = 1;
nodes = (
(654,527,l),
(720,737,l),
(645,722,l),
(596,527,l)
);
}
);
width = 600;
}
);
unicode = 271;
},
{
glyphname = dcroat;
kernLeft = o;
kernRight = d;
lastChange = "2024-10-14 19:30:53 +0000";
layers = (
{
layerId = m001;
shapes = (
{
closed = 1;
nodes = (
(322,-8,o),
(368,11,o),
(409,51,c),
(398,0,l),
(447,0,l),
(567,576,l),
(648,576,l),
(656,616,l),
(576,616,l),
(601,737,l),
(550,725,l),
(527,616,l),
(370,616,l),
(362,576,l),
(519,576,l),
(483,403,l),
(441,457,o),
(386,487,o),
(317,487,cs),
(178,487,o),
(64,364,o),
(64,213,cs),
(64,85,o),
(147,-8,o),
(266,-8,c)
);
},
{
closed = 1;
nodes = (
(181,38,o),
(113,110,o),
(113,218,cs),
(113,342,o),
(204,441,o),
(320,441,cs),
(384,441,o),
(445,404,o),
(472,353,c),
(419,96,l),
(381,57,o),
(336,38,o),
(282,38,c)
);
}
);
width = 600;
},
{
layerId = "E1238894-54FF-4BF5-8428-CDF6AE3ED177";
shapes = (
{
closed = 1;
nodes = (
(257,-3,o),
(301,12,o),
(342,59,c),
(329,0,l),
(486,0,l),
(605,560,l),
(663,560,l),
(682,648,l),
(623,648,l),
(642,737,l),
(479,712,l),
(465,648,l),
(338,648,l),
(319,560,l),
(447,560,l),
(425,458,l),
(396,496,o),
(345,519,o),
(291,519,cs),
(150,519,o),
(31,384,o),
(31,226,cs),
(31,99,o),
(106,-3,o),
(209,-3,c)
);
},
{
closed = 1;
nodes = (
(219,124,o),
(186,173,o),
(186,236,cs),
(186,322,o),
(241,389,o),
(315,389,cs),
(350,389,o),
(380,375,o),
(402,349,c),
(362,159,l),
(338,137,o),
(308,124,o),
(279,124,c)
);
}
);
width = 600;
},
{
layerId = "73361422-4D71-4ED1-86BB-2DC193C1BE05";
shapes = (
{
closed = 1;
nodes = (
(311,-7,o),
(359,14,o),
(398,52,c),
(387,0,l),
(458,0,l),
(579,573,l),
(652,573,l),
(664,627,l),
(590,627,l),
(613,737,l),
(539,722,l),
(519,627,l),
(374,627,l),
(362,573,l),
(508,573,l),
(473,407,l),
(439,463,o),
(383,494,o),
(314,494,cs),
(175,494,o),
(61,368,o),
(61,215,cs),
(61,87,o),
(144,-7,o),
(256,-7,c)
);
},
{
closed = 1;
nodes = (
(193,55,o),
(132,122,o),
(132,221,cs),
(132,338,o),
(216,430,o),
(323,430,cs),
(382,430,o),
(436,397,o),
(460,348,c),
(410,110,l),
(374,75,o),
(330,55,o),
(282,55,c)
);
}
);
width = 600;
}
);
unicode = 273;
},
{
glyphname = eth;
kernLeft = o;
lastChange = "2024-10-14 19:30:53 +0000";
layers = (
{
layerId = m001;
shapes = (
{
closed = 1;
nodes = (
(433,-10,o),
(548,153,o),
(548,389,cs),
(548,485,o),
(526,566,o),
(482,629,c),
(587,680,l),
(575,717,l),
(457,660,l),
(428,692,o),
(391,718,o),
(347,737,c),
(324,700,l),
(360,685,o),
(391,665,o),
(416,639,c),
(314,590,l),
(328,553,l),
(442,609,l),
(493,541,o),
(514,446,o),
(504,332,c),
(486,419,o),
(411,480,o),
(313,480,cs),
(176,480,o),
(66,359,o),
(66,205,cs),
(66,79,o),
(150,-10,o),
(268,-10,cs)
);
},
{
closed = 1;
nodes = (
(180,35,o),
(115,106,o),
(115,209,cs),
(115,333,o),
(207,438,o),
(317,438,cs),
(410,438,o),
(478,365,o),
(478,263,cs),
(478,143,o),
(383,35,o),
(272,35,cs)
);
}
);
width = 600;
},
{
layerId = "E1238894-54FF-4BF5-8428-CDF6AE3ED177";
shapes = (
{
closed = 1;
nodes = (
(435,-9,o),
(560,151,o),
(560,366,cs),
(560,463,o),
(539,550,o),
(497,624,c),
(576,665,l),
(541,747,l),
(445,697,l),
(420,726,o),
(391,753,o),
(357,777,c),
(256,680,l),
(279,665,o),
(300,649,o),
(318,630,c),
(251,595,l),
(284,514,l),
(374,560,l),
(402,514,o),
(420,459,o),
(426,396,c),
(403,437,o),
(344,466,o),
(275,466,cs),
(140,466,o),
(38,359,o),
(38,217,cs),
(38,83,o),
(131,-9,o),
(267,-9,cs)
);
},
{
closed = 1;
nodes = (
(220,128,o),
(180,170,o),
(180,226,cs),
(180,290,o),
(233,345,o),
(295,345,cs),
(345,345,o),
(384,303,o),
(384,248,cs),
(384,184,o),
(332,128,o),
(272,128,cs)
);
}
);
width = 600;
},
{
layerId = "73361422-4D71-4ED1-86BB-2DC193C1BE05";
shapes = (
{
closed = 1;
nodes = (
(435,-10,o),
(552,152,o),
(552,384,cs),
(552,475,o),
(531,553,o),
(491,616,c),
(592,666,l),
(575,711,l),
(461,655,l),
(431,688,o),
(395,716,o),
(351,737,c),
(312,687,l),
(346,672,o),
(376,652,o),
(400,626,c),
(308,581,l),
(326,535,l),
(432,587,l),
(474,525,o),
(494,443,o),
(489,348,c),
(468,424,o),
(398,476,o),
(307,476,cs),
(170,476,o),
(62,358,o),
(62,207,cs),
(62,80,o),
(148,-10,o),
(270,-10,cs)
);
},
{
closed = 1;
nodes = (
(190,54,o),
(130,119,o),
(130,212,cs),
(130,322,o),
(214,417,o),
(314,417,cs),
(398,417,o),
(460,350,o),
(460,260,cs),
(460,151,o),
(374,54,o),
(274,54,cs)
);
}
);
width = 600;
}
);
unicode = 240;
},
{
glyphname = e;
kernLeft = o;
kernRight = e;
lastChange = "2024-10-14 19:30:53 +0000";
layers = (
{
anchors = (
{
name = bottom;
pos = (364,0);
},
{
name = top;
pos = (325,481);
}
);
layerId = m001;
shapes = (
{
closed = 1;
nodes = (
(359,-10,o),
(424,14,o),
(473,55,c),
(446,94,l),
(391,53,o),
(346,36,o),
(293,36,cs),
(192,36,o),
(114,128,o),
(125,231,c),
(523,231,l),
(525,249,o),
(525,263,o),
(525,278,cs),
(525,400,o),
(440,489,o),
(323,489,cs),
(187,489,o),
(75,365,o),
(75,215,cs),
(75,82,o),
(169,-10,o),
(295,-10,cs)
);
},
{
closed = 1;
nodes = (
(152,370,o),
(228,443,o),
(320,443,cs),
(411,443,o),
(481,368,o),
(473,272,c),
(130,272,l)
);
}
);
width = 600;
},
{
anchors = (
{
name = bottom;
pos = (379,0);
},
{
name = top;
pos = (336,516);
}
);
layerId = "E1238894-54FF-4BF5-8428-CDF6AE3ED177";
shapes = (
{
closed = 1;
nodes = (
(378,-11,o),
(453,19,o),
(509,77,c),
(431,168,l),
(398,136,o),
(357,117,o),
(313,117,cs),
(248,117,o),
(198,157,o),
(189,217,c),
(557,217,l),
(561,238,o),
(563,262,o),
(563,293,cs),
(563,430,o),
(467,524,o),
(324,524,cs),
(166,524,o),
(35,391,o),
(35,233,cs),
(35,90,o),
(142,-11,o),
(292,-11,cs)
);
},
{
closed = 1;
nodes = (
(220,362,o),
(265,397,o),
(319,397,cs),
(376,397,o),
(414,363,o),
(423,308,c),
(200,308,l)
);
}
);
width = 600;
},
{
anchors = (
{
name = bottom;
pos = (358,0);
},
{
name = top;
pos = (327,488);
}
);
layerId = "73361422-4D71-4ED1-86BB-2DC193C1BE05";
shapes = (
{
closed = 1;
nodes = (
(366,-10,o),
(432,17,o),
(480,60,c),
(443,110,l),
(392,70,o),
(348,54,o),
(297,54,cs),
(205,54,o),
(136,125,o),
(136,228,c),
(530,228,l),
(532,247,o),
(533,263,o),
(533,281,cs),
(533,406,o),
(447,496,o),
(327,496,cs),
(182,496,o),
(66,371,o),
(66,219,cs),
(66,84,o),
(163,-10,o),
(294,-10,cs)
);
},
{
closed = 1;
nodes = (
(166,370,o),
(236,433,o),
(322,433,cs),
(405,433,o),
(466,369,o),
(463,282,c),
(143,282,l)
);
}
);
width = 600;
}
);
unicode = 101;
},
{
glyphname = eogonek;
kernLeft = o;
kernRight = e;
lastChange = "2024-10-14 19:30:53 +0000";
layers = (
{
layerId = m001;
shapes = (
{
closed = 1;
nodes = (
(305,-232,o),
(326,-227,o),
(341,-220,c),
(338,-188,l),
(325,-193,o),
(306,-197,o),
(292,-197,cs),
(254,-197,o),
(227,-176,o),
(227,-146,cs),
(227,-102,o),
(257,-57,o),
(361,-2,c),
(402,9,o),
(441,28,o),
(473,55,c),
(446,94,l),
(391,53,o),
(346,36,o),
(293,36,cs),
(192,36,o),
(114,128,o),
(125,231,c),
(523,231,l),
(525,249,o),
(525,263,o),
(525,278,cs),
(525,400,o),
(440,489,o),
(323,489,cs),
(187,489,o),
(75,365,o),
(75,215,cs),
(75,82,o),
(168,-9,o),
(294,-10,c),
(222,-55,o),
(187,-103,o),
(187,-154,cs),
(187,-195,o),
(219,-232,o),
(284,-232,cs)
);
},
{
closed = 1;
nodes = (
(152,370,o),
(228,443,o),
(320,443,cs),
(411,443,o),
(481,368,o),
(473,272,c),
(130,272,l)
);
}
);
width = 600;
},
{
layerId = "E1238894-54FF-4BF5-8428-CDF6AE3ED177";
shapes = (
{
closed = 1;
nodes = (
(305,-231,o),
(341,-222,o),
(366,-208,c),
(361,-138,l),
(350,-145,o),
(332,-149,o),
(314,-149,cs),
(289,-149,o),
(274,-136,o),
(274,-113,cs),
(274,-76,o),
(309,-38,o),
(379,0,c),
(429,14,o),
(473,39,o),
(509,77,c),
(431,168,l),
(398,136,o),
(357,117,o),
(313,117,cs),
(248,117,o),
(198,157,o),
(189,217,c),
(557,217,l),
(561,238,o),
(563,262,o),
(563,293,cs),
(563,430,o),
(467,524,o),
(324,524,cs),
(166,524,o),
(35,391,o),
(35,233,cs),
(35,94,o),
(137,-6,o),
(281,-11,c),
(215,-54,o),
(182,-100,o),
(182,-153,cs),
(182,-201,o),
(216,-231,o),
(270,-231,cs)
);
},
{
closed = 1;
nodes = (
(220,362,o),
(265,397,o),
(319,397,cs),
(376,397,o),
(414,363,o),
(423,308,c),
(200,308,l)
);
}
);
width = 600;
},
{
layerId = "73361422-4D71-4ED1-86BB-2DC193C1BE05";
shapes = (
{
closed = 1;
nodes = (
(295,-232,o),
(319,-227,o),
(337,-218,c),
(333,-178,l),
(320,-183,o),
(301,-187,o),
(287,-187,cs),
(252,-187,o),
(227,-168,o),
(227,-139,cs),
(227,-93,o),
(266,-51,o),
(350,-5,c),
(400,5,o),
(445,28,o),
(480,60,c),
(443,110,l),
(392,70,o),
(348,54,o),
(297,54,cs),
(205,54,o),
(136,125,o),
(136,228,c),
(530,228,l),
(532,247,o),
(533,263,o),
(533,281,cs),
(533,406,o),
(447,496,o),
(327,496,cs),
(182,496,o),
(66,371,o),
(66,219,cs),
(66,88,o),
(157,-4,o),
(282,-10,c),
(211,-55,o),
(176,-103,o),
(176,-154,cs),
(176,-201,o),
(214,-232,o),
(271,-232,cs)
);
},
{
closed = 1;
nodes = (
(166,370,o),
(236,433,o),
(322,433,cs),
(405,433,o),
(466,369,o),
(463,282,c),
(143,282,l)
);
}
);
width = 600;
}
);
unicode = 281;
},
{
glyphname = f;
kernLeft = t;
kernRight = f;
lastChange = "2024-10-14 19:30:53 +0000";
layers = (
{
guides = (
{
angle = 90;
pos = (527,747);
userData = {
UFO.identifier = NkpeIWGNrB;
};
}
);
layerId = m001;
shapes = (
{
closed = 1;
nodes = (
(223,0,l),
(317,438,l),
(544,438,l),
(553,481,l),
(326,481,l),
(350,594,ls),
(366,669,o),
(402,694,o),
(467,694,cs),
(510,694,o),
(548,686,o),
(593,668,c),
(603,716,l),
(556,732,o),
(520,740,o),
(477,740,cs),
(383,740,o),
(322,695,o),
(304,609,cs),
(277,481,l),
(105,481,l),
(96,438,l),
(267,438,l),
(174,0,l)
);
}
);
width = 600;
},
{
layerId = "E1238894-54FF-4BF5-8428-CDF6AE3ED177";
shapes = (
{
closed = 1;
nodes = (
(296,0,l),
(379,391,l),
(577,391,l),
(604,516,l),
(405,516,l),
(413,553,ls),
(426,614,o),
(450,636,o),
(508,636,cs),
(541,636,o),
(578,631,o),
(621,615,c),
(650,749,l),
(613,763,o),
(551,774,o),
(504,774,cs),
(369,774,o),
(286,709,o),
(259,582,cs),
(245,516,l),
(93,516,l),
(66,391,l),
(218,391,l),
(134,0,l)
);
}
);
width = 600;
},
{
guides = (
{
angle = 78;
pos = (287,578);
userData = {
UFO.identifier = NkpeIWGNrB;
};
}
);
layerId = "73361422-4D71-4ED1-86BB-2DC193C1BE05";
shapes = (
{
closed = 1;
nodes = (
(237,0,l),
(328,428,l),
(553,428,l),
(566,488,l),
(341,488,l),
(360,579,ls),
(375,650,o),
(409,675,o),
(474,675,cs),
(513,675,o),
(551,667,o),
(596,645,c),
(609,711,l),
(565,731,o),
(523,740,o),
(481,740,cs),
(376,740,o),
(310,691,o),
(290,596,cs),
(267,488,l),
(101,488,l),
(88,428,l),
(254,428,l),
(164,0,l)
);
}
);
width = 600;
}
);
unicode = 102;
},
{
glyphname = g;
kernLeft = o;
kernRight = q;
lastChange = "2024-10-14 19:30:53 +0000";
layers = (
{
anchors = (
{
name = top;
pos = (317,481);
}
);
layerId = m001;
shapes = (
{
closed = 1;
nodes = (
(347,-219,o),
(414,-162,o),
(436,-59,cs),
(549,481,l),
(500,481,l),
(483,402,l),
(441,457,o),
(387,487,o),
(317,487,cs),
(178,487,o),
(64,364,o),
(64,213,cs),
(64,85,o),
(147,-8,o),
(267,-8,c),
(322,-8,o),
(369,11,o),
(410,52,c),
(389,-47,ls),
(372,-124,o),
(319,-172,o),
(247,-172,cs),
(186,-172,o),
(132,-152,o),
(75,-109,c),
(44,-149,l),
(96,-193,o),
(180,-219,o),
(250,-219,cs)
);
},
{
closed = 1;
nodes = (
(181,38,o),
(113,110,o),
(113,218,cs),
(113,342,o),
(204,441,o),
(320,441,cs),
(384,441,o),
(446,404,o),
(473,352,c),
(420,97,l),
(381,57,o),
(336,38,o),
(283,38,c)
);
}
);
width = 600;
},
{
anchors = (
{
name = top;
pos = (355,516);
}
);
layerId = "E1238894-54FF-4BF5-8428-CDF6AE3ED177";
shapes = (
{
closed = 1;
nodes = (
(359,-219,o),
(453,-153,o),
(479,-29,cs),
(595,516,l),
(439,516,l),
(426,456,l),
(397,496,o),
(346,519,o),
(291,519,cs),
(150,519,o),
(31,384,o),
(31,226,cs),
(31,99,o),
(106,-3,o),
(209,-3,c),
(257,-3,o),
(300,12,o),
(340,57,c),
(326,-11,ls),
(314,-66,o),
(283,-94,o),
(233,-94,cs),
(180,-94,o),
(121,-72,o),
(64,-34,c),
(0,-146,l),
(65,-191,o),
(145,-219,o),
(230,-219,cs)
);
},
{
closed = 1;
nodes = (
(219,124,o),
(186,173,o),
(186,236,cs),
(186,322,o),
(241,389,o),
(315,389,cs),
(350,389,o),
(379,375,o),
(402,350,c),
(362,159,l),
(338,137,o),
(308,124,o),
(279,124,c)
);
}
);
width = 600;
},
{
anchors = (
{
name = top;
pos = (335,488);
}
);
layerId = "73361422-4D71-4ED1-86BB-2DC193C1BE05";
shapes = (
{
closed = 1;
nodes = (
(349,-219,o),
(420,-160,o),
(443,-52,cs),
(558,488,l),
(487,488,l),
(471,410,l),
(437,464,o),
(382,494,o),
(314,494,cs),
(175,494,o),
(61,368,o),
(61,215,cs),
(61,88,o),
(143,-6,o),
(253,-6,c),
(307,-6,o),
(356,14,o),
(394,50,c),
(374,-46,ls),
(359,-116,o),
(311,-155,o),
(239,-155,cs),
(184,-155,o),
(129,-135,o),
(72,-93,c),
(34,-148,l),
(89,-192,o),
(172,-219,o),
(243,-219,cs)
);
},
{
closed = 1;
nodes = (
(193,56,o),
(132,123,o),
(132,221,cs),
(132,338,o),
(216,430,o),
(323,430,cs),
(380,430,o),
(434,399,o),
(458,352,c),
(407,108,l),
(371,74,o),
(328,56,o),
(282,56,c)
);
}
);
width = 600;
}
);
unicode = 103;
},
{
color = (116,212,255,255);
glyphname = gcommaaccent;
kernLeft = o;
kernRight = q;
lastChange = "2024-10-14 19:30:53 +0000";
layers = (
{
layerId = m001;
shapes = (
{
closed = 1;
nodes = (
(425,791,l),
(327,611,l),
(383,611,l),
(464,791,l)
);
},
{
ref = g;
}
);
width = 600;
},
{
layerId = "E1238894-54FF-4BF5-8428-CDF6AE3ED177";
shapes = (
{
closed = 1;
nodes = (
(424,842,l),
(284,627,l),
(425,627,l),
(533,842,l)
);
},
{
ref = g;
}
);
width = 600;
},
{
layerId = "73361422-4D71-4ED1-86BB-2DC193C1BE05";
shapes = (
{
closed = 1;
nodes = (
(419,797,l),
(308,610,l),
(385,610,l),
(472,797,l)
);
},
{
ref = g;
}
);
width = 600;
}
);
unicode = 291;
},
{
glyphname = h;
kernLeft = b;
kernRight = n;
lastChange = "2024-10-14 19:30:53 +0000";
layers = (
{
anchors = (
{
name = top;
pos = (283,700);
}
);
guides = (
{
angle = 78;
pos = (276,662);
userData = {
UFO.identifier = Ywkj6qlUvS;
};
},
{
angle = 78;
pos = (192,614);
userData = {
UFO.identifier = YA6PRdAABp;
};
}
);
layerId = m001;
shapes = (
{
closed = 1;
nodes = (
(111,0,l),
(189,370,l),
(230,422,o),
(282,446,o),
(344,446,cs),
(428,446,o),
(474,381,o),
(453,284,cs),
(392,0,l),
(441,0,l),
(502,286,ls),
(527,405,o),
(465,489,o),
(355,489,cs),
(293,489,o),
(243,468,o),
(199,417,c),
(266,737,l),
(215,725,l),
(62,0,l)
);
}
);
width = 600;
},
{
anchors = (
{
name = top;
pos = (240,700);
}
);
layerId = "E1238894-54FF-4BF5-8428-CDF6AE3ED177";
shapes = (
{
closed = 1;
nodes = (
(171,0,l),
(248,358,l),
(275,385,o),
(303,397,o),
(333,397,cs),
(387,397,o),
(415,356,o),
(402,297,cs),
(338,0,l),
(497,0,l),
(569,337,ls),
(593,447,o),
(538,522,o),
(434,522,cs),
(371,522,o),
(314,492,o),
(265,436,c),
(330,737,l),
(165,712,l),
(12,0,l)
);
}
);
width = 600;
},
{
anchors = (
{
name = top;
pos = (232,700);
}
);
guides = (
{
angle = 78;
pos = (190,679);
userData = {
UFO.identifier = Ywkj6qlUvS;
};
}
);
layerId = "73361422-4D71-4ED1-86BB-2DC193C1BE05";
shapes = (
{
closed = 1;
nodes = (
(120,0,l),
(196,361,l),
(236,410,o),
(286,436,o),
(340,436,cs),
(418,436,o),
(458,377,o),
(439,287,cs),
(378,0,l),
(451,0,l),
(514,298,ls),
(539,415,o),
(479,496,o),
(370,496,cs),
(308,496,o),
(253,468,o),
(207,412,c),
(276,737,l),
(200,722,l),
(47,0,l)
);
}
);
width = 600;
}
);
unicode = 104;
},
{
glyphname = hbar;
kernLeft = b;
kernRight = n;
lastChange = "2024-10-14 19:30:53 +0000";
layers = (
{
layerId = m001;
shapes = (
{
closed = 1;
nodes = (
(111,0,l),
(189,370,l),
(230,422,o),
(282,446,o),
(344,446,cs),
(428,446,o),
(474,381,o),
(453,284,cs),
(392,0,l),
(441,0,l),
(502,286,ls),
(527,405,o),
(465,489,o),
(355,489,cs),
(293,489,o),
(243,468,o),
(199,417,c),
(232,576,l),
(388,576,l),
(396,616,l),
(241,616,l),
(266,737,l),
(215,725,l),
(192,616,l),
(110,616,l),
(102,576,l),
(184,576,l),
(62,0,l)
);
}
);
width = 600;
},
{
layerId = "E1238894-54FF-4BF5-8428-CDF6AE3ED177";
shapes = (
{
closed = 1;
nodes = (
(171,0,l),
(248,358,l),
(275,385,o),
(303,397,o),
(333,397,cs),
(387,397,o),
(415,356,o),
(402,297,cs),
(338,0,l),
(497,0,l),
(569,337,ls),
(593,447,o),
(538,522,o),
(434,522,cs),
(371,522,o),
(314,492,o),
(265,436,c),
(292,560,l),
(403,560,l),
(422,648,l),
(311,648,l),
(330,737,l),
(165,712,l),
(151,648,l),
(78,648,l),
(59,560,l),
(132,560,l),
(12,0,l)
);
}
);
width = 600;
},
{
layerId = "73361422-4D71-4ED1-86BB-2DC193C1BE05";
shapes = (
{
closed = 1;
nodes = (
(120,0,l),
(196,361,l),
(236,410,o),
(286,436,o),
(340,436,cs),
(418,436,o),
(458,377,o),
(439,287,cs),
(378,0,l),
(451,0,l),
(514,298,ls),
(539,415,o),
(479,496,o),
(370,496,cs),
(308,496,o),
(253,468,o),
(207,412,c),
(241,573,l),
(385,573,l),
(396,626,l),
(252,626,l),
(276,737,l),
(200,722,l),
(180,626,l),
(106,626,l),
(95,573,l),
(168,573,l),
(47,0,l)
);
}
);
width = 600;
}
);
unicode = 295;
},
{
glyphname = i;
kernLeft = b;
kernRight = d;
lastChange = "2024-10-14 19:30:53 +0000";
layers = (
{
anchors = (
{
name = bottom;
pos = (433,0);
},
{
name = top;
pos = (344,481);
}
);
guides = (
{
pos = (389,481);
userData = {
UFO.identifier = dzTd0XoNjv;
};
}
);
layerId = m001;
shapes = (
{
closed = 1;
nodes = (
(403,605,o),
(429,631,o),
(429,660,cs),
(429,687,o),
(406,710,o),
(379,710,cs),
(348,710,o),
(322,683,o),
(322,655,cs),
(322,626,o),
(343,605,o),
(371,605,cs)
);
},
{
closed = 1;
nodes = (
(401,-10,o),
(427,-5,o),
(455,5,c),
(465,50,l),
(432,38,o),
(407,33,o),
(379,33,cs),
(304,33,o),
(277,63,o),
(292,130,cs),
(368,481,l),
(136,481,l),
(127,438,l),
(310,438,l),
(243,132,ls),
(223,41,o),
(270,-10,o),
(371,-10,cs)
);
}
);
width = 600;
},
{
anchors = (
{
name = bottom;
pos = (450,0);
},
{
name = top;
pos = (366,516);
}
);
layerId = "E1238894-54FF-4BF5-8428-CDF6AE3ED177";
shapes = (
{
closed = 1;
nodes = (
(441,596,o),
(492,647,o),
(492,709,cs),
(492,759,o),
(452,798,o),
(402,798,cs),
(343,798,o),
(290,745,o),
(290,684,cs),
(290,634,o),
(328,596,o),
(379,596,cs)
);
},
{
closed = 1;
nodes = (
(421,-7,o),
(476,2,o),
(501,14,c),
(529,145,l),
(494,133,o),
(464,129,o),
(434,129,cs),
(381,129,o),
(356,152,o),
(370,218,cs),
(434,516,l),
(94,516,l),
(67,391,l),
(245,391,l),
(207,220,ls),
(174,72,o),
(241,-7,o),
(377,-7,cs)
);
}
);
width = 600;
},
{
anchors = (
{
name = bottom;
pos = (441,0);
},
{
name = top;
pos = (346,488);
}
);
guides = (
{
pos = (389,481);
userData = {
UFO.identifier = dzTd0XoNjv;
};
}
);
layerId = "73361422-4D71-4ED1-86BB-2DC193C1BE05";
shapes = (
{
closed = 1;
nodes = (
(411,604,o),
(442,635,o),
(442,670,cs),
(442,702,o),
(416,728,o),
(384,728,cs),
(347,728,o),
(315,696,o),
(315,661,cs),
(315,629,o),
(340,604,o),
(373,604,cs)
);
},
{
closed = 1;
nodes = (
(402,-10,o),
(436,-7,o),
(477,7,c),
(491,73,l),
(448,58,o),
(419,55,o),
(385,55,cs),
(320,55,o),
(293,85,o),
(308,153,cs),
(382,488,l),
(128,488,l),
(115,428,l),
(296,428,l),
(236,156,ls),
(213,50,o),
(268,-10,o),
(371,-10,cs)
);
}
);
width = 600;
}
);
note = "Version created Wed Nov 11 16:21:20 2020";
unicode = 105;
},
{
glyphname = idotless;
kernLeft = n;
kernRight = q;
lastChange = "2024-11-06 19:42:08 +0000";
layers = (
{
anchors = (
{
name = bottom;
pos = (437,0);
},
{
name = top;
pos = (343,481);
}
);
guides = (
{
pos = (389,481);
userData = {
UFO.identifier = xGx8Pz8Rim;
};
},
{
pos = (389,481);
userData = {
UFO.identifier = 9yQ9iBFjaH;
};
}
);
layerId = m001;
shapes = (
{
closed = 1;
nodes = (
(402,-10,o),
(428,-5,o),
(455,5,c),
(465,50,l),
(432,38,o),
(407,33,o),
(379,33,cs),
(311,33,o),
(276,57,o),
(292,130,c),
(368,481,l),
(136,481,l),
(127,438,l),
(310,438,l),
(243,132,l),
(223,37,o),
(274,-10,o),
(371,-10,cs)
);
}
);
width = 600;
},
{
anchors = (
{
name = bottom;
pos = (450,0);
},
{
name = top;
pos = (366,516);
}
);
layerId = "E1238894-54FF-4BF5-8428-CDF6AE3ED177";
shapes = (
{
closed = 1;
nodes = (
(421,-7,o),
(476,2,o),
(501,14,c),
(529,145,l),
(494,133,o),
(464,129,o),
(434,129,cs),
(381,129,o),
(356,152,o),
(370,218,c),
(434,516,l),
(94,516,l),
(67,391,l),
(245,391,l),
(207,220,l),
(174,72,o),
(241,-7,o),
(377,-7,cs)
);
}
);
width = 600;
},
{
anchors = (
{
name = bottom;
pos = (441,0);
},
{
name = top;
pos = (346,488);
}
);
guides = (
{
pos = (389,481);
userData = {
UFO.identifier = xGx8Pz8Rim;
};
},
{
pos = (389,481);
userData = {
UFO.identifier = 9yQ9iBFjaH;
};
}
);
layerId = "73361422-4D71-4ED1-86BB-2DC193C1BE05";
shapes = (
{
closed = 1;
nodes = (
(402,-10,o),
(436,-7,o),
(477,7,c),
(491,73,l),
(448,58,o),
(419,55,o),
(385,55,cs),
(320,55,o),
(293,85,o),
(308,153,c),
(382,488,l),
(128,488,l),
(115,428,l),
(296,428,l),
(236,156,l),
(213,50,o),
(268,-10,o),
(371,-10,cs)
);
}
);
width = 600;
}
);
unicode = 305;
},
{
glyphname = iogonek;
kernLeft = b;
kernRight = d;
lastChange = "2024-10-14 19:30:53 +0000";
layers = (
{
layerId = m001;
shapes = (
{
closed = 1;
nodes = (
(403,605,o),
(429,631,o),
(429,660,cs),
(429,687,o),
(406,710,o),
(379,710,cs),
(348,710,o),
(322,683,o),
(322,655,cs),
(322,626,o),
(343,605,o),
(371,605,cs)
);
},
{
closed = 1;
nodes = (
(374,-232,o),
(395,-227,o),
(410,-220,c),
(407,-188,l),
(394,-193,o),
(375,-197,o),
(361,-197,cs),
(323,-197,o),
(296,-176,o),
(296,-146,cs),
(296,-103,o),
(326,-58,o),
(426,-4,c),
(436,-1,o),
(445,2,o),
(455,5,c),
(465,50,l),
(432,38,o),
(407,33,o),
(379,33,cs),
(304,33,o),
(277,63,o),
(292,130,cs),
(368,481,l),
(136,481,l),
(127,438,l),
(310,438,l),
(243,132,ls),
(224,44,o),
(267,-7,o),
(362,-10,c),
(282,-62,o),
(256,-110,o),
(256,-154,cs),
(256,-195,o),
(288,-232,o),
(353,-232,cs)
);
}
);
width = 600;
},
{
layerId = "E1238894-54FF-4BF5-8428-CDF6AE3ED177";
shapes = (
{
closed = 1;
nodes = (
(441,596,o),
(492,647,o),
(492,709,cs),
(492,759,o),
(452,798,o),
(402,798,cs),
(343,798,o),
(290,745,o),
(290,684,cs),
(290,634,o),
(328,596,o),
(379,596,cs)
);
},
{
closed = 1;
nodes = (
(376,-231,o),
(412,-222,o),
(437,-208,c),
(432,-138,l),
(421,-145,o),
(403,-149,o),
(385,-149,cs),
(360,-149,o),
(345,-136,o),
(345,-113,cs),
(345,-76,o),
(380,-38,o),
(449,0,c),
(470,3,o),
(489,8,o),
(501,14,c),
(529,145,l),
(494,133,o),
(464,129,o),
(434,129,cs),
(381,129,o),
(356,152,o),
(370,218,cs),
(434,516,l),
(94,516,l),
(67,391,l),
(245,391,l),
(207,220,ls),
(176,79,o),
(235,1,o),
(358,-6,c),
(288,-51,o),
(253,-99,o),
(253,-153,cs),
(253,-201,o),
(287,-231,o),
(341,-231,cs)
);
}
);
width = 600;
},
{
layerId = "73361422-4D71-4ED1-86BB-2DC193C1BE05";
shapes = (
{
closed = 1;
nodes = (
(411,604,o),
(442,635,o),
(442,670,cs),
(442,702,o),
(416,728,o),
(384,728,cs),
(347,728,o),
(315,696,o),
(315,661,cs),
(315,629,o),
(340,604,o),
(373,604,cs)
);
},
{
closed = 1;
nodes = (
(378,-232,o),
(402,-227,o),
(420,-218,c),
(416,-178,l),
(403,-183,o),
(384,-187,o),
(370,-187,cs),
(335,-187,o),
(310,-168,o),
(310,-139,cs),
(310,-94,o),
(349,-51,o),
(432,-5,c),
(446,-2,o),
(461,2,o),
(477,7,c),
(491,73,l),
(448,58,o),
(419,55,o),
(385,55,cs),
(320,55,o),
(293,85,o),
(308,153,cs),
(382,488,l),
(128,488,l),
(115,428,l),
(296,428,l),
(236,156,ls),
(213,52,o),
(266,-8,o),
(365,-10,c),
(294,-55,o),
(259,-103,o),
(259,-154,cs),
(259,-201,o),
(297,-232,o),
(354,-232,cs)
);
}
);
width = 600;
}
);
unicode = 303;
},
{
glyphname = ij;
kernLeft = b;
kernRight = d;
lastChange = "2024-10-14 19:30:53 +0000";
layers = (
{
layerId = m001;
shapes = (
{
closed = 1;
nodes = (
(283,605,o),
(308,631,o),
(308,660,cs),
(308,687,o),
(286,710,o),
(259,710,cs),
(228,710,o),
(201,683,o),
(201,655,cs),
(201,626,o),
(223,605,o),
(251,605,cs)
);
},
{
closed = 1;
nodes = (
(541,605,o),
(567,631,o),
(567,660,cs),
(567,687,o),
(544,710,o),
(517,710,cs),
(486,710,o),
(459,683,o),
(459,655,cs),
(459,626,o),
(481,605,o),
(509,605,cs)
);
},
{
closed = 1;
nodes = (
(138,0,l),
(243,481,l),
(194,481,l),
(89,0,l)
);
},
{
closed = 1;
nodes = (
(318,-219,o),
(362,-179,o),
(377,-110,cs),
(503,481,l),
(454,481,l),
(329,-105,ls),
(319,-153,o),
(300,-173,o),
(261,-173,c),
(249,-173,o),
(235,-171,o),
(224,-166,c),
(214,-213,l),
(226,-217,o),
(242,-219,o),
(255,-219,c)
);
}
);
width = 600;
},
{
layerId = "E1238894-54FF-4BF5-8428-CDF6AE3ED177";
shapes = (
{
closed = 1;
nodes = (
(304,596,o),
(355,647,o),
(355,709,cs),
(355,759,o),
(315,798,o),
(265,798,cs),
(206,798,o),
(153,745,o),
(153,684,cs),
(153,634,o),
(191,596,o),
(242,596,cs)
);
},
{
closed = 1;
nodes = (
(585,596,o),
(636,647,o),
(636,709,cs),
(636,759,o),
(596,798,o),
(546,798,cs),
(487,798,o),
(434,745,o),
(434,684,cs),
(434,634,o),
(472,596,o),
(523,596,cs)
);
},
{
closed = 1;
nodes = (
(187,0,l),
(297,516,l),
(135,516,l),
(25,0,l)
);
},
{
closed = 1;
nodes = (
(363,-219,o),
(432,-167,o),
(456,-53,cs),
(578,516,l),
(416,516,l),
(299,-28,ls),
(291,-63,o),
(270,-81,o),
(239,-81,c),
(219,-81,o),
(195,-76,o),
(175,-70,c),
(146,-203,l),
(177,-212,o),
(219,-219,o),
(259,-219,c)
);
}
);
width = 600;
},
{
layerId = "73361422-4D71-4ED1-86BB-2DC193C1BE05";
shapes = (
{
closed = 1;
nodes = (
(287,603,o),
(318,634,o),
(318,670,cs),
(318,702,o),
(292,728,o),
(260,728,cs),
(223,728,o),
(191,696,o),
(191,661,cs),
(191,628,o),
(216,603,o),
(249,603,cs)
);
},
{
closed = 1;
nodes = (
(550,604,o),
(581,635,o),
(581,670,cs),
(581,702,o),
(555,728,o),
(523,728,cs),
(486,728,o),
(454,696,o),
(454,661,cs),
(454,629,o),
(479,604,o),
(512,604,cs)
);
},
{
closed = 1;
nodes = (
(149,0,l),
(253,488,l),
(180,488,l),
(76,0,l)
);
},
{
closed = 1;
nodes = (
(326,-219,o),
(378,-173,o),
(395,-94,cs),
(518,488,l),
(445,488,l),
(323,-90,ls),
(313,-135,o),
(293,-154,o),
(251,-154,c),
(237,-154,o),
(227,-153,o),
(216,-150,c),
(202,-213,l),
(215,-216,o),
(230,-219,o),
(246,-219,c)
);
}
);
width = 600;
}
);
unicode = 307;
},
{
glyphname = j;
kernLeft = b;
kernRight = d;
lastChange = "2024-10-14 19:30:53 +0000";
layers = (
{
guides = (
{
pos = (543,419);
userData = {
UFO.identifier = iDpPTQMYma;
};
},
{
pos = (451,-51);
userData = {
UFO.identifier = CH9mFOFRr6;
};
}
);
layerId = m001;
shapes = (
{
closed = 1;
nodes = (
(497,605,o),
(522,631,o),
(522,660,cs),
(522,687,o),
(500,710,o),
(473,710,cs),
(442,710,o),
(415,683,o),
(415,655,cs),
(415,626,o),
(437,605,o),
(465,605,cs)
);
},
{
closed = 1;
nodes = (
(257,-219,o),
(322,-171,o),
(341,-81,cs),
(459,481,l),
(154,481,l),
(145,438,l),
(401,438,l),
(294,-74,ls),
(279,-145,o),
(245,-173,o),
(175,-173,cs),
(125,-173,o),
(80,-159,o),
(26,-131,c),
(16,-179,l),
(69,-205,o),
(122,-219,o),
(172,-219,cs)
);
}
);
userData = {
com.typemytype.robofont.guideline.magnetic.BZpMidTNzw = 5;
com.typemytype.robofont.guideline.magnetic.kQQJujAVWi = 5;
com.typemytype.robofont.guideline.magnetic.m1jFi0uvJE = 5;
com.typemytype.robofont.guideline.magnetic.v1md8oxURh = 5;
com.typemytype.robofont.guideline.magnetic.z3l41rt1yv = 5;
com.typemytype.robofont.guideline.showMeasurements.CH9mFOFRr6 = 1;
com.typemytype.robofont.guideline.showMeasurements.iDpPTQMYma = 1;
};
width = 600;
},
{
layerId = "E1238894-54FF-4BF5-8428-CDF6AE3ED177";
shapes = (
{
closed = 1;
nodes = (
(533,596,o),
(584,647,o),
(584,709,cs),
(584,759,o),
(544,798,o),
(494,798,cs),
(435,798,o),
(382,745,o),
(382,684,cs),
(382,634,o),
(420,596,o),
(471,596,cs)
);
},
{
closed = 1;
nodes = (
(300,-219,o),
(383,-152,o),
(411,-19,cs),
(526,516,l),
(129,516,l),
(102,391,l),
(337,391,l),
(256,19,ls),
(240,-54,o),
(214,-80,o),
(157,-80,cs),
(118,-80,o),
(67,-67,o),
(7,-43,c),
(-21,-177,l),
(26,-203,o),
(98,-219,o),
(165,-219,cs)
);
}
);
userData = {
com.typemytype.robofont.guideline.magnetic.BZpMidTNzw = 5;
com.typemytype.robofont.guideline.magnetic.kQQJujAVWi = 5;
com.typemytype.robofont.guideline.magnetic.m1jFi0uvJE = 5;
com.typemytype.robofont.guideline.magnetic.v1md8oxURh = 5;
com.typemytype.robofont.guideline.magnetic.z3l41rt1yv = 5;
com.typemytype.robofont.guideline.showMeasurements.CH9mFOFRr6 = 1;
com.typemytype.robofont.guideline.showMeasurements.iDpPTQMYma = 1;
};
width = 600;
},
{
guides = (
{
angle = 78;
pos = (395,113);
userData = {
UFO.identifier = iDpPTQMYma;
};
}
);
layerId = "73361422-4D71-4ED1-86BB-2DC193C1BE05";
shapes = (
{
closed = 1;
nodes = (
(504,604,o),
(535,635,o),
(535,670,cs),
(535,702,o),
(509,728,o),
(477,728,cs),
(440,728,o),
(408,696,o),
(408,661,cs),
(408,629,o),
(433,604,o),
(466,604,cs)
);
},
{
closed = 1;
nodes = (
(267,-219,o),
(331,-181,o),
(355,-68,cs),
(473,488,l),
(149,488,l),
(136,428,l),
(387,428,l),
(284,-55,ls),
(268,-128,o),
(235,-154,o),
(169,-154,cs),
(121,-154,o),
(75,-140,o),
(20,-113,c),
(7,-179,l),
(57,-204,o),
(112,-219,o),
(168,-219,cs)
);
}
);
width = 600;
}
);
unicode = 106;
},
{
glyphname = jdotless;
kernLeft = n;
kernRight = q;
lastChange = "2024-11-06 19:42:03 +0000";
layers = (
{
anchors = (
{
name = top;
pos = (435,481);
}
);
layerId = m001;
shapes = (
{
closed = 1;
nodes = (
(257,-219,o),
(322,-171,o),
(341,-81,cs),
(459,481,l),
(154,481,l),
(145,438,l),
(401,438,l),
(293,-74,ls),
(278,-145,o),
(244,-173,o),
(175,-173,cs),
(125,-173,o),
(80,-159,o),
(26,-131,c),
(16,-179,l),
(69,-205,o),
(122,-219,o),
(172,-219,cs)
);
}
);
userData = {
com.typemytype.robofont.guideline.magnetic.BZpMidTNzw = 5;
com.typemytype.robofont.guideline.magnetic.kQQJujAVWi = 5;
com.typemytype.robofont.guideline.magnetic.m1jFi0uvJE = 5;
com.typemytype.robofont.guideline.magnetic.v1md8oxURh = 5;
com.typemytype.robofont.guideline.magnetic.z3l41rt1yv = 5;
};
width = 600;
},
{
anchors = (
{
name = top;
pos = (447,516);
}
);
layerId = "E1238894-54FF-4BF5-8428-CDF6AE3ED177";
shapes = (
{
closed = 1;
nodes = (
(300,-219,o),
(383,-152,o),
(411,-19,cs),
(526,516,l),
(129,516,l),
(102,391,l),
(337,391,l),
(256,19,ls),
(240,-54,o),
(214,-80,o),
(157,-80,cs),
(118,-80,o),
(67,-67,o),
(7,-43,c),
(-21,-177,l),
(26,-203,o),
(98,-219,o),
(165,-219,cs)
);
}
);
userData = {
com.typemytype.robofont.guideline.magnetic.BZpMidTNzw = 5;
com.typemytype.robofont.guideline.magnetic.kQQJujAVWi = 5;
com.typemytype.robofont.guideline.magnetic.m1jFi0uvJE = 5;
com.typemytype.robofont.guideline.magnetic.v1md8oxURh = 5;
com.typemytype.robofont.guideline.magnetic.z3l41rt1yv = 5;
};
width = 600;
},
{
anchors = (
{
name = top;
pos = (437,488);
}
);
layerId = "73361422-4D71-4ED1-86BB-2DC193C1BE05";
shapes = (
{
closed = 1;
nodes = (
(267,-219,o),
(331,-181,o),
(355,-68,cs),
(473,488,l),
(149,488,l),
(136,428,l),
(387,428,l),
(284,-55,ls),
(268,-128,o),
(235,-154,o),
(169,-154,cs),
(121,-154,o),
(75,-140,o),
(20,-113,c),
(7,-179,l),
(57,-204,o),
(112,-219,o),
(168,-219,cs)
);
}
);
userData = {
com.typemytype.robofont.guideline.magnetic.BZpMidTNzw = 5;
com.typemytype.robofont.guideline.magnetic.kQQJujAVWi = 5;
com.typemytype.robofont.guideline.magnetic.m1jFi0uvJE = 5;
com.typemytype.robofont.guideline.magnetic.v1md8oxURh = 5;
com.typemytype.robofont.guideline.magnetic.z3l41rt1yv = 5;
};
width = 600;
}
);
unicode = 567;
},
{
glyphname = k;
kernLeft = b;
kernRight = k;
lastChange = "2024-10-14 19:30:53 +0000";
layers = (
{
anchors = (
{
name = bottom;
pos = (252,0);
}
);
layerId = m001;
shapes = (
{
closed = 1;
nodes = (
(125,0,l),
(177,249,l),
(421,0,l),
(487,0,l),
(237,249,l),
(578,481,l),
(504,481,l),
(180,263,l),
(279,737,l),
(228,725,l),
(76,0,l)
);
}
);
width = 600;
},
{
anchors = (
{
name = bottom;
pos = (249,0);
}
);
layerId = "E1238894-54FF-4BF5-8428-CDF6AE3ED177";
shapes = (
{
closed = 1;
nodes = (
(164,0,l),
(210,218,l),
(342,0,l),
(530,0,l),
(360,258,l),
(628,516,l),
(437,516,l),
(227,297,l),
(320,737,l),
(157,712,l),
(5,0,l)
);
}
);
width = 600;
},
{
anchors = (
{
name = bottom;
pos = (251,0);
}
);
layerId = "73361422-4D71-4ED1-86BB-2DC193C1BE05";
shapes = (
{
closed = 1;
nodes = (
(134,0,l),
(185,241,l),
(402,0,l),
(496,0,l),
(265,251,l),
(588,488,l),
(492,488,l),
(191,268,l),
(291,737,l),
(215,722,l),
(61,0,l)
);
}
);
width = 600;
}
);
unicode = 107;
},
{
glyphname = kgreenlandic;
kernLeft = n;
kernRight = k;
lastChange = "2024-10-14 19:30:53 +0000";
layers = (
{
layerId = m001;
shapes = (
{
closed = 1;
nodes = (
(125,0,l),
(178,248,l),
(421,0,l),
(487,0,l),
(237,249,l),
(578,481,l),
(504,481,l),
(182,264,l),
(228,481,l),
(179,481,l),
(76,0,l)
);
}
);
width = 600;
},
{
layerId = "E1238894-54FF-4BF5-8428-CDF6AE3ED177";
shapes = (
{
closed = 1;
nodes = (
(164,0,l),
(210,218,l),
(342,0,l),
(530,0,l),
(360,258,l),
(628,516,l),
(437,516,l),
(227,297,l),
(273,516,l),
(115,516,l),
(5,0,l)
);
}
);
width = 600;
},
{
layerId = "73361422-4D71-4ED1-86BB-2DC193C1BE05";
shapes = (
{
closed = 1;
nodes = (
(134,0,l),
(185,241,l),
(402,0,l),
(496,0,l),
(265,251,l),
(588,488,l),
(492,488,l),
(191,268,l),
(238,488,l),
(165,488,l),
(61,0,l)
);
}
);
width = 600;
}
);
unicode = 312;
},
{
glyphname = l;
kernLeft = b;
kernRight = d;
lastChange = "2024-11-07 13:15:21 +0000";
layers = (
{
anchors = (
{
name = bottom;
pos = (329,0);
},
{
name = top;
pos = (368,700);
}
);
guides = (
{
angle = 78;
pos = (445,727);
userData = {
UFO.identifier = fcRuPTquRh;
};
}
);
layerId = m001;
shapes = (
{
closed = 1;
nodes = (
(384,-10,o),
(410,-5,o),
(437,5,c),
(447,50,l),
(414,38,o),
(389,33,o),
(361,33,cs),
(293,33,o),
(259,57,o),
(274,130,cs),
(399,727,l),
(167,727,l),
(158,684,l),
(341,684,l),
(225,132,ls),
(205,37,o),
(256,-10,o),
(353,-10,cs)
);
}
);
width = 600;
},
{
anchors = (
{
name = bottom;
pos = (313,0);
},
{
name = top;
pos = (365,700);
}
);
guides = (
{
angle = 78;
pos = (218,344);
userData = {
UFO.identifier = fcRuPTquRh;
};
}
);
layerId = "E1238894-54FF-4BF5-8428-CDF6AE3ED177";
shapes = (
{
closed = 1;
nodes = (
(402,-7,o),
(456,2,o),
(482,14,c),
(510,145,l),
(475,133,o),
(445,129,o),
(415,129,cs),
(362,129,o),
(337,152,o),
(351,218,cs),
(459,727,l),
(119,727,l),
(92,602,l),
(270,602,l),
(188,220,ls),
(156,72,o),
(222,-7,o),
(358,-7,cs)
);
}
);
width = 600;
},
{
anchors = (
{
name = bottom;
pos = (355,0);
},
{
name = top;
pos = (372,700);
}
);
guides = (
{
angle = 78;
pos = (312,577);
userData = {
UFO.identifier = fcRuPTquRh;
};
}
);
layerId = "73361422-4D71-4ED1-86BB-2DC193C1BE05";
shapes = (
{
closed = 1;
nodes = (
(388,-10,o),
(422,-7,o),
(463,7,c),
(477,73,l),
(434,58,o),
(405,55,o),
(371,55,cs),
(306,55,o),
(279,85,o),
(294,153,cs),
(417,727,l),
(163,727,l),
(150,667,l),
(331,667,l),
(222,156,ls),
(199,50,o),
(254,-10,o),
(357,-10,cs)
);
}
);
width = 600;
}
);
unicode = 108;
},
{
color = 4;
glyphname = lcaron;
kernLeft = b;
kernRight = d;
lastChange = "2024-11-06 20:03:56 +0000";
layers = (
{
anchors = (
{
name = bottom;
pos = (329,0);
},
{
name = top;
pos = (368,700);
}
);
layerId = m001;
shapes = (
{
closed = 1;
nodes = (
(384,-10,o),
(410,-5,o),
(437,5,c),
(447,50,l),
(414,38,o),
(389,33,o),
(361,33,cs),
(293,33,o),
(259,57,o),
(274,130,cs),
(399,727,l),
(167,727,l),
(158,684,l),
(341,684,l),
(225,132,ls),
(205,37,o),
(256,-10,o),
(353,-10,cs)
);
},
{
closed = 1;
nodes = (
(587,549,l),
(646,737,l),
(591,725,l),
(551,549,l)
);
}
);
width = 600;
},
{
anchors = (
{
name = bottom;
pos = (313,0);
},
{
name = top;
pos = (365,700);
}
);
layerId = "E1238894-54FF-4BF5-8428-CDF6AE3ED177";
shapes = (
{
closed = 1;
nodes = (
(402,-7,o),
(456,2,o),
(482,14,c),
(510,145,l),
(475,133,o),
(445,129,o),
(415,129,cs),
(362,129,o),
(337,152,o),
(351,218,cs),
(459,727,l),
(119,727,l),
(92,602,l),
(270,602,l),
(188,220,ls),
(156,72,o),
(222,-7,o),
(358,-7,cs)
);
},
{
closed = 1;
nodes = (
(601,498,l),
(701,737,l),
(566,712,l),
(512,498,l)
);
}
);
width = 600;
},
{
anchors = (
{
name = bottom;
pos = (355,0);
},
{
name = top;
pos = (372,700);
}
);
layerId = "73361422-4D71-4ED1-86BB-2DC193C1BE05";
shapes = (
{
closed = 1;
nodes = (
(388,-10,o),
(422,-7,o),
(463,7,c),
(477,73,l),
(434,58,o),
(405,55,o),
(371,55,cs),
(306,55,o),
(279,85,o),
(294,153,cs),
(417,727,l),
(163,727,l),
(150,667,l),
(331,667,l),
(222,156,ls),
(199,50,o),
(254,-10,o),
(357,-10,cs)
);
},
{
closed = 1;
nodes = (
(592,527,l),
(658,737,l),
(583,722,l),
(534,527,l)
);
}
);
width = 600;
}
);
unicode = 318;
},
{
glyphname = lslash;
kernLeft = b;
lastChange = "2024-10-14 19:30:53 +0000";
layers = (
{
layerId = m001;
shapes = (
{
closed = 1;
nodes = (
(384,-10,o),
(410,-5,o),
(437,5,c),
(447,50,l),
(414,38,o),
(389,33,o),
(361,33,cs),
(293,33,o),
(259,57,o),
(274,130,cs),
(313,315,l),
(509,433,l),
(521,489,l),
(324,371,l),
(399,727,l),
(167,727,l),
(158,684,l),
(341,684,l),
(269,341,l),
(89,233,l),
(77,177,l),
(257,285,l),
(225,132,ls),
(205,37,o),
(256,-10,o),
(353,-10,cs)
);
}
);
width = 600;
},
{
layerId = "E1238894-54FF-4BF5-8428-CDF6AE3ED177";
shapes = (
{
closed = 1;
nodes = (
(402,-7,o),
(456,2,o),
(482,14,c),
(510,145,l),
(475,133,o),
(445,129,o),
(415,129,cs),
(362,129,o),
(337,152,o),
(351,218,cs),
(372,318,l),
(590,406,l),
(619,543,l),
(401,454,l),
(459,727,l),
(119,727,l),
(92,602,l),
(270,602,l),
(223,384,l),
(55,316,l),
(26,180,l),
(194,248,l),
(188,220,ls),
(156,72,o),
(222,-7,o),
(358,-7,cs)
);
}
);
width = 600;
},
{
layerId = "73361422-4D71-4ED1-86BB-2DC193C1BE05";
shapes = (
{
closed = 1;
nodes = (
(388,-10,o),
(422,-7,o),
(463,7,c),
(477,73,l),
(434,58,o),
(405,55,o),
(371,55,cs),
(306,55,o),
(279,85,o),
(294,153,cs),
(331,326,l),
(556,439,l),
(572,513,l),
(347,400,l),
(417,727,l),
(163,727,l),
(150,667,l),
(331,667,l),
(266,361,l),
(95,275,l),
(79,201,l),
(250,287,l),
(222,156,ls),
(199,50,o),
(254,-10,o),
(357,-10,cs)
);
}
);
width = 600;
}
);
unicode = 322;
},
{
glyphname = m;
kernLeft = n;
kernRight = n;
lastChange = "2024-10-14 19:30:53 +0000";
layers = (
{
layerId = m001;
shapes = (
{
closed = 1;
nodes = (
(72,0,l),
(160,410,l),
(182,435,o),
(207,449,o),
(238,449,cs),
(284,449,o),
(312,409,o),
(300,353,cs),
(224,0,l),
(272,0,l),
(348,353,ls),
(351,369,o),
(352,384,o),
(351,397,c),
(375,431,o),
(402,449,o),
(436,449,cs),
(482,449,o),
(512,409,o),
(500,353,cs),
(424,0,l),
(472,0,l),
(547,350,ls),
(565,432,o),
(522,489,o),
(453,489,cs),
(415,489,o),
(377,469,o),
(345,428,c),
(331,466,o),
(298,489,o),
(255,489,cs),
(224,489,o),
(194,475,o),
(167,446,c),
(175,481,l),
(127,481,l),
(24,0,l)
);
}
);
width = 600;
},
{
layerId = "E1238894-54FF-4BF5-8428-CDF6AE3ED177";
shapes = (
{
closed = 1;
nodes = (
(110,0,l),
(194,396,l),
(204,404,o),
(214,407,o),
(225,407,cs),
(251,407,o),
(262,384,o),
(254,350,cs),
(180,0,l),
(312,0,l),
(393,383,ls),
(394,387,o),
(395,392,o),
(395,396,c),
(404,404,o),
(415,407,o),
(426,407,cs),
(453,407,o),
(463,384,o),
(455,350,cs),
(381,0,l),
(513,0,l),
(597,393,ls),
(613,470,o),
(572,524,o),
(505,524,cs),
(460,524,o),
(422,502,o),
(392,460,c),
(379,500,o),
(347,524,o),
(303,524,cs),
(268,524,o),
(237,506,o),
(211,473,c),
(220,516,l),
(88,516,l),
(-22,0,l)
);
}
);
width = 600;
},
{
layerId = "73361422-4D71-4ED1-86BB-2DC193C1BE05";
shapes = (
{
closed = 1;
nodes = (
(83,0,l),
(170,406,l),
(189,429,o),
(211,441,o),
(238,441,cs),
(279,441,o),
(304,404,o),
(293,352,cs),
(218,0,l),
(286,0,l),
(362,359,ls),
(365,373,o),
(366,387,o),
(366,399,c),
(386,427,o),
(410,441,o),
(438,441,cs),
(479,441,o),
(504,404,o),
(493,352,cs),
(418,0,l),
(486,0,l),
(562,359,ls),
(579,440,o),
(537,496,o),
(468,496,cs),
(428,496,o),
(390,476,o),
(359,434,c),
(346,473,o),
(313,496,o),
(268,496,cs),
(236,496,o),
(206,481,o),
(179,450,c),
(187,488,l),
(119,488,l),
(15,0,l)
);
}
);
width = 600;
}
);
unicode = 109;
},
{
glyphname = n;
kernLeft = n;
kernRight = n;
lastChange = "2024-10-14 19:30:53 +0000";
layers = (
{
anchors = (
{
name = bottom;
pos = (241,0);
},
{
name = top;
pos = (356,481);
}
);
guides = (
{
pos = (506,273);
userData = {
UFO.identifier = ekDTT1ueO0;
};
}
);
layerId = m001;
shapes = (
{
closed = 1;
nodes = (
(108,0,l),
(187,367,l),
(227,420,o),
(280,445,o),
(344,445,cs),
(428,445,o),
(474,381,o),
(453,283,cs),
(392,0,l),
(441,0,l),
(502,286,ls),
(527,405,o),
(465,489,o),
(355,489,cs),
(292,489,o),
(242,467,o),
(197,415,c),
(211,481,l),
(162,481,l),
(59,0,l)
);
}
);
userData = {
com.typemytype.robofont.guideline.showMeasurements.ekDTT1ueO0 = 1;
};
width = 600;
},
{
anchors = (
{
name = bottom;
pos = (242,0);
},
{
name = top;
pos = (351,516);
}
);
guides = (
{
angle = 90;
pos = (290,261);
userData = {
UFO.identifier = ekDTT1ueO0;
};
}
);
layerId = "E1238894-54FF-4BF5-8428-CDF6AE3ED177";
shapes = (
{
closed = 1;
nodes = (
(163,0,l),
(241,358,l),
(268,385,o),
(295,397,o),
(326,397,cs),
(380,397,o),
(408,356,o),
(395,297,cs),
(331,0,l),
(490,0,l),
(562,337,ls),
(586,447,o),
(531,522,o),
(427,522,cs),
(364,522,o),
(306,492,o),
(258,436,c),
(275,516,l),
(116,516,l),
(4,0,l)
);
}
);
userData = {
com.typemytype.robofont.guideline.showMeasurements.ekDTT1ueO0 = 1;
};
width = 600;
},
{
anchors = (
{
name = bottom;
pos = (249,0);
},
{
name = top;
pos = (363,488);
}
);
guides = (
{
angle = 78;
pos = (547,452);
userData = {
UFO.identifier = ekDTT1ueO0;
};
}
);
layerId = "73361422-4D71-4ED1-86BB-2DC193C1BE05";
shapes = (
{
closed = 1;
nodes = (
(120,0,l),
(197,361,l),
(236,410,o),
(286,436,o),
(340,436,cs),
(418,436,o),
(458,377,o),
(439,287,cs),
(378,0,l),
(451,0,l),
(514,298,ls),
(539,415,o),
(479,496,o),
(370,496,cs),
(309,496,o),
(254,468,o),
(208,413,c),
(224,488,l),
(151,488,l),
(47,0,l)
);
}
);
userData = {
com.typemytype.robofont.guideline.showMeasurements.ekDTT1ueO0 = 1;
};
width = 600;
}
);
unicode = 110;
},
{
glyphname = eng;
kernLeft = n;
kernRight = n;
lastChange = "2024-10-14 19:30:53 +0000";
layers = (
{
layerId = m001;
shapes = (
{
closed = 1;
nodes = (
(361,-219,o),
(404,-182,o),
(418,-115,cs),
(502,286,ls),
(527,405,o),
(465,489,o),
(355,489,cs),
(292,489,o),
(242,467,o),
(197,415,c),
(211,481,l),
(162,481,l),
(59,0,l),
(108,0,l),
(187,367,l),
(227,420,o),
(280,446,o),
(344,446,cs),
(428,446,o),
(474,381,o),
(453,283,cs),
(372,-101,ls),
(361,-151,o),
(337,-173,o),
(288,-173,cs),
(267,-173,o),
(246,-169,o),
(225,-161,c),
(214,-207,l),
(237,-214,o),
(261,-219,o),
(286,-219,cs)
);
}
);
width = 600;
},
{
layerId = "E1238894-54FF-4BF5-8428-CDF6AE3ED177";
shapes = (
{
closed = 1;
nodes = (
(394,-219,o),
(462,-159,o),
(485,-52,cs),
(569,337,ls),
(593,447,o),
(538,522,o),
(434,522,cs),
(372,522,o),
(315,493,o),
(266,438,c),
(283,516,l),
(121,516,l),
(11,0,l),
(173,0,l),
(250,360,l),
(276,385,o),
(303,397,o),
(333,397,cs),
(387,397,o),
(415,356,o),
(402,297,cs),
(328,-42,ls),
(321,-72,o),
(303,-86,o),
(269,-86,cs),
(250,-86,o),
(234,-82,o),
(221,-77,c),
(201,-204,l),
(217,-212,o),
(256,-219,o),
(290,-219,cs)
);
}
);
width = 600;
},
{
layerId = "73361422-4D71-4ED1-86BB-2DC193C1BE05";
shapes = (
{
closed = 1;
nodes = (
(367,-219,o),
(417,-175,o),
(432,-102,cs),
(516,302,ls),
(540,415,o),
(480,496,o),
(370,496,cs),
(309,496,o),
(254,470,o),
(209,417,c),
(224,488,l),
(151,488,l),
(47,0,l),
(120,0,l),
(198,367,l),
(236,413,o),
(286,436,o),
(339,436,cs),
(419,436,o),
(459,377,o),
(440,287,cs),
(362,-89,ls),
(352,-135,o),
(330,-153,o),
(282,-153,cs),
(263,-153,o),
(243,-149,o),
(224,-143,c),
(211,-207,l),
(233,-214,o),
(260,-219,o),
(287,-219,cs)
);
}
);
width = 600;
}
);
unicode = 331;
},
{
glyphname = o;
kernLeft = o;
kernRight = o;
lastChange = "2024-10-14 19:30:53 +0000";
layers = (
{
anchors = (
{
name = top;
pos = (334,476);
}
);
layerId = m001;
shapes = (
{
closed = 1;
nodes = (
(408,-10,o),
(526,121,o),
(526,278,cs),
(526,402,o),
(446,489,o),
(334,489,cs),
(192,489,o),
(74,358,o),
(74,201,cs),
(74,77,o),
(154,-10,o),
(266,-10,cs)
);
},
{
closed = 1;
nodes = (
(181,36,o),
(123,104,o),
(123,202,cs),
(123,335,o),
(218,443,o),
(332,443,cs),
(419,443,o),
(477,375,o),
(477,277,cs),
(477,144,o),
(382,36,o),
(268,36,cs)
);
}
);
width = 600;
},
{
anchors = (
{
name = top;
pos = (327,516);
}
);
layerId = "E1238894-54FF-4BF5-8428-CDF6AE3ED177";
shapes = (
{
closed = 1;
nodes = (
(435,-10,o),
(565,123,o),
(565,284,cs),
(565,423,o),
(463,524,o),
(323,524,cs),
(163,524,o),
(35,393,o),
(35,231,cs),
(35,92,o),
(138,-10,o),
(277,-10,cs)
);
},
{
closed = 1;
nodes = (
(228,127,o),
(191,170,o),
(191,239,cs),
(191,323,o),
(245,389,o),
(313,389,cs),
(372,389,o),
(409,347,o),
(409,280,cs),
(409,192,o),
(357,127,o),
(286,127,cs)
);
}
);
width = 600;
},
{
anchors = (
{
name = top;
pos = (340,484);
}
);
layerId = "73361422-4D71-4ED1-86BB-2DC193C1BE05";
shapes = (
{
closed = 1;
nodes = (
(417,-10,o),
(533,116,o),
(533,269,cs),
(533,402,o),
(447,496,o),
(322,496,cs),
(181,496,o),
(66,371,o),
(66,218,cs),
(66,85,o),
(154,-10,o),
(276,-10,cs)
);
},
{
closed = 1;
nodes = (
(195,55,o),
(137,121,o),
(137,217,cs),
(137,335,o),
(218,431,o),
(319,431,cs),
(404,431,o),
(461,364,o),
(461,267,cs),
(461,149,o),
(381,55,o),
(280,55,cs)
);
}
);
width = 600;
}
);
unicode = 111;
},
{
glyphname = oslash;
kernLeft = o;
kernRight = o;
lastChange = "2024-10-14 19:30:53 +0000";
layers = (
{
layerId = m001;
shapes = (
{
closed = 1;
nodes = (
(408,-10,o),
(526,121,o),
(526,278,cs),
(526,330,o),
(512,375,o),
(488,410,c),
(554,481,l),
(497,481,l),
(460,442,l),
(427,472,o),
(384,489,o),
(334,489,cs),
(192,489,o),
(74,358,o),
(74,201,cs),
(74,150,o),
(88,105,o),
(112,70,c),
(46,0,l),
(103,0,l),
(139,38,l),
(172,8,o),
(216,-10,o),
(266,-10,cs)
);
},
{
closed = 1;
nodes = (
(131,133,o),
(123,165,o),
(123,202,cs),
(123,335,o),
(218,443,o),
(332,443,cs),
(370,443,o),
(403,430,o),
(427,407,c),
(146,107,l)
);
},
{
closed = 1;
nodes = (
(229,36,o),
(196,49,o),
(172,73,c),
(453,374,l),
(469,347,o),
(477,314,o),
(477,277,cs),
(477,144,o),
(382,36,o),
(268,36,cs)
);
}
);
width = 600;
},
{
layerId = "E1238894-54FF-4BF5-8428-CDF6AE3ED177";
shapes = (
{
closed = 1;
nodes = (
(435,-10,o),
(565,123,o),
(565,284,cs),
(565,335,o),
(551,381,o),
(527,419,c),
(631,516,l),
(522,516,l),
(477,474,l),
(436,506,o),
(383,524,o),
(323,524,cs),
(163,524,o),
(35,393,o),
(35,231,cs),
(35,180,o),
(49,135,o),
(73,97,c),
(-31,0,l),
(76,0,l),
(122,42,l),
(163,9,o),
(217,-10,o),
(277,-10,cs)
);
},
{
closed = 1;
nodes = (
(192,219,o),
(191,228,o),
(191,239,cs),
(191,323,o),
(245,389,o),
(313,389,cs),
(335,389,o),
(353,383,o),
(368,373,c),
(194,209,l)
);
},
{
closed = 1;
nodes = (
(264,127,o),
(246,133,o),
(231,144,c),
(407,307,l),
(408,299,o),
(409,290,o),
(409,280,cs),
(409,192,o),
(357,127,o),
(286,127,cs)
);
}
);
width = 600;
},
{
layerId = "73361422-4D71-4ED1-86BB-2DC193C1BE05";
shapes = (
{
closed = 1;
nodes = (
(417,-10,o),
(533,116,o),
(533,269,cs),
(533,323,o),
(519,370,o),
(494,407,c),
(572,488,l),
(497,488,l),
(458,448,l),
(423,478,o),
(376,496,o),
(322,496,cs),
(181,496,o),
(66,371,o),
(66,218,cs),
(66,165,o),
(80,117,o),
(105,80,c),
(28,0,l),
(103,0,l),
(141,39,l),
(176,8,o),
(223,-10,o),
(276,-10,cs)
);
},
{
closed = 1;
nodes = (
(143,156,o),
(137,185,o),
(137,217,cs),
(137,335,o),
(218,431,o),
(319,431,cs),
(355,431,o),
(386,419,o),
(410,397,c),
(155,132,l)
);
},
{
closed = 1;
nodes = (
(244,55,o),
(212,67,o),
(188,89,c),
(443,353,l),
(455,329,o),
(461,300,o),
(461,267,cs),
(461,149,o),
(381,55,o),
(280,55,cs)
);
}
);
width = 600;
}
);
unicode = 248;
},
{
glyphname = oe;
kernLeft = o;
kernRight = e;
lastChange = "2024-10-14 19:30:53 +0000";
layers = (
{
layerId = m001;
shapes = (
{
closed = 1;
nodes = (
(532,443,o),
(552,382,o),
(537,272,c),
(341,272,l),
(369,372,o),
(427,443,o),
(481,443,cs)
);
},
{
closed = 1;
nodes = (
(92,36,o),
(64,84,o),
(64,164,cs),
(64,302,o),
(142,443,o),
(218,443,cs),
(265,443,o),
(293,395,o),
(293,314,cs),
(293,177,o),
(215,36,o),
(139,36,cs)
);
},
{
closed = 1;
nodes = (
(188,-10,o),
(245,33,o),
(285,106,c),
(300,32,o),
(345,-10,o),
(407,-10,cs),
(449,-10,o),
(493,7,o),
(532,39,c),
(506,75,l),
(480,52,o),
(441,36,o),
(412,36,cs),
(356,36,o),
(326,81,o),
(326,164,cs),
(326,186,o),
(328,209,o),
(332,231,c),
(576,231,l),
(585,277,o),
(589,306,o),
(589,336,cs),
(589,438,o),
(554,489,o),
(484,489,cs),
(429,489,o),
(373,446,o),
(333,372,c),
(319,445,o),
(276,489,o),
(221,489,cs),
(114,489,o),
(15,333,o),
(15,164,cs),
(15,60,o),
(62,-10,o),
(132,-10,cs)
);
}
);
width = 600;
},
{
layerId = "E1238894-54FF-4BF5-8428-CDF6AE3ED177";
shapes = (
{
closed = 1;
nodes = (
(473,403,o),
(479,369,o),
(468,307,c),
(397,307,l),
(411,368,o),
(430,403,o),
(451,403,cs)
);
},
{
closed = 1;
nodes = (
(162,115,o),
(153,135,o),
(153,174,cs),
(153,285,o),
(191,401,o),
(228,401,cs),
(245,401,o),
(254,381,o),
(254,342,cs),
(254,231,o),
(216,115,o),
(179,115,cs)
);
},
{
closed = 1;
nodes = (
(206,-10,o),
(248,10,o),
(284,49,c),
(312,11,o),
(354,-9,o),
(407,-9,cs),
(462,-9,o),
(509,12,o),
(559,59,c),
(483,150,l),
(459,126,o),
(441,116,o),
(423,116,cs),
(398,116,o),
(384,143,o),
(384,193,cs),
(384,206,o),
(384,212,o),
(385,218,c),
(584,218,l),
(598,286,o),
(601,318,o),
(601,347,cs),
(601,457,o),
(554,525,o),
(469,525,cs),
(422,525,o),
(378,504,o),
(341,464,c),
(316,503,o),
(277,524,o),
(227,524,cs),
(104,524,o),
(11,376,o),
(11,178,cs),
(11,60,o),
(66,-10,o),
(159,-10,cs)
);
}
);
width = 600;
},
{
layerId = "73361422-4D71-4ED1-86BB-2DC193C1BE05";
shapes = (
{
closed = 1;
nodes = (
(520,435,o),
(542,377,o),
(522,280,c),
(344,280,l),
(368,370,o),
(418,435,o),
(464,435,cs)
);
},
{
closed = 1;
nodes = (
(107,54,o),
(82,99,o),
(82,172,cs),
(82,304,o),
(148,434,o),
(214,434,cs),
(254,434,o),
(279,389,o),
(279,315,cs),
(279,184,o),
(213,54,o),
(147,54,cs)
);
},
{
closed = 1;
nodes = (
(192,-10,o),
(243,27,o),
(280,87,c),
(300,24,o),
(347,-10,o),
(416,-10,cs),
(459,-10,o),
(499,2,o),
(540,26,c),
(512,84,l),
(484,65,o),
(449,54,o),
(417,54,cs),
(362,54,o),
(330,99,o),
(330,177,cs),
(330,194,o),
(331,211,o),
(334,228,c),
(577,228,l),
(589,279,o),
(593,309,o),
(593,337,cs),
(593,436,o),
(547,496,o),
(471,496,cs),
(416,496,o),
(366,459,o),
(329,401,c),
(311,462,o),
(273,496,o),
(220,496,cs),
(110,496,o),
(15,347,o),
(15,173,cs),
(15,60,o),
(62,-10,o),
(136,-10,cs)
);
}
);
width = 600;
}
);
unicode = 339;
},
{
glyphname = p;
kernLeft = n;
kernRight = o;
lastChange = "2024-10-14 19:30:53 +0000";
layers = (
{
layerId = m001;
shapes = (
{
closed = 1;
nodes = (
(56,-209,l),
(117,76,l),
(159,22,o),
(214,-8,o),
(283,-8,cs),
(422,-8,o),
(536,115,o),
(536,266,cs),
(536,394,o),
(453,487,o),
(333,487,c),
(279,487,o),
(233,469,o),
(192,429,c),
(203,481,l),
(155,481,l),
(7,-209,l)
);
},
{
closed = 1;
nodes = (
(216,38,o),
(155,74,o),
(128,126,c),
(183,385,l),
(221,423,o),
(265,441,o),
(317,441,c),
(419,441,o),
(487,369,o),
(487,261,cs),
(487,137,o),
(396,38,o),
(280,38,cs)
);
}
);
width = 600;
},
{
layerId = "E1238894-54FF-4BF5-8428-CDF6AE3ED177";
shapes = (
{
closed = 1;
nodes = (
(117,-209,l),
(176,64,l),
(204,22,o),
(258,-3,o),
(314,-3,cs),
(455,-3,o),
(568,132,o),
(568,290,cs),
(568,417,o),
(487,519,o),
(384,519,c),
(340,519,o),
(299,506,o),
(262,468,c),
(271,516,l),
(114,516,l),
(-42,-209,l)
);
},
{
closed = 1;
nodes = (
(250,127,o),
(220,141,o),
(198,166,c),
(240,359,l),
(263,380,o),
(292,392,o),
(320,392,c),
(380,392,o),
(413,343,o),
(413,280,cs),
(413,194,o),
(358,127,o),
(284,127,cs)
);
}
);
width = 600;
},
{
layerId = "73361422-4D71-4ED1-86BB-2DC193C1BE05";
shapes = (
{
closed = 1;
nodes = (
(66,-209,l),
(128,79,l),
(161,24,o),
(217,-7,o),
(286,-7,cs),
(425,-7,o),
(539,119,o),
(539,272,cs),
(539,400,o),
(456,494,o),
(344,494,c),
(289,494,o),
(241,473,o),
(203,435,c),
(214,488,l),
(143,488,l),
(-6,-209,l)
);
},
{
closed = 1;
nodes = (
(219,57,o),
(164,89,o),
(140,138,c),
(192,379,l),
(227,413,o),
(271,432,o),
(318,432,c),
(407,432,o),
(468,365,o),
(468,266,cs),
(468,149,o),
(384,57,o),
(277,57,cs)
);
}
);
width = 600;
}
);
unicode = 112;
},
{
glyphname = thorn;
kernLeft = b;
kernRight = o;
lastChange = "2024-10-14 19:30:53 +0000";
layers = (
{
layerId = m001;
shapes = (
{
closed = 1;
nodes = (
(54,-209,l),
(116,77,l),
(158,22,o),
(213,-8,o),
(283,-8,cs),
(422,-8,o),
(536,115,o),
(536,266,cs),
(536,394,o),
(453,487,o),
(338,487,cs),
(275,487,o),
(229,466,o),
(192,429,c),
(257,737,l),
(205,725,l),
(5,-209,l)
);
},
{
closed = 1;
nodes = (
(215,38,o),
(153,75,o),
(127,127,c),
(182,384,l),
(219,421,o),
(264,441,o),
(322,441,cs),
(419,441,o),
(487,369,o),
(487,261,cs),
(487,137,o),
(396,38,o),
(280,38,cs)
);
}
);
width = 600;
},
{
layerId = "E1238894-54FF-4BF5-8428-CDF6AE3ED177";
shapes = (
{
closed = 1;
nodes = (
(118,-209,l),
(176,63,l),
(205,22,o),
(258,-3,o),
(314,-3,cs),
(455,-3,o),
(568,132,o),
(568,290,cs),
(568,417,o),
(487,519,o),
(384,519,cs),
(341,519,o),
(300,507,o),
(263,470,c),
(320,737,l),
(156,712,l),
(-41,-209,l)
);
},
{
closed = 1;
nodes = (
(250,127,o),
(220,141,o),
(198,165,c),
(239,359,l),
(263,380,o),
(292,392,o),
(320,392,cs),
(380,392,o),
(413,343,o),
(413,280,cs),
(413,194,o),
(358,127,o),
(284,127,cs)
);
}
);
width = 600;
},
{
layerId = "73361422-4D71-4ED1-86BB-2DC193C1BE05";
shapes = (
{
closed = 1;
nodes = (
(67,-209,l),
(128,78,l),
(162,24,o),
(218,-7,o),
(286,-7,cs),
(425,-7,o),
(539,119,o),
(539,272,cs),
(539,400,o),
(456,494,o),
(344,494,cs),
(290,494,o),
(243,474,o),
(205,438,c),
(269,737,l),
(193,722,l),
(-6,-209,l)
);
},
{
closed = 1;
nodes = (
(219,57,o),
(165,89,o),
(141,136,c),
(193,380,l),
(228,413,o),
(272,432,o),
(318,432,cs),
(407,432,o),
(468,365,o),
(468,266,cs),
(468,149,o),
(384,57,o),
(277,57,cs)
);
}
);
width = 600;
}
);
unicode = 254;
},
{
glyphname = q;
kernLeft = o;
kernRight = q;
lastChange = "2024-10-14 19:30:53 +0000";
layers = (
{
layerId = m001;
shapes = (
{
closed = 1;
nodes = (
(401,-209,l),
(549,481,l),
(500,481,l),
(483,404,l),
(441,457,o),
(386,487,o),
(317,487,cs),
(178,487,o),
(64,364,o),
(64,213,cs),
(64,85,o),
(147,-8,o),
(267,-8,cs),
(321,-8,o),
(366,10,o),
(407,49,c),
(352,-209,l)
);
},
{
closed = 1;
nodes = (
(181,38,o),
(113,110,o),
(113,218,cs),
(113,342,o),
(204,441,o),
(320,441,cs),
(384,441,o),
(445,405,o),
(472,354,c),
(417,94,l),
(378,56,o),
(335,38,o),
(283,38,cs)
);
}
);
width = 600;
},
{
layerId = "E1238894-54FF-4BF5-8428-CDF6AE3ED177";
shapes = (
{
closed = 1;
nodes = (
(441,-209,l),
(595,516,l),
(438,516,l),
(426,457,l),
(397,496,o),
(345,519,o),
(291,519,cs),
(150,519,o),
(31,384,o),
(31,226,cs),
(31,99,o),
(106,-3,o),
(209,-3,cs),
(256,-3,o),
(299,11,o),
(338,55,c),
(282,-209,l)
);
},
{
closed = 1;
nodes = (
(219,124,o),
(186,173,o),
(186,236,cs),
(186,322,o),
(241,389,o),
(315,389,cs),
(349,389,o),
(379,375,o),
(401,350,c),
(360,157,l),
(336,136,o),
(307,124,o),
(279,124,cs)
);
}
);
width = 600;
},
{
layerId = "73361422-4D71-4ED1-86BB-2DC193C1BE05";
shapes = (
{
closed = 1;
nodes = (
(414,-209,l),
(562,488,l),
(491,488,l),
(474,404,l),
(443,460,o),
(385,494,o),
(313,494,cs),
(174,494,o),
(60,368,o),
(60,214,cs),
(60,87,o),
(143,-7,o),
(255,-7,cs),
(310,-7,o),
(358,14,o),
(396,51,c),
(341,-209,l)
);
},
{
closed = 1;
nodes = (
(192,55,o),
(131,122,o),
(131,220,cs),
(131,338,o),
(215,430,o),
(322,430,cs),
(381,430,o),
(435,397,o),
(459,348,c),
(409,109,l),
(373,74,o),
(328,55,o),
(281,55,cs)
);
}
);
width = 600;
}
);
unicode = 113;
},
{
glyphname = r;
kernLeft = n;
kernRight = r;
lastChange = "2024-10-14 19:30:53 +0000";
layers = (
{
anchors = (
{
name = bottom;
pos = (217,0);
},
{
name = top;
pos = (417,481);
}
);
layerId = m001;
shapes = (
{
closed = 1;
nodes = (
(389,0,l),
(398,43,l),
(249,43,l),
(309,322,l),
(354,400,o),
(418,444,o),
(501,444,cs),
(533,444,o),
(558,436,o),
(585,421,c),
(595,467,l),
(566,481,o),
(534,489,o),
(501,489,cs),
(423,489,o),
(361,446,o),
(321,376,c),
(343,481,l),
(154,481,l),
(145,438,l),
(285,438,l),
(200,43,l),
(61,43,l),
(52,0,l)
);
}
);
width = 600;
},
{
anchors = (
{
name = bottom;
pos = (193,0);
},
{
name = top;
pos = (458,516);
}
);
layerId = "E1238894-54FF-4BF5-8428-CDF6AE3ED177";
shapes = (
{
closed = 1;
nodes = (
(394,0,l),
(421,125,l),
(303,125,l),
(345,324,l),
(383,364,o),
(431,384,o),
(478,384,cs),
(512,384,o),
(568,369,o),
(589,355,c),
(621,505,l),
(601,519,o),
(579,526,o),
(541,526,cs),
(470,526,o),
(414,487,o),
(360,393,c),
(386,516,l),
(112,516,l),
(85,391,l),
(197,391,l),
(141,125,l),
(29,125,l),
(2,0,l)
);
}
);
width = 600;
},
{
anchors = (
{
name = bottom;
pos = (212,0);
},
{
name = top;
pos = (425,488);
}
);
layerId = "73361422-4D71-4ED1-86BB-2DC193C1BE05";
shapes = (
{
closed = 1;
nodes = (
(390,0,l),
(403,60,l),
(261,60,l),
(316,321,l),
(360,393,o),
(417,432,o),
(492,432,cs),
(518,432,o),
(548,427,o),
(586,406,c),
(600,473,l),
(570,489,o),
(536,496,o),
(507,496,cs),
(428,496,o),
(369,453,o),
(329,378,c),
(352,488,l),
(145,488,l),
(132,428,l),
(266,428,l),
(188,60,l),
(54,60,l),
(41,0,l)
);
}
);
width = 600;
}
);
unicode = 114;
},
{
glyphname = s;
kernLeft = s;
kernRight = s;
lastChange = "2024-10-14 19:30:53 +0000";
layers = (
{
anchors = (
{
name = bottom;
pos = (273,0);
},
{
name = top;
pos = (312,481);
}
);
layerId = m001;
shapes = (
{
closed = 1;
nodes = (
(398,-10,o),
(475,49,o),
(475,132,c),
(475,319,o),
(168,216,o),
(168,357,cs),
(168,411,o),
(217,445,o),
(295,445,cs),
(351,445,o),
(412,419,o),
(464,369,c),
(498,406,l),
(439,465,o),
(366,489,o),
(290,489,cs),
(183,489,o),
(120,433,o),
(120,352,cs),
(120,170,o),
(427,266,o),
(427,132,c),
(427,73,o),
(374,34,o),
(290,34,cs),
(219,34,o),
(168,58,o),
(109,116,c),
(73,85,l),
(126,25,o),
(203,-10,o),
(284,-10,cs)
);
}
);
width = 600;
},
{
anchors = (
{
name = bottom;
pos = (279,0);
},
{
name = top;
pos = (312,516);
}
);
layerId = "E1238894-54FF-4BF5-8428-CDF6AE3ED177";
shapes = (
{
closed = 1;
nodes = (
(413,-11,o),
(513,63,o),
(513,169,c),
(513,354,o),
(228,296,o),
(228,371,cs),
(228,395,o),
(251,408,o),
(296,408,cs),
(351,408,o),
(409,383,o),
(465,339,c),
(541,439,l),
(477,492,o),
(392,525,o),
(302,525,cs),
(166,525,o),
(88,459,o),
(88,356,cs),
(88,157,o),
(365,230,o),
(365,151,c),
(365,126,o),
(334,108,o),
(290,108,cs),
(231,108,o),
(169,130,o),
(101,187,c),
(26,81,l),
(88,26,o),
(188,-11,o),
(283,-11,cs)
);
}
);
width = 600;
},
{
anchors = (
{
name = bottom;
pos = (270,0);
},
{
name = top;
pos = (312,488);
}
);
layerId = "73361422-4D71-4ED1-86BB-2DC193C1BE05";
shapes = (
{
closed = 1;
nodes = (
(401,-10,o),
(483,53,o),
(483,140,c),
(483,325,o),
(178,234,o),
(178,359,cs),
(178,405,o),
(222,436,o),
(295,436,cs),
(351,436,o),
(412,410,o),
(464,362,c),
(507,412,l),
(447,470,o),
(371,496,o),
(292,496,cs),
(179,496,o),
(113,437,o),
(113,352,cs),
(113,167,o),
(415,256,o),
(415,136,c),
(415,84,o),
(366,49,o),
(290,49,cs),
(227,49,o),
(173,68,o),
(107,131,c),
(63,84,l),
(118,25,o),
(200,-10,o),
(284,-10,cs)
);
}
);
width = 600;
}
);
unicode = 115;
},
{
glyphname = scedilla;
kernLeft = s;
kernRight = s;
lastChange = "2024-10-14 19:30:53 +0000";
layers = (
{
layerId = m001;
shapes = (
{
closed = 1;
nodes = (
(293,-235,o),
(341,-195,o),
(341,-138,c),
(341,-99,o),
(313,-72,o),
(260,-68,c),
(286,-10,l),
(398,-10,o),
(475,49,o),
(475,132,c),
(475,319,o),
(168,216,o),
(168,357,cs),
(168,411,o),
(217,445,o),
(295,445,cs),
(351,445,o),
(412,419,o),
(464,369,c),
(498,406,l),
(439,465,o),
(366,489,o),
(290,489,cs),
(183,489,o),
(120,433,o),
(120,352,cs),
(120,170,o),
(427,266,o),
(427,132,c),
(427,73,o),
(374,34,o),
(290,34,cs),
(219,34,o),
(168,58,o),
(109,116,c),
(73,85,l),
(119,33,o),
(184,-1,o),
(253,-8,c),
(214,-96,l),
(238,-96,ls),
(279,-96,o),
(306,-113,o),
(306,-144,c),
(306,-178,o),
(279,-204,o),
(229,-204,c),
(200,-204,o),
(177,-194,o),
(156,-171,c),
(132,-195,l),
(150,-217,o),
(185,-235,o),
(231,-235,c)
);
}
);
width = 600;
},
{
layerId = "E1238894-54FF-4BF5-8428-CDF6AE3ED177";
shapes = (
{
closed = 1;
nodes = (
(315,-253,o),
(376,-201,o),
(376,-136,c),
(376,-94,o),
(345,-66,o),
(291,-59,c),
(313,-10,l),
(428,1,o),
(513,71,o),
(513,169,c),
(513,354,o),
(228,296,o),
(228,371,cs),
(228,395,o),
(251,408,o),
(296,408,cs),
(351,408,o),
(409,383,o),
(465,339,c),
(541,439,l),
(477,492,o),
(392,525,o),
(302,525,cs),
(166,525,o),
(88,459,o),
(88,356,cs),
(88,157,o),
(365,230,o),
(365,151,c),
(365,126,o),
(334,108,o),
(290,108,cs),
(231,108,o),
(169,130,o),
(101,187,c),
(26,81,l),
(79,34,o),
(159,0,o),
(240,-9,c),
(197,-109,l),
(238,-109,ls),
(269,-109,o),
(289,-123,o),
(289,-144,c),
(289,-167,o),
(268,-182,o),
(236,-182,c),
(206,-182,o),
(178,-170,o),
(159,-150,c),
(104,-205,l),
(134,-238,o),
(178,-253,o),
(238,-253,c)
);
}
);
width = 600;
},
{
layerId = "73361422-4D71-4ED1-86BB-2DC193C1BE05";
shapes = (
{
closed = 1;
nodes = (
(293,-239,o),
(343,-195,o),
(343,-138,c),
(343,-99,o),
(313,-70,o),
(262,-66,c),
(287,-10,l),
(401,-10,o),
(483,53,o),
(483,140,c),
(483,325,o),
(178,234,o),
(178,359,cs),
(178,405,o),
(222,436,o),
(295,436,cs),
(351,436,o),
(412,410,o),
(464,362,c),
(507,412,l),
(447,470,o),
(371,496,o),
(292,496,cs),
(179,496,o),
(113,437,o),
(113,352,cs),
(113,167,o),
(415,256,o),
(415,136,c),
(415,84,o),
(366,49,o),
(290,49,cs),
(227,49,o),
(173,68,o),
(107,131,c),
(63,84,l),
(110,34,o),
(176,1,o),
(246,-8,c),
(205,-99,l),
(233,-99,ls),
(273,-99,o),
(297,-116,o),
(297,-144,c),
(297,-177,o),
(269,-199,o),
(225,-199,c),
(196,-199,o),
(172,-189,o),
(152,-167,c),
(121,-197,l),
(143,-224,o),
(182,-239,o),
(227,-239,c)
);
}
);
width = 600;
}
);
unicode = 351;
},
{
glyphname = germandbls;
kernLeft = b;
kernRight = s;
lastChange = "2024-10-14 19:30:53 +0000";
layers = (
{
layerId = m001;
shapes = (
{
closed = 1;
nodes = (
(458,-10,o),
(531,52,o),
(531,132,cs),
(531,293,o),
(324,244,o),
(324,352,cs),
(324,435,o),
(543,425,o),
(543,582,cs),
(543,668,o),
(475,737,o),
(375,737,cs),
(255,737,o),
(171,665,o),
(140,521,cs),
(28,0,l),
(77,0,l),
(188,516,ls),
(214,636,o),
(279,691,o),
(378,691,cs),
(448,691,o),
(496,642,o),
(496,586,cs),
(496,449,o),
(277,476,o),
(277,346,cs),
(277,213,o),
(484,252,o),
(484,137,cs),
(484,78,o),
(433,36,o),
(355,36,c),
(298,36,o),
(247,54,o),
(220,92,c),
(182,66,l),
(218,15,o),
(285,-10,o),
(355,-10,c)
);
}
);
width = 600;
},
{
layerId = "E1238894-54FF-4BF5-8428-CDF6AE3ED177";
shapes = (
{
closed = 1;
nodes = (
(494,-11,o),
(586,64,o),
(586,164,cs),
(586,300,o),
(425,292,o),
(425,345,cs),
(425,400,o),
(590,403,o),
(590,559,cs),
(590,664,o),
(492,737,o),
(364,737,cs),
(220,737,o),
(130,655,o),
(104,533,cs),
(-9,0,l),
(152,0,l),
(261,513,ls),
(274,572,o),
(300,603,o),
(353,603,cs),
(405,603,o),
(431,574,o),
(431,535,cs),
(431,452,o),
(272,448,o),
(272,323,cs),
(272,209,o),
(437,217,o),
(437,150,cs),
(437,127,o),
(414,103,o),
(376,103,c),
(340,103,o),
(305,125,o),
(278,158,c),
(194,65,l),
(231,17,o),
(293,-11,o),
(372,-11,c)
);
}
);
width = 600;
},
{
layerId = "73361422-4D71-4ED1-86BB-2DC193C1BE05";
shapes = (
{
closed = 1;
nodes = (
(472,-11,o),
(542,56,o),
(542,136,cs),
(542,296,o),
(345,282,o),
(345,357,cs),
(345,428,o),
(542,435,o),
(542,580,cs),
(542,676,o),
(464,737,o),
(368,737,cs),
(239,737,o),
(161,665,o),
(134,536,cs),
(20,0,l),
(93,0,l),
(205,527,ls),
(226,625,o),
(281,674,o),
(368,674,cs),
(433,674,o),
(475,633,o),
(475,580,cs),
(475,471,o),
(279,480,o),
(279,356,cs),
(279,228,o),
(475,250,o),
(475,137,cs),
(475,85,o),
(432,47,o),
(367,47,c),
(314,47,o),
(266,67,o),
(238,108,c),
(192,65,l),
(233,13,o),
(298,-11,o),
(366,-11,c)
);
}
);
width = 600;
}
);
unicode = 223;
},
{
glyphname = t;
kernLeft = t;
kernRight = t_1;
lastChange = "2024-10-14 19:30:53 +0000";
layers = (
{
anchors = (
{
name = bottom;
pos = (305,0);
}
);
layerId = m001;
shapes = (
{
closed = 1;
nodes = (
(373,-10,o),
(416,-1,o),
(454,15,c),
(465,64,l),
(413,44,o),
(377,36,o),
(338,36,cs),
(264,36,o),
(233,63,o),
(247,130,cs),
(313,438,l),
(545,438,l),
(554,481,l),
(322,481,l),
(353,625,l),
(301,612,l),
(273,481,l),
(101,481,l),
(92,438,l),
(264,438,l),
(196,122,ls),
(178,37,o),
(227,-10,o),
(333,-10,cs)
);
}
);
width = 600;
},
{
anchors = (
{
name = bottom;
pos = (305,0);
}
);
layerId = "E1238894-54FF-4BF5-8428-CDF6AE3ED177";
shapes = (
{
closed = 1;
nodes = (
(389,-7,o),
(450,2,o),
(482,14,c),
(510,145,l),
(473,134,o),
(436,129,o),
(406,129,cs),
(341,129,o),
(313,152,o),
(327,217,cs),
(364,391,l),
(559,391,l),
(586,516,l),
(391,516,l),
(428,692,l),
(259,659,l),
(228,516,l),
(78,516,l),
(51,391,l),
(202,391,l),
(162,205,ls),
(133,71,o),
(201,-7,o),
(346,-7,cs)
);
}
);
width = 600;
},
{
anchors = (
{
name = bottom;
pos = (317,0);
}
);
layerId = "73361422-4D71-4ED1-86BB-2DC193C1BE05";
shapes = (
{
closed = 1;
nodes = (
(380,-10,o),
(421,-2,o),
(460,14,c),
(474,80,l),
(425,62,o),
(389,54,o),
(352,54,cs),
(279,54,o),
(249,80,o),
(263,145,cs),
(323,428,l),
(548,428,l),
(561,488,l),
(336,488,l),
(368,639,l),
(291,622,l),
(263,488,l),
(96,488,l),
(83,428,l),
(250,428,l),
(191,148,ls),
(171,53,o),
(227,-10,o),
(341,-10,cs)
);
}
);
width = 600;
}
);
unicode = 116;
},
{
glyphname = tbar;
kernLeft = t;
kernRight = t_1;
lastChange = "2024-10-14 19:30:53 +0000";
layers = (
{
guides = (
{
angle = 258;
pos = (133,387);
userData = {
UFO.identifier = vMTTnQQWsZ;
};
},
{
angle = 258;
pos = (591,411);
userData = {
UFO.identifier = ezjVn0LWT7;
};
}
);
layerId = m001;
shapes = (
{
closed = 1;
nodes = (
(54,258,l),
(225,258,l),
(196,122,ls),
(178,37,o),
(227,-10,o),
(333,-10,cs),
(373,-10,o),
(416,-1,o),
(454,15,c),
(465,64,l),
(413,44,o),
(377,36,o),
(338,36,cs),
(264,36,o),
(233,63,o),
(247,130,cs),
(274,258,l),
(507,258,l),
(516,298,l),
(283,298,l),
(313,438,l),
(545,438,l),
(554,481,l),
(322,481,l),
(353,625,l),
(301,612,l),
(273,481,l),
(101,481,l),
(92,438,l),
(264,438,l),
(234,298,l),
(63,298,l)
);
}
);
width = 600;
},
{
layerId = "E1238894-54FF-4BF5-8428-CDF6AE3ED177";
shapes = (
{
closed = 1;
nodes = (
(13,217,l),
(165,217,l),
(162,205,ls),
(133,71,o),
(201,-7,o),
(346,-7,cs),
(389,-7,o),
(450,2,o),
(482,14,c),
(510,145,l),
(473,134,o),
(436,129,o),
(406,129,cs),
(343,129,o),
(314,151,o),
(326,212,cs),
(327,217,l),
(524,217,l),
(546,318,l),
(348,318,l),
(364,391,l),
(559,391,l),
(586,516,l),
(391,516,l),
(428,692,l),
(259,659,l),
(228,516,l),
(78,516,l),
(51,391,l),
(202,391,l),
(186,318,l),
(35,318,l)
);
}
);
width = 600;
},
{
guides = (
{
angle = 78;
pos = (79,408);
userData = {
UFO.identifier = vMTTnQQWsZ;
};
},
{
angle = 78;
pos = (552,442);
userData = {
UFO.identifier = ezjVn0LWT7;
};
}
);
layerId = "73361422-4D71-4ED1-86BB-2DC193C1BE05";
shapes = (
{
closed = 1;
nodes = (
(47,251,l),
(213,251,l),
(191,148,ls),
(171,53,o),
(227,-10,o),
(341,-10,cs),
(380,-10,o),
(421,-2,o),
(460,14,c),
(474,80,l),
(425,62,o),
(389,54,o),
(352,54,cs),
(279,54,o),
(249,80,o),
(263,145,cs),
(285,251,l),
(511,251,l),
(523,305,l),
(297,305,l),
(323,428,l),
(548,428,l),
(561,488,l),
(336,488,l),
(368,639,l),
(291,622,l),
(263,488,l),
(96,488,l),
(83,428,l),
(250,428,l),
(224,305,l),
(58,305,l)
);
}
);
width = 600;
}
);
unicode = 359;
},
{
glyphname = tcaron;
kernLeft = t;
kernRight = t_1;
lastChange = "2024-10-14 19:30:53 +0000";
layers = (
{
layerId = m001;
shapes = (
{
closed = 1;
nodes = (
(467,549,l),
(526,737,l),
(471,725,l),
(431,549,l)
);
},
{
ref = t;
}
);
width = 600;
},
{
layerId = "E1238894-54FF-4BF5-8428-CDF6AE3ED177";
shapes = (
{
closed = 1;
nodes = (
(551,578,l),
(637,807,l),
(512,782,l),
(462,578,l)
);
},
{
ref = t;
}
);
width = 600;
},
{
layerId = "73361422-4D71-4ED1-86BB-2DC193C1BE05";
shapes = (
{
closed = 1;
nodes = (
(503,577,l),
(573,787,l),
(494,773,l),
(445,577,l)
);
},
{
ref = t;
}
);
width = 600;
}
);
unicode = 357;
},
{
glyphname = tcedilla;
kernLeft = t;
kernRight = t_1;
lastChange = "2024-10-14 19:30:53 +0000";
layers = (
{
layerId = m001;
shapes = (
{
closed = 1;
nodes = (
(325,-235,o),
(373,-195,o),
(373,-138,c),
(373,-99,o),
(345,-72,o),
(292,-68,c),
(318,-10,l),
(323,-10,o),
(328,-10,o),
(333,-10,cs),
(373,-10,o),
(416,-1,o),
(454,15,c),
(465,64,l),
(413,44,o),
(377,36,o),
(338,36,cs),
(264,36,o),
(233,63,o),
(247,130,cs),
(313,438,l),
(545,438,l),
(554,481,l),
(322,481,l),
(353,625,l),
(301,612,l),
(273,481,l),
(101,481,l),
(92,438,l),
(264,438,l),
(196,122,ls),
(181,51,o),
(213,6,o),
(286,-6,c),
(246,-96,l),
(270,-96,ls),
(311,-96,o),
(338,-113,o),
(338,-144,c),
(338,-178,o),
(311,-204,o),
(261,-204,c),
(232,-204,o),
(209,-194,o),
(188,-171,c),
(164,-195,l),
(182,-217,o),
(217,-235,o),
(263,-235,c)
);
}
);
width = 600;
},
{
layerId = "E1238894-54FF-4BF5-8428-CDF6AE3ED177";
shapes = (
{
closed = 1;
nodes = (
(341,-253,o),
(402,-201,o),
(402,-136,c),
(402,-94,o),
(371,-66,o),
(317,-59,c),
(340,-7,l),
(342,-7,o),
(344,-7,o),
(346,-7,cs),
(389,-7,o),
(450,2,o),
(482,14,c),
(510,145,l),
(473,134,o),
(436,129,o),
(406,129,cs),
(341,129,o),
(313,152,o),
(327,217,cs),
(364,391,l),
(559,391,l),
(586,516,l),
(391,516,l),
(428,692,l),
(259,659,l),
(228,516,l),
(78,516,l),
(51,391,l),
(202,391,l),
(162,205,ls),
(139,97,o),
(178,25,o),
(271,2,c),
(223,-109,l),
(264,-109,ls),
(295,-109,o),
(315,-123,o),
(315,-144,c),
(315,-167,o),
(294,-182,o),
(262,-182,c),
(232,-182,o),
(204,-170,o),
(185,-150,c),
(130,-205,l),
(160,-238,o),
(204,-253,o),
(264,-253,c)
);
}
);
width = 600;
},
{
layerId = "73361422-4D71-4ED1-86BB-2DC193C1BE05";
shapes = (
{
closed = 1;
nodes = (
(340,-239,o),
(390,-195,o),
(390,-138,c),
(390,-99,o),
(360,-70,o),
(309,-66,c),
(334,-10,l),
(336,-10,o),
(339,-10,o),
(341,-10,cs),
(380,-10,o),
(421,-2,o),
(460,14,c),
(474,80,l),
(425,62,o),
(389,54,o),
(352,54,cs),
(279,54,o),
(249,80,o),
(263,145,cs),
(323,428,l),
(548,428,l),
(561,488,l),
(336,488,l),
(368,639,l),
(291,622,l),
(263,488,l),
(96,488,l),
(83,428,l),
(250,428,l),
(191,148,ls),
(174,67,o),
(212,10,o),
(293,-6,c),
(252,-99,l),
(280,-99,ls),
(320,-99,o),
(344,-116,o),
(344,-144,c),
(344,-177,o),
(316,-199,o),
(272,-199,c),
(243,-199,o),
(219,-189,o),
(199,-167,c),
(168,-197,l),
(190,-224,o),
(229,-239,o),
(274,-239,c)
);
}
);
width = 600;
}
);
unicode = 355;
},
{
glyphname = u;
kernLeft = u;
kernRight = q;
lastChange = "2024-10-14 19:30:53 +0000";
layers = (
{
anchors = (
{
name = bottom;
pos = (438,0);
},
{
name = top;
pos = (351,481);
}
);
layerId = m001;
shapes = (
{
closed = 1;
nodes = (
(310,-8,o),
(359,15,o),
(403,68,c),
(389,0,l),
(438,0,l),
(541,481,l),
(492,481,l),
(414,115,l),
(373,62,o),
(322,36,o),
(258,36,cs),
(174,36,o),
(129,100,o),
(150,198,cs),
(211,481,l),
(162,481,l),
(101,195,ls),
(76,76,o),
(137,-8,o),
(247,-8,cs)
);
}
);
width = 600;
},
{
anchors = (
{
name = bottom;
pos = (484,0);
},
{
name = top;
pos = (344,516);
}
);
layerId = "E1238894-54FF-4BF5-8428-CDF6AE3ED177";
shapes = (
{
closed = 1;
nodes = (
(236,-6,o),
(294,24,o),
(342,80,c),
(325,0,l),
(484,0,l),
(596,516,l),
(437,516,l),
(359,158,l),
(332,131,o),
(305,119,o),
(274,119,cs),
(220,119,o),
(192,160,o),
(205,219,cs),
(269,516,l),
(110,516,l),
(38,179,ls),
(14,69,o),
(69,-6,o),
(173,-6,cs)
);
}
);
width = 600;
},
{
anchors = (
{
name = bottom;
pos = (449,0);
},
{
name = top;
pos = (351,488);
}
);
layerId = "73361422-4D71-4ED1-86BB-2DC193C1BE05";
shapes = (
{
closed = 1;
nodes = (
(291,-8,o),
(346,20,o),
(392,75,c),
(376,0,l),
(449,0,l),
(553,488,l),
(480,488,l),
(403,127,l),
(364,78,o),
(314,52,o),
(260,52,cs),
(182,52,o),
(142,111,o),
(161,201,cs),
(222,488,l),
(149,488,l),
(86,190,ls),
(61,73,o),
(121,-8,o),
(230,-8,cs)
);
}
);
width = 600;
}
);
unicode = 117;
},
{
glyphname = uogonek;
kernLeft = u;
kernRight = q;
lastChange = "2024-10-14 19:30:53 +0000";
layers = (
{
layerId = m001;
shapes = (
{
closed = 1;
nodes = (
(379,-232,o),
(400,-227,o),
(415,-220,c),
(412,-188,l),
(399,-193,o),
(380,-197,o),
(366,-197,cs),
(328,-197,o),
(301,-176,o),
(301,-146,cs),
(301,-102,o),
(332,-56,o),
(438,0,c),
(541,481,l),
(492,481,l),
(414,115,l),
(373,62,o),
(322,36,o),
(258,36,cs),
(174,36,o),
(129,100,o),
(150,198,cs),
(211,481,l),
(162,481,l),
(101,195,ls),
(76,76,o),
(137,-8,o),
(247,-8,cs),
(310,-8,o),
(359,15,o),
(403,68,c),
(389,0,l),
(390,0,l),
(303,-47,o),
(261,-97,o),
(261,-154,cs),
(261,-195,o),
(293,-232,o),
(358,-232,cs)
);
}
);
width = 600;
},
{
layerId = "E1238894-54FF-4BF5-8428-CDF6AE3ED177";
shapes = (
{
closed = 1;
nodes = (
(410,-231,o),
(446,-222,o),
(471,-208,c),
(466,-138,l),
(455,-145,o),
(437,-149,o),
(419,-149,cs),
(394,-149,o),
(379,-136,o),
(379,-113,cs),
(379,-76,o),
(414,-38,o),
(484,0,c),
(596,516,l),
(437,516,l),
(359,158,l),
(332,131,o),
(305,119,o),
(274,119,cs),
(220,119,o),
(192,160,o),
(205,219,cs),
(269,516,l),
(110,516,l),
(38,179,ls),
(14,69,o),
(69,-6,o),
(173,-6,cs),
(236,-6,o),
(294,24,o),
(342,80,c),
(325,0,l),
(403,0,l),
(325,-47,o),
(287,-97,o),
(287,-153,cs),
(287,-201,o),
(321,-231,o),
(375,-231,cs)
);
}
);
width = 600;
},
{
layerId = "73361422-4D71-4ED1-86BB-2DC193C1BE05";
shapes = (
{
closed = 1;
nodes = (
(386,-232,o),
(410,-227,o),
(428,-218,c),
(424,-178,l),
(411,-183,o),
(392,-187,o),
(378,-187,cs),
(343,-187,o),
(318,-168,o),
(318,-139,cs),
(318,-92,o),
(360,-48,o),
(449,0,c),
(553,488,l),
(480,488,l),
(403,127,l),
(364,78,o),
(314,52,o),
(260,52,cs),
(182,52,o),
(142,111,o),
(161,201,cs),
(222,488,l),
(149,488,l),
(86,190,ls),
(61,73,o),
(121,-8,o),
(230,-8,cs),
(291,-8,o),
(346,20,o),
(392,75,c),
(376,0,l),
(389,0,l),
(307,-48,o),
(267,-99,o),
(267,-154,cs),
(267,-201,o),
(305,-232,o),
(362,-232,cs)
);
}
);
width = 600;
}
);
unicode = 371;
},
{
glyphname = v;
kernRight = v;
lastChange = "2024-10-14 19:30:53 +0000";
layers = (
{
layerId = m001;
shapes = (
{
closed = 1;
nodes = (
(268,0,l),
(584,481,l),
(526,481,l),
(258,62,l),
(165,481,l),
(118,481,l),
(223,0,l)
);
}
);
width = 600;
},
{
layerId = "E1238894-54FF-4BF5-8428-CDF6AE3ED177";
shapes = (
{
closed = 1;
nodes = (
(318,0,l),
(637,516,l),
(468,516,l),
(283,189,l),
(238,516,l),
(71,516,l),
(164,0,l)
);
}
);
width = 600;
},
{
layerId = "73361422-4D71-4ED1-86BB-2DC193C1BE05";
shapes = (
{
closed = 1;
nodes = (
(281,0,l),
(597,488,l),
(515,488,l),
(265,84,l),
(180,488,l),
(107,488,l),
(211,0,l)
);
}
);
width = 600;
}
);
unicode = 118;
},
{
glyphname = w;
kernLeft = w;
kernRight = w;
lastChange = "2024-10-14 19:30:53 +0000";
layers = (
{
anchors = (
{
name = top;
pos = (348,481);
}
);
guides = (
{
pos = (316,75);
userData = {
UFO.identifier = pHAQBMzM8L;
};
},
{
pos = (348,481);
userData = {
UFO.identifier = 6gMS6SOYhM;
};
}
);
layerId = m001;
shapes = (
{
closed = 1;
nodes = (
(144,0,l),
(337,409,l),
(353,0,l),
(401,0,l),
(606,481,l),
(557,481,l),
(392,73,l),
(372,481,l),
(325,481,l),
(135,75,l),
(141,481,l),
(95,481,l),
(95,0,l)
);
}
);
width = 600;
},
{
anchors = (
{
name = top;
pos = (354,516);
}
);
layerId = "E1238894-54FF-4BF5-8428-CDF6AE3ED177";
shapes = (
{
closed = 1;
nodes = (
(186,0,l),
(310,307,l),
(305,0,l),
(433,0,l),
(640,516,l),
(516,516,l),
(411,224,l),
(412,516,l),
(300,516,l),
(176,222,l),
(194,516,l),
(69,516,l),
(57,0,l)
);
}
);
width = 600;
},
{
anchors = (
{
name = top;
pos = (355,488);
}
);
layerId = "73361422-4D71-4ED1-86BB-2DC193C1BE05";
shapes = (
{
closed = 1;
nodes = (
(153,0,l),
(333,392,l),
(344,0,l),
(408,0,l),
(609,488,l),
(546,488,l),
(398,101,l),
(385,488,l),
(320,488,l),
(142,101,l),
(159,488,l),
(95,488,l),
(84,0,l)
);
}
);
width = 600;
}
);
unicode = 119;
},
{
glyphname = x;
kernRight = k;
lastChange = "2024-10-14 19:30:53 +0000";
layers = (
{
layerId = m001;
shapes = (
{
closed = 1;
nodes = (
(82,0,l),
(300,215,l),
(422,0,l),
(479,0,l),
(336,244,l),
(578,481,l),
(515,481,l),
(313,282,l),
(200,481,l),
(143,481,l),
(277,253,l),
(19,0,l)
);
}
);
width = 600;
},
{
layerId = "E1238894-54FF-4BF5-8428-CDF6AE3ED177";
shapes = (
{
closed = 1;
nodes = (
(144,0,l),
(274,144,l),
(344,0,l),
(517,0,l),
(383,256,l),
(629,516,l),
(442,516,l),
(321,380,l),
(255,516,l),
(82,516,l),
(211,269,l),
(-42,0,l)
);
}
);
width = 600;
},
{
layerId = "73361422-4D71-4ED1-86BB-2DC193C1BE05";
shapes = (
{
closed = 1;
nodes = (
(94,0,l),
(294,200,l),
(409,0,l),
(491,0,l),
(346,247,l),
(589,488,l),
(500,488,l),
(314,302,l),
(211,488,l),
(129,488,l),
(262,256,l),
(5,0,l)
);
}
);
width = 600;
}
);
unicode = 120;
},
{
glyphname = y;
kernLeft = y;
kernRight = v;
lastChange = "2024-10-14 19:30:53 +0000";
layers = (
{
anchors = (
{
name = top;
pos = (343,481);
}
);
guides = (
{
pos = (343,481);
userData = {
UFO.identifier = Vjf2ni5vua;
};
}
);
layerId = m001;
shapes = (
{
closed = 1;
nodes = (
(124,-219,o),
(152,-199,o),
(197,-127,cs),
(575,481,l),
(519,481,l),
(253,56,l),
(167,481,l),
(118,481,l),
(215,-7,l),
(154,-108,ls),
(126,-154,o),
(100,-173,o),
(66,-173,cs),
(45,-173,o),
(28,-168,o),
(5,-155,c),
(-5,-204,l),
(23,-214,o),
(45,-219,o),
(65,-219,cs)
);
}
);
width = 600;
},
{
anchors = (
{
name = top;
pos = (333,516);
}
);
layerId = "E1238894-54FF-4BF5-8428-CDF6AE3ED177";
shapes = (
{
closed = 1;
nodes = (
(162,-219,o),
(218,-178,o),
(278,-78,cs),
(635,516,l),
(464,516,l),
(266,163,l),
(231,516,l),
(69,516,l),
(144,-16,l),
(132,-36,ls),
(111,-71,o),
(98,-79,o),
(61,-79,cs),
(33,-79,o),
(-6,-69,o),
(-39,-54,c),
(-68,-188,l),
(-27,-209,o),
(29,-219,o),
(64,-219,cs)
);
}
);
width = 600;
},
{
anchors = (
{
name = top;
pos = (351,488);
}
);
layerId = "73361422-4D71-4ED1-86BB-2DC193C1BE05";
shapes = (
{
closed = 1;
nodes = (
(124,-219,o),
(164,-197,o),
(213,-117,cs),
(583,488,l),
(504,488,l),
(256,77,l),
(182,488,l),
(107,488,l),
(200,-9,l),
(149,-93,ls),
(123,-136,o),
(103,-150,o),
(65,-150,cs),
(45,-150,o),
(21,-144,o),
(-5,-132,c),
(-19,-201,l),
(6,-212,o),
(33,-219,o),
(57,-219,cs)
);
}
);
width = 600;
}
);
unicode = 121;
},
{
glyphname = z;
kernLeft = z;
kernRight = z;
lastChange = "2024-10-14 19:30:53 +0000";
layers = (
{
anchors = (
{
name = top;
pos = (350,481);
}
);
guides = (
{
pos = (350,481);
userData = {
UFO.identifier = sH4Iq6QwTo;
};
}
);
layerId = m001;
shapes = (
{
closed = 1;
nodes = (
(442,0,l),
(452,46,l),
(129,46,l),
(535,440,l),
(544,481,l),
(157,481,l),
(147,435,l),
(463,435,l),
(58,42,l),
(49,0,l)
);
}
);
width = 600;
},
{
anchors = (
{
name = top;
pos = (345,516);
}
);
layerId = "E1238894-54FF-4BF5-8428-CDF6AE3ED177";
shapes = (
{
closed = 1;
nodes = (
(488,0,l),
(517,135,l),
(245,133,l),
(568,403,l),
(592,516,l),
(113,516,l),
(85,380,l),
(345,382,l),
(24,113,l),
(0,0,l)
);
}
);
width = 600;
},
{
anchors = (
{
name = top;
pos = (355,488);
}
);
layerId = "73361422-4D71-4ED1-86BB-2DC193C1BE05";
shapes = (
{
closed = 1;
nodes = (
(451,0,l),
(465,66,l),
(155,65,l),
(542,431,l),
(554,488,l),
(154,488,l),
(141,421,l),
(442,422,l),
(57,58,l),
(45,0,l)
);
}
);
width = 600;
}
);
unicode = 122;
},
{
glyphname = g.alt;
kernLeft = g.alt;
kernRight = g.alt;
lastChange = "2024-10-14 19:30:53 +0000";
layers = (
{
anchors = (
{
name = top;
pos = (327,481);
}
);
layerId = m001;
shapes = (
{
closed = 1;
nodes = (
(369,-219,o),
(466,-162,o),
(466,-83,cs),
(466,-23,o),
(426,16,o),
(358,23,cs),
(189,41,ls),
(154,45,o),
(137,61,o),
(137,83,cs),
(137,113,o),
(172,139,o),
(220,144,c),
(242,136,o),
(265,131,o),
(290,131,cs),
(400,131,o),
(493,225,o),
(493,326,cs),
(493,352,o),
(487,375,o),
(477,397,c),
(482,439,o),
(511,466,o),
(549,466,cs),
(565,466,o),
(578,463,o),
(591,460,c),
(601,514,l),
(591,516,o),
(576,518,o),
(566,518,cs),
(510,518,o),
(470,485,o),
(459,425,c),
(428,464,o),
(379,489,o),
(322,489,cs),
(212,489,o),
(119,395,o),
(119,294,cs),
(119,238,o),
(146,190,o),
(189,161,c),
(131,150,o),
(88,111,o),
(88,69,cs),
(88,42,o),
(103,20,o),
(130,7,c),
(50,-15,o),
(18,-44,o),
(18,-93,cs),
(18,-164,o),
(96,-219,o),
(234,-219,cs)
);
},
{
closed = 1;
nodes = (
(220,175,o),
(168,224,o),
(168,295,cs),
(168,376,o),
(238,445,o),
(320,445,cs),
(392,445,o),
(444,396,o),
(444,325,cs),
(444,244,o),
(374,175,o),
(292,175,cs)
);
},
{
closed = 1;
nodes = (
(127,-178,o),
(68,-145,o),
(68,-92,cs),
(68,-50,o),
(102,-20,o),
(167,-5,c),
(171,-5,o),
(174,-6,o),
(177,-6,cs),
(343,-23,ls),
(391,-28,o),
(416,-45,o),
(416,-82,cs),
(416,-136,o),
(339,-178,o),
(236,-178,cs)
);
}
);
width = 600;
},
{
anchors = (
{
name = top;
pos = (316,516);
}
);
layerId = "E1238894-54FF-4BF5-8428-CDF6AE3ED177";
shapes = (
{
closed = 1;
nodes = (
(408,-219,o),
(528,-147,o),
(528,-38,cs),
(528,25,o),
(475,66,o),
(379,77,cs),
(198,94,ls),
(168,97,o),
(153,106,o),
(153,121,cs),
(153,138,o),
(165,150,o),
(186,156,c),
(215,147,o),
(247,142,o),
(280,142,cs),
(424,142,o),
(536,232,o),
(536,347,cs),
(536,371,o),
(531,393,o),
(521,414,c),
(536,421,o),
(552,424,o),
(568,424,cs),
(590,424,o),
(616,419,o),
(632,412,c),
(658,538,l),
(644,544,o),
(636,545,o),
(621,545,cs),
(573,545,o),
(534,514,o),
(498,448,c),
(457,496,o),
(387,524,o),
(307,524,cs),
(167,524,o),
(53,431,o),
(53,316,cs),
(53,255,o),
(89,201,o),
(152,170,c),
(70,160,o),
(17,114,o),
(17,53,cs),
(17,24,o),
(32,1,o),
(61,-15,c),
(-21,-25,o),
(-68,-58,o),
(-68,-104,cs),
(-68,-174,o),
(48,-219,o),
(226,-219,cs)
);
},
{
closed = 1;
nodes = (
(235,248,o),
(201,279,o),
(201,323,cs),
(201,374,o),
(245,414,o),
(302,414,cs),
(351,414,o),
(386,383,o),
(386,340,cs),
(386,289,o),
(341,248,o),
(285,248,cs)
);
},
{
closed = 1;
nodes = (
(137,-122,o),
(77,-102,o),
(77,-69,cs),
(77,-53,o),
(87,-40,o),
(104,-32,c),
(123,-38,o),
(145,-42,o),
(170,-44,cs),
(327,-58,ls),
(350,-61,o),
(362,-68,o),
(362,-79,cs),
(362,-105,o),
(312,-122,o),
(236,-122,cs)
);
}
);
width = 600;
},
{
anchors = (
{
name = top;
pos = (320,488);
}
);
layerId = "73361422-4D71-4ED1-86BB-2DC193C1BE05";
shapes = (
{
closed = 1;
nodes = (
(385,-219,o),
(479,-159,o),
(479,-67,cs),
(479,-17,o),
(443,16,o),
(372,25,cs),
(191,49,ls),
(157,53,o),
(140,66,o),
(140,87,cs),
(140,116,o),
(173,139,o),
(219,143,c),
(239,136,o),
(262,132,o),
(285,132,cs),
(405,132,o),
(502,222,o),
(502,332,cs),
(502,360,o),
(494,386,o),
(481,409,c),
(491,440,o),
(519,460,o),
(553,460,cs),
(570,460,o),
(586,457,o),
(599,453,c),
(613,522,l),
(602,525,o),
(588,527,o),
(577,527,cs),
(521,527,o),
(480,492,o),
(464,433,c),
(431,471,o),
(380,496,o),
(322,496,cs),
(202,496,o),
(105,406,o),
(105,296,cs),
(105,240,o),
(136,190,o),
(184,161,c),
(120,150,o),
(73,110,o),
(73,62,cs),
(73,34,o),
(89,12,o),
(118,-2,c),
(41,-21,o),
(0,-56,o),
(0,-103,cs),
(0,-174,o),
(94,-219,o),
(240,-219,cs)
);
},
{
closed = 1;
nodes = (
(226,188,o),
(175,239,o),
(175,301,cs),
(175,378,o),
(239,440,o),
(318,440,cs),
(381,440,o),
(432,389,o),
(432,327,cs),
(432,250,o),
(368,188,o),
(289,188,cs)
);
},
{
closed = 1;
nodes = (
(137,-166,o),
(70,-136,o),
(70,-89,cs),
(70,-54,o),
(102,-27,o),
(154,-14,c),
(161,-16,o),
(168,-17,o),
(175,-18,cs),
(352,-39,ls),
(386,-43,o),
(404,-62,o),
(404,-86,cs),
(404,-133,o),
(339,-166,o),
(244,-166,cs)
);
}
);
width = 600;
}
);
},
{
color = (116,212,255,255);
glyphname = gcommaaccent.alt;
kernLeft = g.alt;
kernRight = g.alt;
lastChange = "2024-10-14 19:30:53 +0000";
layers = (
{
layerId = m001;
shapes = (
{
closed = 1;
nodes = (
(424,785,l),
(326,605,l),
(382,605,l),
(463,785,l)
);
},
{
ref = g.alt;
}
);
width = 600;
},
{
layerId = "E1238894-54FF-4BF5-8428-CDF6AE3ED177";
shapes = (
{
closed = 1;
nodes = (
(423,842,l),
(283,627,l),
(424,627,l),
(532,842,l)
);
},
{
ref = g.alt;
}
);
width = 600;
},
{
layerId = "73361422-4D71-4ED1-86BB-2DC193C1BE05";
shapes = (
{
closed = 1;
nodes = (
(419,797,l),
(308,610,l),
(385,610,l),
(472,797,l)
);
},
{
ref = g.alt;
}
);
width = 600;
}
);
},
{
glyphname = a.school;
kernLeft = o;
kernRight = q;
lastChange = "2024-10-14 19:30:53 +0000";
layers = (
{
anchors = (
{
name = bottom;
pos = (447,0);
},
{
name = top;
pos = (341,481);
}
);
guides = (
{
pos = (569,128);
userData = {
UFO.identifier = iu2Xtq9RMY;
};
}
);
layerId = m001;
shapes = (
{
closed = 1;
nodes = (
(322,-8,o),
(368,10,o),
(409,51,c),
(398,0,l),
(447,0,l),
(550,481,l),
(501,481,l),
(484,402,l),
(442,457,o),
(387,487,o),
(317,487,cs),
(178,487,o),
(64,364,o),
(64,213,cs),
(64,85,o),
(147,-8,o),
(267,-8,c)
);
},
{
closed = 1;
nodes = (
(181,38,o),
(113,110,o),
(113,218,cs),
(113,342,o),
(204,441,o),
(320,441,cs),
(385,441,o),
(447,404,o),
(473,352,c),
(419,96,l),
(380,56,o),
(336,38,o),
(283,38,c)
);
}
);
width = 600;
},
{
anchors = (
{
name = bottom;
pos = (486,0);
},
{
name = top;
pos = (321,516);
}
);
layerId = "E1238894-54FF-4BF5-8428-CDF6AE3ED177";
shapes = (
{
closed = 1;
nodes = (
(263,-3,o),
(305,17,o),
(342,59,c),
(329,0,l),
(486,0,l),
(595,516,l),
(437,516,l),
(425,458,l),
(396,496,o),
(345,519,o),
(291,519,cs),
(150,519,o),
(31,384,o),
(31,226,cs),
(31,99,o),
(106,-3,o),
(209,-3,c)
);
},
{
closed = 1;
nodes = (
(219,124,o),
(186,173,o),
(186,236,cs),
(186,322,o),
(241,389,o),
(315,389,cs),
(350,389,o),
(379,375,o),
(402,349,c),
(362,159,l),
(338,137,o),
(308,124,o),
(279,124,c)
);
}
);
width = 600;
},
{
anchors = (
{
name = bottom;
pos = (457,0);
},
{
name = top;
pos = (339,488);
}
);
layerId = "73361422-4D71-4ED1-86BB-2DC193C1BE05";
shapes = (
{
closed = 1;
nodes = (
(311,-7,o),
(358,13,o),
(397,51,c),
(386,0,l),
(457,0,l),
(561,488,l),
(490,488,l),
(473,407,l),
(439,463,o),
(383,494,o),
(314,494,cs),
(175,494,o),
(61,368,o),
(61,215,cs),
(61,87,o),
(144,-7,o),
(256,-7,c)
);
},
{
closed = 1;
nodes = (
(193,55,o),
(132,122,o),
(132,221,cs),
(132,338,o),
(216,430,o),
(323,430,cs),
(382,430,o),
(436,397,o),
(460,349,c),
(409,109,l),
(373,74,o),
(329,55,o),
(282,55,c)
);
}
);
width = 600;
}
);
},
{
glyphname = aogonek.school;
kernLeft = o;
kernRight = q;
lastChange = "2024-10-14 19:30:53 +0000";
layers = (
{
layerId = m001;
shapes = (
{
closed = 1;
nodes = (
(388,-232,o),
(409,-227,o),
(424,-220,c),
(421,-188,l),
(408,-193,o),
(389,-197,o),
(375,-197,cs),
(337,-197,o),
(310,-176,o),
(310,-146,cs),
(310,-102,o),
(341,-56,o),
(447,0,c),
(550,481,l),
(501,481,l),
(484,402,l),
(442,457,o),
(387,487,o),
(317,487,cs),
(178,487,o),
(64,364,o),
(64,213,cs),
(64,85,o),
(147,-8,o),
(267,-8,c),
(322,-8,o),
(368,10,o),
(409,51,c),
(398,0,l),
(399,0,l),
(312,-47,o),
(270,-97,o),
(270,-154,cs),
(270,-195,o),
(302,-232,o),
(367,-232,cs)
);
},
{
closed = 1;
nodes = (
(181,38,o),
(113,110,o),
(113,218,cs),
(113,342,o),
(204,441,o),
(320,441,cs),
(385,441,o),
(447,404,o),
(473,352,c),
(419,96,l),
(380,56,o),
(336,38,o),
(283,38,c)
);
}
);
width = 600;
},
{
layerId = "E1238894-54FF-4BF5-8428-CDF6AE3ED177";
shapes = (
{
closed = 1;
nodes = (
(412,-231,o),
(448,-222,o),
(473,-208,c),
(468,-138,l),
(457,-145,o),
(439,-149,o),
(421,-149,cs),
(396,-149,o),
(381,-136,o),
(381,-113,cs),
(381,-76,o),
(416,-38,o),
(486,0,c),
(595,516,l),
(437,516,l),
(425,458,l),
(396,496,o),
(345,519,o),
(291,519,cs),
(150,519,o),
(31,384,o),
(31,226,cs),
(31,99,o),
(106,-3,o),
(209,-3,c),
(263,-3,o),
(305,17,o),
(342,59,c),
(329,0,l),
(405,0,l),
(327,-47,o),
(289,-97,o),
(289,-153,cs),
(289,-201,o),
(323,-231,o),
(377,-231,cs)
);
},
{
closed = 1;
nodes = (
(219,124,o),
(186,173,o),
(186,236,cs),
(186,322,o),
(241,389,o),
(315,389,cs),
(350,389,o),
(379,375,o),
(402,349,c),
(362,159,l),
(338,137,o),
(308,124,o),
(279,124,c)
);
}
);
width = 600;
},
{
layerId = "73361422-4D71-4ED1-86BB-2DC193C1BE05";
shapes = (
{
closed = 1;
nodes = (
(394,-232,o),
(418,-227,o),
(436,-218,c),
(432,-178,l),
(419,-183,o),
(400,-187,o),
(386,-187,cs),
(351,-187,o),
(326,-168,o),
(326,-139,cs),
(326,-92,o),
(368,-48,o),
(457,0,c),
(561,488,l),
(490,488,l),
(473,407,l),
(439,463,o),
(383,494,o),
(314,494,cs),
(175,494,o),
(61,368,o),
(61,215,cs),
(61,87,o),
(144,-7,o),
(256,-7,c),
(311,-7,o),
(358,13,o),
(397,51,c),
(386,0,l),
(397,0,l),
(315,-48,o),
(275,-99,o),
(275,-154,cs),
(275,-201,o),
(313,-232,o),
(370,-232,cs)
);
},
{
closed = 1;
nodes = (
(193,55,o),
(132,122,o),
(132,221,cs),
(132,338,o),
(216,430,o),
(323,430,cs),
(382,430,o),
(436,397,o),
(460,349,c),
(409,109,l),
(373,74,o),
(329,55,o),
(282,55,c)
);
}
);
width = 600;
}
);
},
{
export = 0;
glyphname = fi;
kernLeft = t;
kernRight = d;
lastChange = "2024-11-15 13:44:44 +0000";
layers = (
{
anchors = (
{
name = caret_1;
pos = (300,0);
}
);
layerId = m001;
shapes = (
{
closed = 1;
nodes = (
(142,0,l),
(236,438,l),
(385,438,l),
(395,481,l),
(246,481,l),
(272,603,ls),
(285,663,o),
(309,690,o),
(363,690,cs),
(387,690,o),
(404,687,o),
(427,677,c),
(436,724,l),
(416,733,o),
(394,737,o),
(368,737,cs),
(293,737,o),
(242,691,o),
(224,607,cs),
(197,481,l),
(80,481,l),
(70,438,l),
(188,438,l),
(93,0,l)
);
},
{
closed = 1;
nodes = (
(586,605,o),
(612,631,o),
(612,660,cs),
(612,687,o),
(589,710,o),
(562,710,cs),
(531,710,o),
(505,683,o),
(505,655,cs),
(505,626,o),
(526,605,o),
(554,605,cs)
);
},
{
closed = 1;
nodes = (
(448,0,l),
(551,481,l),
(502,481,l),
(399,0,l)
);
}
);
width = 600;
},
{
anchors = (
{
name = caret_1;
pos = (300,0);
}
);
layerId = "E1238894-54FF-4BF5-8428-CDF6AE3ED177";
shapes = (
{
closed = 1;
nodes = (
(191,0,l),
(274,391,l),
(384,391,l),
(411,516,l),
(301,516,l),
(314,581,ls),
(323,619,o),
(345,637,o),
(384,637,cs),
(399,637,o),
(412,635,o),
(435,631,c),
(462,760,l),
(445,765,o),
(414,770,o),
(389,770,cs),
(268,770,o),
(188,703,o),
(162,580,cs),
(149,516,l),
(62,516,l),
(35,391,l),
(122,391,l),
(39,0,l)
);
},
{
closed = 1;
nodes = (
(615,598,o),
(660,643,o),
(660,698,cs),
(660,742,o),
(625,776,o),
(581,776,cs),
(529,776,o),
(482,729,o),
(482,675,cs),
(482,631,o),
(515,598,o),
(560,598,cs)
);
},
{
closed = 1;
nodes = (
(500,0,l),
(610,516,l),
(458,516,l),
(348,0,l)
);
}
);
width = 600;
},
{
anchors = (
{
name = caret_1;
pos = (300,0);
}
);
layerId = "73361422-4D71-4ED1-86BB-2DC193C1BE05";
shapes = (
{
closed = 1;
nodes = (
(153,0,l),
(244,428,l),
(383,428,l),
(396,488,l),
(257,488,l),
(278,586,ls),
(290,644,o),
(320,671,o),
(376,671,cs),
(398,671,o),
(413,668,o),
(433,662,c),
(447,728,l),
(431,734,o),
(410,737,o),
(383,737,cs),
(289,737,o),
(225,683,o),
(205,587,cs),
(184,488,l),
(75,488,l),
(62,428,l),
(171,428,l),
(80,0,l)
);
},
{
closed = 1;
nodes = (
(594,604,o),
(625,635,o),
(625,670,cs),
(625,702,o),
(599,728,o),
(567,728,cs),
(530,728,o),
(498,696,o),
(498,661,cs),
(498,629,o),
(523,604,o),
(556,604,cs)
);
},
{
closed = 1;
nodes = (
(458,0,l),
(562,488,l),
(489,488,l),
(385,0,l)
);
}
);
width = 600;
}
);
unicode = 64257;
},
{
export = 0;
glyphname = fl;
kernLeft = t;
kernRight = d;
lastChange = "2024-11-15 13:44:44 +0000";
layers = (
{
anchors = (
{
name = caret_1;
pos = (300,0);
}
);
layerId = m001;
shapes = (
{
closed = 1;
nodes = (
(142,0,l),
(236,438,l),
(385,438,l),
(395,481,l),
(246,481,l),
(272,603,ls),
(285,663,o),
(309,690,o),
(363,690,cs),
(387,690,o),
(404,687,o),
(427,677,c),
(436,724,l),
(416,733,o),
(394,737,o),
(368,737,cs),
(293,737,o),
(242,691,o),
(224,607,cs),
(197,481,l),
(80,481,l),
(70,438,l),
(188,438,l),
(93,0,l)
);
},
{
closed = 1;
nodes = (
(446,0,l),
(601,728,l),
(549,715,l),
(397,0,l)
);
}
);
width = 600;
},
{
anchors = (
{
name = caret_1;
pos = (300,0);
}
);
layerId = "E1238894-54FF-4BF5-8428-CDF6AE3ED177";
shapes = (
{
closed = 1;
nodes = (
(201,0,l),
(284,391,l),
(394,391,l),
(421,516,l),
(311,516,l),
(325,581,ls),
(333,619,o),
(356,637,o),
(395,637,cs),
(410,637,o),
(422,635,o),
(445,631,c),
(473,760,l),
(455,765,o),
(424,770,o),
(399,770,cs),
(278,770,o),
(199,703,o),
(172,580,cs),
(159,516,l),
(72,516,l),
(45,391,l),
(132,391,l),
(49,0,l)
);
},
{
closed = 1;
nodes = (
(510,0,l),
(667,737,l),
(510,714,l),
(358,0,l)
);
}
);
width = 600;
},
{
anchors = (
{
name = caret_1;
pos = (300,0);
}
);
layerId = "73361422-4D71-4ED1-86BB-2DC193C1BE05";
shapes = (
{
closed = 1;
nodes = (
(153,0,l),
(244,428,l),
(383,428,l),
(396,488,l),
(257,488,l),
(278,586,ls),
(290,644,o),
(320,671,o),
(376,671,cs),
(398,671,o),
(413,668,o),
(433,662,c),
(447,728,l),
(431,734,o),
(410,737,o),
(383,737,cs),
(289,737,o),
(225,683,o),
(205,587,cs),
(184,488,l),
(75,488,l),
(62,428,l),
(171,428,l),
(80,0,l)
);
},
{
closed = 1;
nodes = (
(459,0,l),
(615,737,l),
(539,722,l),
(386,0,l)
);
}
);
width = 600;
}
);
unicode = 64258;
},
{
glyphname = ordfeminine;
lastChange = "2024-10-14 19:30:53 +0000";
layers = (
{
layerId = m001;
shapes = (
{
closed = 1;
nodes = (
(348,327,o),
(386,340,o),
(422,366,c),
(414,331,l),
(457,331,l),
(509,576,ls),
(526,659,o),
(473,711,o),
(373,711,cs),
(334,711,o),
(301,704,o),
(246,682,c),
(259,645,l),
(307,665,o),
(336,672,o),
(371,672,cs),
(446,672,o),
(480,636,o),
(466,571,cs),
(452,507,l),
(418,536,o),
(378,550,o),
(330,550,cs),
(237,550,o),
(174,502,o),
(174,430,cs),
(174,369,o),
(228,327,o),
(306,327,cs)
);
},
{
closed = 1;
nodes = (
(254,363,o),
(217,389,o),
(217,432,cs),
(217,483,o),
(260,516,o),
(328,516,cs),
(375,516,o),
(416,501,o),
(445,473,c),
(429,401,l),
(396,375,o),
(360,363,o),
(315,363,cs)
);
}
);
width = 600;
},
{
layerId = "E1238894-54FF-4BF5-8428-CDF6AE3ED177";
shapes = (
{
closed = 1;
nodes = (
(280,295,o),
(316,307,o),
(351,329,c),
(345,302,l),
(469,302,l),
(520,535,ls),
(543,642,o),
(479,708,o),
(352,708,cs),
(293,708,o),
(229,695,o),
(176,674,c),
(206,580,l),
(250,595,o),
(289,602,o),
(323,602,cs),
(381,602,o),
(405,578,o),
(396,535,cs),
(394,524,l),
(359,534,o),
(321,538,o),
(288,538,cs),
(177,538,o),
(118,486,o),
(118,409,cs),
(118,340,o),
(165,295,o),
(243,295,cs)
);
},
{
closed = 1;
nodes = (
(258,384,o),
(236,395,o),
(236,418,cs),
(236,440,o),
(257,457,o),
(301,457,cs),
(323,457,o),
(352,454,o),
(377,448,c),
(367,403,l),
(344,391,o),
(318,384,o),
(295,384,cs)
);
}
);
width = 600;
},
{
layerId = "73361422-4D71-4ED1-86BB-2DC193C1BE05";
shapes = (
{
closed = 1;
nodes = (
(331,319,o),
(369,332,o),
(406,358,c),
(399,326,l),
(459,326,l),
(509,558,ls),
(528,649,o),
(473,711,o),
(371,711,cs),
(331,711,o),
(288,702,o),
(234,681,c),
(247,633,l),
(291,649,o),
(325,658,o),
(356,658,cs),
(433,658,o),
(463,625,o),
(450,564,cs),
(439,513,l),
(408,534,o),
(367,548,o),
(323,548,cs),
(225,548,o),
(160,496,o),
(160,418,cs),
(160,360,o),
(210,319,o),
(290,319,cs)
);
},
{
closed = 1;
nodes = (
(255,367,o),
(221,390,o),
(221,428,cs),
(221,473,o),
(263,504,o),
(321,504,cs),
(370,504,o),
(405,489,o),
(430,468,c),
(415,400,l),
(384,377,o),
(349,367,o),
(311,367,cs)
);
}
);
width = 600;
}
);
unicode = 170;
},
{
glyphname = ordmasculine;
lastChange = "2024-10-14 19:30:53 +0000";
layers = (
{
layerId = m001;
shapes = (
{
closed = 1;
nodes = (
(452,323,o),
(548,423,o),
(548,540,cs),
(548,638,o),
(473,711,o),
(375,711,cs),
(265,711,o),
(170,611,o),
(170,494,cs),
(170,396,o),
(244,323,o),
(342,323,cs)
);
},
{
closed = 1;
nodes = (
(269,364,o),
(216,422,o),
(216,499,cs),
(216,583,o),
(281,670,o),
(376,670,cs),
(449,670,o),
(502,612,o),
(502,535,cs),
(502,451,o),
(437,364,o),
(342,364,cs)
);
}
);
width = 600;
},
{
layerId = "E1238894-54FF-4BF5-8428-CDF6AE3ED177";
shapes = (
{
closed = 1;
nodes = (
(465,294,o),
(567,394,o),
(567,515,cs),
(567,626,o),
(481,708,o),
(365,708,cs),
(238,708,o),
(136,608,o),
(136,487,cs),
(136,376,o),
(222,294,o),
(338,294,cs)
);
},
{
closed = 1;
nodes = (
(293,404,o),
(258,441,o),
(258,492,cs),
(258,550,o),
(302,598,o),
(358,598,cs),
(410,598,o),
(445,561,o),
(445,510,cs),
(445,452,o),
(401,404,o),
(345,404,cs)
);
}
);
width = 600;
},
{
layerId = "73361422-4D71-4ED1-86BB-2DC193C1BE05";
shapes = (
{
closed = 1;
nodes = (
(453,317,o),
(552,417,o),
(552,536,cs),
(552,636,o),
(477,711,o),
(375,711,cs),
(261,711,o),
(162,611,o),
(162,492,cs),
(162,392,o),
(237,317,o),
(339,317,cs)
);
},
{
closed = 1;
nodes = (
(273,372,o),
(224,426,o),
(224,497,cs),
(224,577,o),
(285,656,o),
(372,656,cs),
(441,656,o),
(490,602,o),
(490,531,cs),
(490,452,o),
(429,372,o),
(342,372,cs)
);
}
);
width = 600;
}
);
unicode = 186;
},
{
glyphname = .notdef;
lastChange = "2024-10-14 19:30:53 +0000";
layers = (
{
guides = (
{
angle = 78;
pos = (-606,424);
userData = {
UFO.identifier = ag4Gu1Qc9W;
};
}
);
layerId = m001;
shapes = (
{
closed = 1;
nodes = (
(498,-100,l),
(498,750,l),
(104,750,l),
(104,-100,l)
);
}
);
width = 600;
},
{
layerId = "E1238894-54FF-4BF5-8428-CDF6AE3ED177";
shapes = (
{
closed = 1;
nodes = (
(494,-100,l),
(494,750,l),
(100,750,l),
(100,-100,l)
);
}
);
width = 600;
},
{
layerId = "73361422-4D71-4ED1-86BB-2DC193C1BE05";
shapes = (
{
closed = 1;
nodes = (
(497,-100,l),
(497,750,l),
(103,750,l),
(103,-100,l)
);
}
);
width = 600;
}
);
},
{
glyphname = period;
kernLeft = _period;
kernRight = _period;
lastChange = "2024-10-14 19:30:53 +0000";
layers = (
{
layerId = m001;
shapes = (
{
closed = 1;
nodes = (
(283,-8,o),
(312,21,o),
(312,53,cs),
(312,80,o),
(292,100,o),
(265,100,cs),
(235,100,o),
(206,71,o),
(206,39,cs),
(206,12,o),
(226,-8,o),
(253,-8,cs)
);
}
);
width = 600;
},
{
layerId = "E1238894-54FF-4BF5-8428-CDF6AE3ED177";
shapes = (
{
closed = 1;
nodes = (
(319,-11,o),
(371,43,o),
(371,103,cs),
(371,159,o),
(329,202,o),
(276,202,cs),
(211,202,o),
(159,150,o),
(159,88,cs),
(159,32,o),
(202,-11,o),
(257,-11,cs)
);
}
);
width = 600;
},
{
layerId = "73361422-4D71-4ED1-86BB-2DC193C1BE05";
shapes = (
{
closed = 1;
nodes = (
(291,-9,o),
(324,26,o),
(324,63,cs),
(324,96,o),
(299,121,o),
(267,121,cs),
(229,121,o),
(196,87,o),
(196,49,cs),
(196,16,o),
(221,-9,o),
(254,-9,cs)
);
}
);
width = 600;
}
);
unicode = 46;
},
{
glyphname = comma;
kernLeft = _period;
kernRight = _period;
lastChange = "2024-10-14 19:30:53 +0000";
layers = (
{
layerId = m001;
shapes = (
{
closed = 1;
nodes = (
(179,-152,l),
(304,60,l),
(229,60,l),
(137,-152,l)
);
}
);
width = 600;
},
{
layerId = "E1238894-54FF-4BF5-8428-CDF6AE3ED177";
shapes = (
{
closed = 1;
nodes = (
(181,-177,l),
(366,127,l),
(191,127,l),
(67,-177,l)
);
}
);
width = 600;
},
{
layerId = "73361422-4D71-4ED1-86BB-2DC193C1BE05";
shapes = (
{
closed = 1;
nodes = (
(179,-157,l),
(319,74,l),
(221,74,l),
(122,-157,l)
);
}
);
width = 600;
}
);
unicode = 44;
},
{
glyphname = ellipsis;
kernLeft = _period;
kernRight = _period;
lastChange = "2024-10-14 19:30:53 +0000";
layers = (
{
layerId = m001;
shapes = (
{
closed = 1;
nodes = (
(82,-8,o),
(113,22,o),
(113,54,cs),
(113,83,o),
(90,105,o),
(60,105,cs),
(26,105,o),
(-5,77,o),
(-5,43,cs),
(-5,14,o),
(18,-8,o),
(49,-8,cs)
);
},
{
closed = 1;
nodes = (
(287,-8,o),
(318,22,o),
(318,54,cs),
(318,83,o),
(295,105,o),
(265,105,cs),
(231,105,o),
(200,77,o),
(200,43,cs),
(200,14,o),
(223,-8,o),
(254,-8,cs)
);
},
{
closed = 1;
nodes = (
(492,-8,o),
(523,22,o),
(523,54,cs),
(523,83,o),
(500,105,o),
(470,105,cs),
(436,105,o),
(405,77,o),
(405,43,cs),
(405,14,o),
(428,-8,o),
(459,-8,cs)
);
}
);
width = 600;
},
{
layerId = "E1238894-54FF-4BF5-8428-CDF6AE3ED177";
shapes = (
{
closed = 1;
nodes = (
(103,-11,o),
(143,43,o),
(143,96,cs),
(143,144,o),
(111,180,o),
(70,180,cs),
(17,180,o),
(-23,126,o),
(-23,73,cs),
(-23,25,o),
(9,-11,o),
(50,-11,cs)
);
},
{
closed = 1;
nodes = (
(307,-11,o),
(347,43,o),
(347,96,cs),
(347,144,o),
(315,180,o),
(274,180,cs),
(221,180,o),
(181,126,o),
(181,73,cs),
(181,25,o),
(213,-11,o),
(254,-11,cs)
);
},
{
closed = 1;
nodes = (
(509,-11,o),
(549,43,o),
(549,96,cs),
(549,144,o),
(517,180,o),
(476,180,cs),
(423,180,o),
(383,126,o),
(383,73,cs),
(383,25,o),
(415,-11,o),
(456,-11,cs)
);
}
);
width = 600;
},
{
layerId = "73361422-4D71-4ED1-86BB-2DC193C1BE05";
shapes = (
{
closed = 1;
nodes = (
(86,-9,o),
(119,26,o),
(119,63,cs),
(119,96,o),
(94,121,o),
(62,121,cs),
(24,121,o),
(-9,87,o),
(-9,49,cs),
(-9,16,o),
(16,-9,o),
(49,-9,cs)
);
},
{
closed = 1;
nodes = (
(291,-9,o),
(324,26,o),
(324,63,cs),
(324,96,o),
(299,121,o),
(267,121,cs),
(229,121,o),
(196,87,o),
(196,49,cs),
(196,16,o),
(221,-9,o),
(254,-9,cs)
);
},
{
closed = 1;
nodes = (
(495,-9,o),
(528,26,o),
(528,63,cs),
(528,96,o),
(503,121,o),
(471,121,cs),
(433,121,o),
(400,87,o),
(400,49,cs),
(400,16,o),
(425,-9,o),
(458,-9,cs)
);
}
);
width = 600;
}
);
unicode = 8230;
},
{
glyphname = exclam;
lastChange = "2024-10-14 19:30:53 +0000";
layers = (
{
layerId = m001;
shapes = (
{
closed = 1;
nodes = (
(312,208,l),
(431,727,l),
(378,727,l),
(271,208,l)
);
},
{
closed = 1;
nodes = (
(283,-8,o),
(312,21,o),
(312,53,cs),
(312,80,o),
(292,100,o),
(265,100,cs),
(235,100,o),
(206,71,o),
(206,39,cs),
(206,12,o),
(226,-8,o),
(253,-8,cs)
);
}
);
width = 600;
},
{
layerId = "E1238894-54FF-4BF5-8428-CDF6AE3ED177";
shapes = (
{
closed = 1;
nodes = (
(350,242,l),
(472,727,l),
(316,727,l),
(232,242,l)
);
},
{
closed = 1;
nodes = (
(309,-11,o),
(359,42,o),
(359,101,cs),
(359,151,o),
(324,190,o),
(277,190,cs),
(219,190,o),
(169,139,o),
(169,78,cs),
(169,28,o),
(204,-11,o),
(253,-11,cs)
);
}
);
width = 600;
},
{
layerId = "73361422-4D71-4ED1-86BB-2DC193C1BE05";
shapes = (
{
closed = 1;
nodes = (
(321,215,l),
(441,727,l),
(366,727,l),
(264,215,l)
);
},
{
closed = 1;
nodes = (
(291,-9,o),
(324,26,o),
(324,63,cs),
(324,96,o),
(299,121,o),
(267,121,cs),
(229,121,o),
(196,87,o),
(196,49,cs),
(196,16,o),
(221,-9,o),
(254,-9,cs)
);
}
);
width = 600;
}
);
unicode = 33;
},
{
color = (0,0,255,191);
glyphname = exclamdown;
lastChange = "2024-10-14 19:30:53 +0000";
layers = (
{
layerId = m001;
shapes = (
{
closed = 1;
nodes = (
(291,284,l),
(172,-235,l),
(225,-235,l),
(332,284,l)
);
},
{
closed = 1;
nodes = (
(320,500,o),
(291,471,o),
(291,439,cs),
(291,412,o),
(311,392,o),
(338,392,cs),
(368,392,o),
(397,421,o),
(397,453,cs),
(397,480,o),
(377,500,o),
(350,500,cs)
);
}
);
userData = {
com.typemytype.robofont.guideline.magnetic.0C2kWGiRmU = 5;
com.typemytype.robofont.guideline.magnetic.CBajzZtwAP = 5;
com.typemytype.robofont.guideline.magnetic.GCmpGkTSpb = 5;
com.typemytype.robofont.guideline.magnetic.SYuR4psgeS = 5;
com.typemytype.robofont.guideline.magnetic.nHXIicSWkU = 5;
};
width = 600;
},
{
layerId = "E1238894-54FF-4BF5-8428-CDF6AE3ED177";
shapes = (
{
closed = 1;
nodes = (
(250,277,l),
(128,-208,l),
(284,-208,l),
(368,277,l)
);
},
{
closed = 1;
nodes = (
(291,530,o),
(241,477,o),
(241,418,cs),
(241,368,o),
(276,329,o),
(323,329,cs),
(381,329,o),
(431,380,o),
(431,441,cs),
(431,491,o),
(396,530,o),
(347,530,cs)
);
}
);
userData = {
com.typemytype.robofont.guideline.magnetic.0C2kWGiRmU = 5;
com.typemytype.robofont.guideline.magnetic.CBajzZtwAP = 5;
com.typemytype.robofont.guideline.magnetic.GCmpGkTSpb = 5;
com.typemytype.robofont.guideline.magnetic.SYuR4psgeS = 5;
com.typemytype.robofont.guideline.magnetic.nHXIicSWkU = 5;
};
width = 600;
},
{
layerId = "73361422-4D71-4ED1-86BB-2DC193C1BE05";
shapes = (
{
closed = 1;
nodes = (
(285,302,l),
(165,-210,l),
(240,-210,l),
(342,302,l)
);
},
{
closed = 1;
nodes = (
(315,526,o),
(282,491,o),
(282,454,cs),
(282,421,o),
(307,396,o),
(339,396,cs),
(377,396,o),
(410,430,o),
(410,468,cs),
(410,501,o),
(385,526,o),
(352,526,cs)
);
}
);
userData = {
com.typemytype.robofont.guideline.magnetic.0C2kWGiRmU = 5;
com.typemytype.robofont.guideline.magnetic.CBajzZtwAP = 5;
com.typemytype.robofont.guideline.magnetic.GCmpGkTSpb = 5;
com.typemytype.robofont.guideline.magnetic.SYuR4psgeS = 5;
com.typemytype.robofont.guideline.magnetic.nHXIicSWkU = 5;
};
width = 600;
}
);
unicode = 161;
},
{
glyphname = question;
lastChange = "2024-10-14 19:30:53 +0000";
layers = (
{
guides = (
{
angle = 78;
pos = (314,201);
userData = {
UFO.identifier = DcyMJdXtk4;
};
}
);
layerId = m001;
shapes = (
{
closed = 1;
nodes = (
(286,201,l),
(310,397,o),
(561,342,o),
(561,555,cs),
(561,643,o),
(487,711,o),
(380,711,cs),
(310,711,o),
(240,678,o),
(174,619,c),
(205,579,l),
(261,631,o),
(321,663,o),
(381,663,cs),
(458,663,o),
(512,617,o),
(512,553,cs),
(512,386,o),
(255,414,o),
(241,201,c)
);
},
{
closed = 1;
nodes = (
(259,-8,o),
(288,21,o),
(288,53,cs),
(288,80,o),
(268,100,o),
(241,100,cs),
(211,100,o),
(182,71,o),
(182,39,cs),
(182,12,o),
(202,-8,o),
(229,-8,cs)
);
}
);
width = 600;
},
{
layerId = "E1238894-54FF-4BF5-8428-CDF6AE3ED177";
shapes = (
{
closed = 1;
nodes = (
(331,244,l),
(340,331,o),
(581,347,o),
(581,539,cs),
(581,640,o),
(494,710,o),
(369,710,cs),
(264,710,o),
(163,652,o),
(109,555,c),
(222,499,l),
(248,545,o),
(297,575,o),
(348,575,cs),
(398,575,o),
(429,552,o),
(429,515,cs),
(429,408,o),
(226,421,o),
(204,244,c)
);
},
{
closed = 1;
nodes = (
(289,-11,o),
(339,42,o),
(339,101,cs),
(339,151,o),
(304,190,o),
(257,190,cs),
(199,190,o),
(149,139,o),
(149,78,cs),
(149,28,o),
(184,-11,o),
(233,-11,cs)
);
}
);
width = 600;
},
{
layerId = "73361422-4D71-4ED1-86BB-2DC193C1BE05";
shapes = (
{
closed = 1;
nodes = (
(295,215,l),
(316,386,o),
(566,346,o),
(566,552,cs),
(566,640,o),
(488,707,o),
(376,707,cs),
(299,707,o),
(221,671,o),
(159,606,c),
(207,562,l),
(256,612,o),
(314,641,o),
(372,641,cs),
(445,641,o),
(495,601,o),
(495,545,cs),
(495,393,o),
(249,417,o),
(233,215,c)
);
},
{
closed = 1;
nodes = (
(265,-9,o),
(298,26,o),
(298,63,cs),
(298,96,o),
(273,121,o),
(241,121,cs),
(203,121,o),
(170,87,o),
(170,49,cs),
(170,16,o),
(195,-9,o),
(228,-9,cs)
);
}
);
width = 600;
}
);
unicode = 63;
},
{
color = (0,0,255,191);
glyphname = questiondown;
lastChange = "2024-10-14 19:30:53 +0000";
layers = (
{
layerId = m001;
shapes = (
{
closed = 1;
nodes = (
(317,291,l),
(293,95,o),
(42,150,o),
(42,-63,cs),
(42,-151,o),
(116,-219,o),
(223,-219,cs),
(293,-219,o),
(363,-186,o),
(429,-127,c),
(398,-87,l),
(342,-139,o),
(282,-171,o),
(222,-171,cs),
(145,-171,o),
(91,-125,o),
(91,-61,cs),
(91,106,o),
(348,78,o),
(362,291,c)
);
},
{
closed = 1;
nodes = (
(344,500,o),
(315,471,o),
(315,439,cs),
(315,412,o),
(335,392,o),
(362,392,cs),
(392,392,o),
(421,421,o),
(421,453,cs),
(421,480,o),
(401,500,o),
(374,500,cs)
);
}
);
userData = {
com.typemytype.robofont.guideline.magnetic.IMaz5fMtzt = 5;
com.typemytype.robofont.guideline.magnetic.cziLJTzKvC = 5;
com.typemytype.robofont.guideline.magnetic.dciOJGCLsF = 5;
com.typemytype.robofont.guideline.magnetic.gtoWSp4rHE = 5;
com.typemytype.robofont.guideline.magnetic.j2JtakW70K = 5;
};
width = 600;
},
{
layerId = "E1238894-54FF-4BF5-8428-CDF6AE3ED177";
shapes = (
{
closed = 1;
nodes = (
(264,247,l),
(255,160,o),
(14,144,o),
(14,-48,cs),
(14,-149,o),
(101,-219,o),
(226,-219,cs),
(331,-219,o),
(432,-161,o),
(486,-64,c),
(373,-8,l),
(347,-54,o),
(298,-84,o),
(247,-84,cs),
(197,-84,o),
(166,-61,o),
(166,-24,cs),
(166,83,o),
(369,70,o),
(391,247,c)
);
},
{
closed = 1;
nodes = (
(306,502,o),
(256,449,o),
(256,390,cs),
(256,340,o),
(291,301,o),
(338,301,cs),
(396,301,o),
(446,352,o),
(446,413,cs),
(446,463,o),
(411,502,o),
(362,502,cs)
);
}
);
userData = {
com.typemytype.robofont.guideline.magnetic.IMaz5fMtzt = 5;
com.typemytype.robofont.guideline.magnetic.cziLJTzKvC = 5;
com.typemytype.robofont.guideline.magnetic.dciOJGCLsF = 5;
com.typemytype.robofont.guideline.magnetic.gtoWSp4rHE = 5;
com.typemytype.robofont.guideline.magnetic.j2JtakW70K = 5;
};
width = 600;
},
{
layerId = "73361422-4D71-4ED1-86BB-2DC193C1BE05";
shapes = (
{
closed = 1;
nodes = (
(304,273,l),
(283,102,o),
(33,142,o),
(33,-64,cs),
(33,-152,o),
(111,-219,o),
(223,-219,cs),
(300,-219,o),
(378,-183,o),
(440,-118,c),
(392,-74,l),
(343,-124,o),
(285,-153,o),
(227,-153,cs),
(154,-153,o),
(104,-113,o),
(104,-57,cs),
(104,95,o),
(350,71,o),
(366,273,c)
);
},
{
closed = 1;
nodes = (
(334,497,o),
(301,462,o),
(301,425,cs),
(301,392,o),
(326,367,o),
(358,367,cs),
(396,367,o),
(429,401,o),
(429,439,cs),
(429,472,o),
(404,497,o),
(371,497,cs)
);
}
);
userData = {
com.typemytype.robofont.guideline.magnetic.IMaz5fMtzt = 5;
com.typemytype.robofont.guideline.magnetic.cziLJTzKvC = 5;
com.typemytype.robofont.guideline.magnetic.dciOJGCLsF = 5;
com.typemytype.robofont.guideline.magnetic.gtoWSp4rHE = 5;
com.typemytype.robofont.guideline.magnetic.j2JtakW70K = 5;
};
width = 600;
}
);
unicode = 191;
},
{
color = (255,111,207,255);
glyphname = periodcentered;
lastChange = "2024-10-14 19:30:53 +0000";
layers = (
{
layerId = m001;
shapes = (
{
closed = 1;
nodes = (
(335,237,o),
(364,266,o),
(364,298,cs),
(364,325,o),
(344,345,o),
(317,345,cs),
(287,345,o),
(258,316,o),
(258,284,cs),
(258,257,o),
(278,237,o),
(305,237,cs)
);
}
);
width = 600;
},
{
layerId = "E1238894-54FF-4BF5-8428-CDF6AE3ED177";
shapes = (
{
closed = 1;
nodes = (
(363,194,o),
(415,248,o),
(415,308,cs),
(415,364,o),
(373,407,o),
(320,407,cs),
(255,407,o),
(203,355,o),
(203,293,cs),
(203,237,o),
(246,194,o),
(301,194,cs)
);
}
);
width = 600;
},
{
layerId = "73361422-4D71-4ED1-86BB-2DC193C1BE05";
shapes = (
{
closed = 1;
nodes = (
(341,228,o),
(374,263,o),
(374,300,cs),
(374,333,o),
(349,358,o),
(317,358,cs),
(279,358,o),
(246,324,o),
(246,286,cs),
(246,253,o),
(271,228,o),
(304,228,cs)
);
}
);
width = 600;
}
);
unicode = 183;
},
{
glyphname = bullet;
lastChange = "2024-10-14 19:30:53 +0000";
layers = (
{
layerId = m001;
shapes = (
{
closed = 1;
nodes = (
(371,266,o),
(421,315,o),
(421,370,cs),
(421,419,o),
(385,456,o),
(336,456,cs),
(281,456,o),
(231,406,o),
(231,352,cs),
(231,303,o),
(267,266,o),
(316,266,cs)
);
}
);
width = 600;
},
{
layerId = "E1238894-54FF-4BF5-8428-CDF6AE3ED177";
shapes = (
{
closed = 1;
nodes = (
(374,202,o),
(434,266,o),
(434,338,cs),
(434,398,o),
(382,445,o),
(325,445,cs),
(254,445,o),
(194,383,o),
(194,309,cs),
(194,249,o),
(247,202,o),
(306,202,cs)
);
}
);
width = 600;
},
{
layerId = "73361422-4D71-4ED1-86BB-2DC193C1BE05";
shapes = (
{
closed = 1;
nodes = (
(370,253,o),
(421,307,o),
(421,364,cs),
(421,415,o),
(382,454,o),
(334,454,cs),
(276,454,o),
(225,401,o),
(225,343,cs),
(225,292,o),
(264,253,o),
(314,253,cs)
);
}
);
width = 600;
}
);
unicode = 8226;
},
{
glyphname = asterisk;
kernLeft = _reg;
kernRight = _reg;
lastChange = "2024-10-14 19:30:53 +0000";
layers = (
{
layerId = m001;
shapes = (
{
closed = 1;
nodes = (
(333,299,l),
(367,468,l),
(480,372,l),
(509,404,l),
(390,498,l),
(553,578,l),
(536,614,l),
(382,536,l),
(417,700,l),
(378,700,l),
(346,535,l),
(236,628,l),
(209,597,l),
(322,505,l),
(160,420,l),
(177,384,l),
(333,469,l),
(294,299,l)
);
}
);
width = 600;
},
{
associatedMasterId = m001;
layerId = "9E65AC40-225E-4C48-B632-FA112E3F5C28";
name = New_Layer;
shapes = (
{
closed = 1;
nodes = (
(334,300,l),
(368,466,l),
(481,370,l),
(509,403,l),
(391,500,l),
(547,594,l),
(530,627,l),
(382,535,l),
(420,700,l),
(380,700,l),
(346,534,l),
(236,627,l),
(208,594,l),
(323,501,l),
(163,404,l),
(177,370,l),
(332,466,l),
(294,300,l)
);
}
);
width = 600;
},
{
background = {
shapes = (
{
closed = 1;
nodes = (
(349,276,l),
(373,397,l),
(464,321,l),
(536,408,l),
(436,486,l),
(572,567,l),
(536,652,l),
(410,574,l),
(439,700,l),
(343,700,l),
(318,575,l),
(227,652,l),
(156,567,l),
(257,486,l),
(124,408,l),
(158,321,l),
(281,397,l),
(253,276,l)
);
}
);
};
layerId = "E1238894-54FF-4BF5-8428-CDF6AE3ED177";
shapes = (
{
closed = 1;
nodes = (
(350,276,l),
(373,394,l),
(460,319,l),
(530,400,l),
(435,477,l),
(578,549,l),
(541,639,l),
(410,570,l),
(439,700,l),
(344,700,l),
(318,575,l),
(227,653,l),
(159,574,l),
(259,492,l),
(120,423,l),
(154,331,l),
(281,398,l),
(254,276,l)
);
}
);
width = 600;
},
{
layerId = "73361422-4D71-4ED1-86BB-2DC193C1BE05";
shapes = (
{
closed = 1;
nodes = (
(335,292,l),
(370,454,l),
(493,344,l),
(530,386,l),
(400,496,l),
(555,580,l),
(534,627,l),
(389,545,l),
(422,700,l),
(372,700,l),
(341,544,l),
(222,649,l),
(187,608,l),
(310,504,l),
(158,414,l),
(178,365,l),
(323,456,l),
(284,292,l)
);
}
);
width = 600;
},
{
associatedMasterId = "73361422-4D71-4ED1-86BB-2DC193C1BE05";
layerId = "1BF9DEA0-4E90-4A4E-94F8-FAE599ECC588";
name = New_Layer;
shapes = (
{
closed = 1;
nodes = (
(336,291,l),
(369,454,l),
(482,356,l),
(521,401,l),
(401,499,l),
(558,596,l),
(539,640,l),
(389,545,l),
(423,700,l),
(372,700,l),
(340,544,l),
(231,640,l),
(194,596,l),
(310,499,l),
(149,401,l),
(167,356,l),
(322,454,l),
(285,291,l)
);
}
);
width = 600;
}
);
unicode = 42;
},
{
glyphname = numbersign;
lastChange = "2024-10-14 19:30:53 +0000";
layers = (
{
layerId = m001;
shapes = (
{
closed = 1;
nodes = (
(54,0,l),
(179,228,l),
(335,228,l),
(210,0,l),
(260,0,l),
(385,228,l),
(521,228,l),
(530,271,l),
(408,271,l),
(495,429,l),
(612,429,l),
(621,472,l),
(518,472,l),
(643,700,l),
(593,700,l),
(468,472,l),
(312,472,l),
(437,700,l),
(387,700,l),
(262,472,l),
(126,472,l),
(117,429,l),
(239,429,l),
(152,271,l),
(35,271,l),
(26,228,l),
(129,228,l),
(4,0,l)
);
},
{
closed = 1;
nodes = (
(289,429,l),
(445,429,l),
(358,271,l),
(202,271,l)
);
}
);
width = 600;
},
{
layerId = "E1238894-54FF-4BF5-8428-CDF6AE3ED177";
shapes = (
{
closed = 1;
nodes = (
(77,0,l),
(179,184,l),
(275,184,l),
(173,0,l),
(305,0,l),
(407,184,l),
(548,184,l),
(572,293,l),
(468,293,l),
(531,407,l),
(642,407,l),
(666,516,l),
(592,516,l),
(694,700,l),
(562,700,l),
(460,516,l),
(364,516,l),
(466,700,l),
(333,700,l),
(231,516,l),
(89,516,l),
(65,407,l),
(170,407,l),
(107,293,l),
(-4,293,l),
(-28,184,l),
(46,184,l),
(-56,0,l)
);
},
{
closed = 1;
nodes = (
(303,407,l),
(399,407,l),
(336,293,l),
(240,293,l)
);
}
);
width = 600;
},
{
layerId = "73361422-4D71-4ED1-86BB-2DC193C1BE05";
shapes = (
{
closed = 1;
nodes = (
(59,0,l),
(179,219,l),
(322,219,l),
(202,0,l),
(268,0,l),
(388,219,l),
(523,219,l),
(535,277,l),
(420,277,l),
(500,423,l),
(613,423,l),
(626,481,l),
(532,481,l),
(652,700,l),
(586,700,l),
(466,481,l),
(323,481,l),
(443,700,l),
(377,700,l),
(257,481,l),
(122,481,l),
(109,423,l),
(225,423,l),
(145,277,l),
(31,277,l),
(19,219,l),
(113,219,l),
(-7,0,l)
);
},
{
closed = 1;
nodes = (
(291,423,l),
(434,423,l),
(354,277,l),
(211,277,l)
);
}
);
width = 600;
}
);
unicode = 35;
},
{
glyphname = slash;
lastChange = "2024-10-14 19:30:53 +0000";
layers = (
{
layerId = m001;
shapes = (
{
closed = 1;
nodes = (
(13,-209,l),
(605,700,l),
(549,700,l),
(-43,-209,l)
);
}
);
width = 600;
},
{
layerId = "E1238894-54FF-4BF5-8428-CDF6AE3ED177";
shapes = (
{
closed = 1;
nodes = (
(40,-209,l),
(635,700,l),
(471,700,l),
(-125,-209,l)
);
}
);
width = 600;
},
{
layerId = "73361422-4D71-4ED1-86BB-2DC193C1BE05";
shapes = (
{
closed = 1;
nodes = (
(19,-209,l),
(611,700,l),
(532,700,l),
(-60,-209,l)
);
}
);
width = 600;
}
);
unicode = 47;
},
{
glyphname = backslash;
lastChange = "2024-10-14 19:30:53 +0000";
layers = (
{
layerId = m001;
shapes = (
{
closed = 1;
nodes = (
(452,-209,l),
(245,700,l),
(197,700,l),
(404,-209,l)
);
}
);
width = 600;
},
{
layerId = "E1238894-54FF-4BF5-8428-CDF6AE3ED177";
shapes = (
{
closed = 1;
nodes = (
(511,-209,l),
(303,700,l),
(150,700,l),
(359,-209,l)
);
}
);
width = 600;
},
{
layerId = "73361422-4D71-4ED1-86BB-2DC193C1BE05";
shapes = (
{
closed = 1;
nodes = (
(464,-209,l),
(257,700,l),
(187,700,l),
(394,-209,l)
);
}
);
width = 600;
}
);
unicode = 92;
},
